<?xml version="1.0" standalone="no"?>
<!DOCTYPE svg PUBLIC "-//W3C//DTD SVG 1.1//EN" "http://www.w3.org/Graphics/SVG/1.1/DTD/svg11.dtd" >
<svg>
<metadata>
Created by FontForge 20110222 at Fri Sep 20 06:10:49 2013
 By Orthosie Webhosting
Copyright (c) 2008 by CastleType. All rights reserved.
</metadata>
<defs>
<font id="EsenciaRegular" horiz-adv-x="352" >
  <font-face 
    font-family="EsenciaRegular"
    font-weight="400"
    font-stretch="normal"
    units-per-em="1000"
    panose-1="2 0 0 0 0 0 0 0 0 0"
    ascent="800"
    descent="-200"
    x-height="700"
    cap-height="700"
    bbox="-130 -208 1876 835"
    underline-thickness="50"
    underline-position="-50"
    unicode-range="U+0020-FB04"
  />
<missing-glyph horiz-adv-x="700" 
d="M0 0v700h700v-700h-700zM45 35h606l-303 302zM665 49v604l-303 -302zM348 365l301 300h-602zM35 649v-596l299 298z" />
    <glyph glyph-name="ff" unicode="ff" horiz-adv-x="704" 
d="M519 214h114v-36h-114v-178h-74v178h-243v-178h-74v178h-98v36h98v486h180l32 135h37l-40 -171h-135v-450h243v486h209v-36h-135v-450z" />
    <glyph glyph-name="fi" unicode="fi" horiz-adv-x="581" 
d="M202 214h114v-36h-114v-178h-74v178h-98v36h98v486h180l32 135h37l-40 -171h-135v-450zM447 700h74v-700h-74v700z" />
    <glyph glyph-name="fl" unicode="fl" horiz-adv-x="664" 
d="M202 214h114v-36h-114v-178h-74v178h-98v36h98v486h180l32 135h37l-40 -171h-135v-450zM447 700h74v-664h113v-36h-187v700z" />
    <glyph glyph-name="f_f_i" unicode="ffi" horiz-adv-x="878" 
d="M519 214h114v-36h-114v-178h-74v178h-243v-178h-74v178h-98v36h98v486h180l32 135h37l-40 -171h-135v-450h243v486h209v-36h-135v-450zM744 700h74v-700h-74v700z" />
    <glyph glyph-name="f_f_l" unicode="ffl" horiz-adv-x="961" 
d="M744 700h74v-664h113v-36h-187v700zM519 214h114v-36h-114v-178h-74v178h-243v-178h-74v178h-98v36h98v486h180l32 135h37l-40 -171h-135v-450h243v486h209v-36h-135v-450z" />
    <glyph glyph-name=".notdef" horiz-adv-x="700" 
d="M0 0v700h700v-700h-700zM45 35h606l-303 302zM665 49v604l-303 -302zM348 365l301 300h-602zM35 649v-596l299 298z" />
    <glyph glyph-name=".null" horiz-adv-x="0" 
 />
    <glyph glyph-name="nonmarkingreturn" horiz-adv-x="200" 
 />
    <glyph glyph-name="space" unicode=" " horiz-adv-x="200" 
 />
    <glyph glyph-name="exclam" unicode="!" horiz-adv-x="154" 
d="M40 90h74v-90h-74v90zM40 700h74l-10 -510h-54z" />
    <glyph glyph-name="quotedbl" unicode="&#x22;" horiz-adv-x="195" 
d="M20 529l41 171h37l-41 -171h-37zM97 529l41 171h37l-41 -171h-37z" />
    <glyph glyph-name="numbersign" unicode="#" horiz-adv-x="359" 
d="M52 438h58l50 282h39l-50 -282h91l50 282h39l-50 -282h51v-40h-58l-14 -78h51v-40h-58l-53 -300h-38l52 300h-91l-53 -300h-38l52 300h-50v40h57l14 78h-51v40zM128 320h91l14 78h-91z" />
    <glyph glyph-name="dollar" unicode="$" horiz-adv-x="310" 
d="M244 274q36 -71 36 -132q0 -38 -10 -65t-26.5 -45t-37 -27t-40.5 -12v-43h-34v43q-20 2 -38 11t-32 24t-22.5 36t-8.5 48h36q0 -42 24.5 -63t54.5 -21q60 0 60 85q0 28 -6 59.5t-22 62.5l-102 206q-20 39 -33 73t-13 68q0 45 25.5 80.5t76.5 43.5v44h34v-43
q16 -2 28.5 -7t20.5 -11q10 -7 16 -15l24 34l13 -9l-51 -73q-8 16 -22 30.5t-40 14.5q-27 0 -39 -20.5t-12 -54.5q0 -21 10.5 -53.5t27.5 -66.5z" />
    <glyph glyph-name="percent" unicode="%" horiz-adv-x="559" 
d="M118 705q37 0 56.5 -25.5t19.5 -71.5v-216q0 -29 -7 -47.5t-18 -29.5t-24.5 -15.5t-26.5 -4.5q-14 0 -28 4.5t-25 15.5t-18 29.5t-7 47.5v216q0 46 20 71.5t58 25.5zM118 320q28 0 28 45v269q0 23 -8.5 34t-19.5 11q-13 0 -21.5 -11t-8.5 -34v-269q0 -45 30 -45zM95 -20
l330 740h39l-331 -740h-38zM443 405q37 0 56.5 -25.5t19.5 -71.5v-216q0 -29 -7 -47.5t-18 -29.5t-24.5 -15.5t-26.5 -4.5q-14 0 -28 4.5t-25 15.5t-18 29.5t-7 47.5v216q0 46 20 71.5t58 25.5zM443 20q28 0 28 45v269q0 23 -8.5 34t-19.5 11q-13 0 -21.5 -11t-8.5 -34v-269
q0 -45 30 -45z" />
    <glyph glyph-name="ampersand" unicode="&#x26;" horiz-adv-x="319" 
d="M195 224h84v-113q0 -59 -29.5 -89t-73.5 -30q-22 0 -44.5 7.5t-40.5 26.5t-29.5 51.5t-11.5 82.5v45q0 71 24.5 113t72.5 52q-19 4 -36.5 14t-31 29.5t-21.5 49.5t-8 72v5q0 81 32 124.5t94 43.5q19 0 33 -5.5t24 -11.5q11 -8 19 -17l24 34l13 -9l-51 -73q-8 16 -22 30.5
t-40 14.5q-22 0 -37 -20.5t-15 -63.5v-99q0 -82 47 -85h35v-67h-30q-22 0 -37 -20.5t-15 -63.5v-134q0 -47 15 -68.5t45 -21.5q59 0 59 84v72h-48v40z" />
    <glyph glyph-name="quotesingle" unicode="'" horiz-adv-x="118" 
d="M20 529l41 171h37l-41 -171h-37z" />
    <glyph glyph-name="parenleft" unicode="(" horiz-adv-x="187" 
d="M147 723q-27 -16 -40 -47.5t-13 -88.5v-476q0 -57 13 -87.5t40 -47.5v-36q-23 8 -43.5 25t-35.5 43.5t-24 63.5t-9 86v382q0 98 32.5 150.5t79.5 69.5v-37z" />
    <glyph glyph-name="parenright" unicode=")" horiz-adv-x="187" 
d="M40 760q23 -8 43.5 -25t35.5 -44t24 -64.5t9 -86.5v-382q0 -49 -9 -86t-24 -63.5t-35.5 -43.5t-43.5 -25v36q27 17 40 47.5t13 87.5v476q0 57 -13 88.5t-40 47.5v37z" />
    <glyph glyph-name="asterisk" unicode="*" horiz-adv-x="329" 
d="M191 693l-14 -116l94 68l28 -51l-109 -40l107 -42l-25 -47l-96 67l15 -115h-54l13 115l-93 -69l-27 47l106 44l-106 45l29 50l91 -71l-14 115h55z" />
    <glyph glyph-name="plus" unicode="+" 
d="M50 370h106v106h40v-106h106v-39h-106v-106h-40v106h-106v39z" />
    <glyph glyph-name="comma" unicode="," horiz-adv-x="154" 
d="M40 90h74v-90l-25 -103h-37l24 103h-36v90z" />
    <glyph glyph-name="hyphen" unicode="-" horiz-adv-x="226" 
d="M40 390h146v-40h-146v40z" />
    <glyph glyph-name="period" unicode="." horiz-adv-x="154" 
d="M40 90h74v-90h-74v90z" />
    <glyph glyph-name="slash" unicode="/" horiz-adv-x="229" 
d="M30 -20l130 740h39l-131 -740h-38z" />
    <glyph glyph-name="zero" unicode="0" 
d="M176 708q62 0 94 -43.5t32 -124.5v-380q0 -50 -11.5 -82.5t-29.5 -51.5t-40.5 -26.5t-44.5 -7.5t-44.5 7.5t-40.5 26.5t-29.5 51.5t-11.5 82.5v380q0 81 32 124.5t94 43.5zM176 28q52 0 52 85v474q0 43 -15 63.5t-37 20.5t-37 -20.5t-15 -63.5v-474q0 -85 52 -85z" />
    <glyph glyph-name="one" unicode="1" horiz-adv-x="204" 
d="M30 700h114v-700h-74v664h-40v36z" />
    <glyph glyph-name="two" unicode="2" horiz-adv-x="302" 
d="M30 41q0 42 11.5 81t29.5 76t38 73t38 72t29.5 74t11.5 79v91q0 85 -60 85q-59 0 -59 -84h-36q0 59 30.5 89.5t74.5 30.5q22 0 44 -7.5t40 -26.5t29 -51.5t11 -82.5v-44q0 -44 -14.5 -83.5t-36.5 -76.5t-47 -72.5t-47 -71.5t-36.5 -73t-14.5 -77v-6h196v-36h-232v41z" />
    <glyph glyph-name="three" unicode="3" horiz-adv-x="309" 
d="M259 467q0 -29 -7.5 -50t-20 -34t-28.5 -19t-32 -6h-10v-10q16 0 33.5 -6t32 -19t23.5 -34t9 -50v-79q0 -50 -11 -82.5t-29 -51.5t-40 -26.5t-44 -7.5q-44 0 -74.5 30.5t-30.5 89.5h36q0 -84 59 -84q60 0 60 85v180q0 15 -11 22.5t-22 7.5h-51v60h51q11 0 22 7.5t11 22.5
v174q0 85 -60 85q-59 0 -59 -84h-36q0 59 30.5 89.5t74.5 30.5q22 0 44 -7.5t40 -26.5t29 -51.5t11 -82.5v-73z" />
    <glyph glyph-name="four" unicode="4" horiz-adv-x="350" 
d="M30 276h2l-1 1l132 423h103v-424h54v-36h-54v-240h-74v240h-162v36zM71 276h121v391z" />
    <glyph glyph-name="five" unicode="5" horiz-adv-x="327" 
d="M45 383l12 317h200v-36h-166l-10 -227q14 18 32 28.5t38 10.5q62 0 94 -43.5t32 -124.5v-139q0 -50 -11 -83t-29 -52t-40.5 -26.5t-44.5 -7.5q-44 0 -74 30.5t-30 89.5h36q0 -42 19 -62.5t49 -20.5q51 0 51 85v233q0 43 -15 63.5t-37 20.5q-17 0 -36.5 -14t-33.5 -42h-36
z" />
    <glyph glyph-name="six" unicode="6" 
d="M50 540q0 50 11 82.5t29 51.5t40 26.5t44 7.5q44 0 74.5 -30.5t30.5 -89.5h-36q0 84 -59 84q-60 0 -60 -85v-203q11 17 29 24t33 7q62 0 89 -43.5t27 -124.5v-87q0 -50 -11.5 -82.5t-30 -51.5t-41 -26.5t-43.5 -7.5q-22 0 -44.5 7.5t-40.5 26.5t-29.5 51.5t-11.5 82.5
v380zM228 294q0 43 -15 63.5t-37 20.5q-21 0 -36.5 -18.5t-15.5 -57.5v-189q0 -85 52 -85t52 85v181z" />
    <glyph glyph-name="seven" unicode="7" horiz-adv-x="301" 
d="M30 700h241l-114 -700h-74l107 664h-160v36z" />
    <glyph glyph-name="eight" unicode="8" 
d="M176 708q62 0 94 -43.5t32 -124.5v-25q0 -42 -8 -72t-21.5 -49.5t-31 -29.5t-36.5 -14q48 -10 72.5 -52t24.5 -113v-25q0 -50 -11.5 -82.5t-29.5 -51.5t-40.5 -26.5t-44.5 -7.5t-44.5 7.5t-40.5 26.5t-29.5 51.5t-11.5 82.5v25q0 71 24.5 113t72.5 52q-19 4 -36.5 14
t-31 29.5t-21.5 49.5t-8 72v25q0 81 32 124.5t94 43.5zM176 383q52 0 52 85v119q0 43 -15 63.5t-37 20.5t-37 -20.5t-15 -63.5v-119q0 -85 52 -85zM176 28q52 0 52 85v119q0 43 -15 63.5t-37 20.5t-37 -20.5t-15 -63.5v-119q0 -85 52 -85z" />
    <glyph glyph-name="nine" unicode="9" 
d="M302 160q0 -50 -11 -82.5t-29 -51.5t-40 -26.5t-44 -7.5q-44 0 -74.5 30.5t-30.5 89.5h36q0 -84 59 -84q60 0 60 85v133q-11 -17 -29 -24t-33 -7q-62 0 -89 43.5t-27 124.5v157q0 50 11.5 82.5t30 51.5t41 26.5t43.5 7.5q22 0 44.5 -7.5t40.5 -26.5t29.5 -51.5
t11.5 -82.5v-380zM124 336q0 -43 15 -63.5t37 -20.5q21 0 36.5 18.5t15.5 57.5v259q0 85 -52 85t-52 -85v-251z" />
    <glyph glyph-name="colon" unicode=":" horiz-adv-x="154" 
d="M40 90h74v-90h-74v90zM40 440h74v-90h-74v90z" />
    <glyph glyph-name="semicolon" unicode=";" horiz-adv-x="154" 
d="M40 90h74v-90l-25 -103h-37l24 103h-36v90zM40 440h74v-90h-74v90z" />
    <glyph glyph-name="less" unicode="&#x3c;" horiz-adv-x="339" 
d="M50 364l239 138v-46l-184 -106l184 -106v-46l-239 138v28z" />
    <glyph glyph-name="equal" unicode="=" 
d="M50 420h252v-40h-252v40zM50 320h252v-40h-252v40z" />
    <glyph glyph-name="greater" unicode="&#x3e;" horiz-adv-x="339" 
d="M289 336l-239 -138v46l184 106l-184 106v46l239 -138v-28z" />
    <glyph glyph-name="question" unicode="?" horiz-adv-x="289" 
d="M97 190v16q0 57 13.5 99t30 81t30.5 80.5t14 95.5q0 60 -15 85t-45 25q-59 0 -59 -84h-36q0 59 30.5 89.5t74.5 30.5q22 0 44 -7.5t40 -25t29 -46t11 -69.5q0 -35 -9.5 -63.5t-23.5 -54.5t-30 -51t-30 -52.5t-23.5 -60t-9.5 -72.5v-16h-36zM79 90h74v-90h-74v90z" />
    <glyph glyph-name="at" unicode="@" horiz-adv-x="464" 
d="M186 330h71l-34 183zM282 199l-20 104h-81l-21 -104h-45v25h24l65 325h63l61 -325q22 0 36 16t22 42.5t11.5 60.5t3.5 69q0 52 -12.5 100.5t-34 86t-51.5 59.5t-66 22t-67.5 -20t-55 -61.5t-37.5 -103.5t-14 -146t14 -146t37.5 -102.5t55 -60.5t67.5 -20q61 0 98 55
l27 -18q-24 -35 -55.5 -50t-69.5 -15q-43 0 -80.5 21.5t-65.5 66t-44.5 111.5t-16.5 158t16.5 158.5t44.5 112t65.5 66.5t80.5 22t79 -23t62 -64.5t41 -99t15 -126.5q0 -41 -8 -76.5t-22 -62t-33.5 -42t-42.5 -15.5h-46z" />
    <glyph glyph-name="A" unicode="A" horiz-adv-x="490" 
d="M15 36h59l124 664h101l117 -664h59v-36h-129l-33 184h-173l-34 -184h-91v36zM147 224h159l-77 437z" />
    <glyph glyph-name="B" unicode="B" horiz-adv-x="330" 
d="M60 700h133q17 0 34.5 -6t31.5 -18.5t22.5 -32t8.5 -47.5v-143q0 -50 -24 -72.5t-52 -22.5v-10q28 0 52 -22.5t24 -72.5v-149q0 -28 -8.5 -47.5t-22.5 -32t-31.5 -18.5t-34.5 -6h-133v700zM134 36h47q13 0 25 8t12 22v229q0 23 -11 31.5t-22 8.5h-51v-299zM134 371h51
q11 0 22 8.5t11 31.5v223q0 14 -12 22t-25 8h-47v-293z" />
    <glyph glyph-name="C" unicode="C" horiz-adv-x="308" 
d="M175 -8q-22 0 -44.5 7.5t-40.5 26.5t-29 51.5t-11 82.5v380q0 81 31.5 124.5t93.5 43.5q19 0 33 -5.5t24 -11.5q11 -8 19 -17l24 34l13 -9l-51 -73q-8 16 -22 30.5t-40 14.5q-22 0 -36.5 -20.5t-14.5 -63.5v-474q0 -85 60 -85q59 0 59 84h36q0 -59 -30.5 -89.5
t-73.5 -30.5z" />
    <glyph glyph-name="D" unicode="D" horiz-adv-x="342" 
d="M176 700q62 0 94 -39.5t32 -120.5v-380q0 -50 -11.5 -81.5t-29.5 -49t-40.5 -23.5t-44.5 -6h-116v700h116zM134 664v-628h43q26 0 38.5 16.5t12.5 60.5v474q0 43 -15 60t-37 17h-42z" />
    <glyph glyph-name="E" unicode="E" horiz-adv-x="387" 
d="M30 214h98v486h180l32 135h37l-40 -171h-135v-450h114v-36h-114v-142h113v-36h-187v178h-98v36z" />
    <glyph glyph-name="F" unicode="F" horiz-adv-x="387" 
d="M202 214h114v-36h-114v-178h-74v178h-98v36h98v486h180l32 135h37l-40 -171h-135v-450z" />
    <glyph glyph-name="G" unicode="G" horiz-adv-x="308" 
d="M243 184h-48v40h84v-112q0 -59 -30.5 -89.5t-73.5 -30.5q-22 0 -44.5 7.5t-40.5 26.5t-29 51.5t-11 82.5v380q0 81 31.5 124.5t93.5 43.5q19 0 33 -5.5t24 -11.5q11 -8 19 -17l24 34l13 -9l-51 -73q-8 16 -22 30.5t-40 14.5q-22 0 -36.5 -20.5t-14.5 -63.5v-474
q0 -85 60 -85q59 0 59 84v72z" />
    <glyph glyph-name="H" unicode="H" horiz-adv-x="414" 
d="M280 184h-146v-184h-74v700h74v-476h146v476h74v-700h-74v184z" />
    <glyph glyph-name="I" unicode="I" horiz-adv-x="194" 
d="M60 700h74v-700h-74v700z" />
    <glyph glyph-name="J" unicode="J" horiz-adv-x="319" 
d="M259 160q0 -50 -11 -82.5t-29 -51.5t-40 -26.5t-44 -7.5q-44 0 -74.5 30.5t-30.5 89.5h36q0 -84 59 -84q60 0 60 85v551h-119v36h193v-540z" />
    <glyph glyph-name="K" unicode="K" horiz-adv-x="347" 
d="M290 700v-247q0 -45 -21.5 -70.5t-54.5 -25.5v-11q33 -1 54.5 -24t21.5 -69v-217h27v-36h-99v295q0 22 -12 31t-25 9h-47v-335h-74v700h74v-329h51q11 0 22 8.5t11 31.5v289h72z" />
    <glyph glyph-name="L" unicode="L" horiz-adv-x="277" 
d="M60 700h74v-664h113v-36h-187v700z" />
    <glyph glyph-name="M" unicode="M" horiz-adv-x="601" 
d="M20 36h63v664h108l119 -673l125 673h106v-700h-74v667l-124 -667h-105l-119 672v-672h-99v36z" />
    <glyph glyph-name="N" unicode="N" horiz-adv-x="429" 
d="M119 667v-667h-99v36h63v664h107l124 -668v668h95v-36h-59v-664h-107z" />
    <glyph glyph-name="O" unicode="O" 
d="M176 708q62 0 94 -43.5t32 -124.5v-380q0 -50 -11.5 -82.5t-29.5 -51.5t-40.5 -26.5t-44.5 -7.5t-44.5 7.5t-40.5 26.5t-29.5 51.5t-11.5 82.5v380q0 81 32 124.5t94 43.5zM176 28q52 0 52 85v474q0 43 -15 63.5t-37 20.5t-37 -20.5t-15 -63.5v-474q0 -85 52 -85z" />
    <glyph glyph-name="P" unicode="P" horiz-adv-x="330" 
d="M60 700h133q17 0 34.5 -6t31.5 -18.5t22.5 -32t8.5 -47.5v-159q0 -59 -26.5 -86t-59.5 -27h-70v-324h-74v700zM134 360h51q11 0 22 8.5t11 31.5v224q0 22 -12 31t-25 9h-47v-304z" />
    <glyph glyph-name="Q" unicode="Q" 
d="M176 708q62 0 94 -43.5t32 -124.5v-380q0 -42 -8 -71t-21 -48.5t-30.5 -30t-35.5 -14.5l22 -93h-37l-21 89q-22 1 -43.5 9t-39 27t-28 51t-10.5 81v380q0 81 32 124.5t94 43.5zM198 33q30 15 30 80v474q0 43 -15 63.5t-37 20.5t-37 -20.5t-15 -63.5v-474q0 -74 38 -83
l-10 44h37z" />
    <glyph glyph-name="R" unicode="R" horiz-adv-x="347" 
d="M60 700h133q17 0 34.5 -6t31.5 -18.5t22.5 -32t8.5 -47.5v-143q0 -50 -24 -72.5t-52 -22.5v-11q28 -1 52 -22.5t24 -71.5v-217h27v-36h-99v295q0 22 -10 31t-23 9h-51v-335h-74v700zM134 371h51q11 0 22 8.5t11 31.5v213q0 22 -12 31t-25 9h-47v-293z" />
    <glyph glyph-name="S" unicode="S" horiz-adv-x="327" 
d="M189 284q4 -25 5 -48t1 -45q0 -33 -7 -66.5t-22 -61.5t-39 -45.5t-58 -17.5h-49v36h49q26 0 41 30t15 84q0 30 -3 60.5t-8 60.5l-26 164q-5 29 -6.5 56.5t-1.5 52.5q0 22 7.5 49.5t22.5 52t38.5 41.5t55.5 17q24 0 42.5 -9t32.5 -22l23 29l15 -12l-49 -64q-8 10 -18 19
q-8 7 -20.5 13t-26.5 6q-20 0 -39 -19.5t-19 -54.5q0 -32 6 -68t12 -74z" />
    <glyph glyph-name="T" unicode="T" horiz-adv-x="370" 
d="M20 700h330v-36h-128v-664h-74v664h-128v36z" />
    <glyph glyph-name="U" unicode="U" horiz-adv-x="358" 
d="M20 700h95v-588q0 -84 59 -84q60 0 60 85v587h74v-540q0 -50 -11 -82.5t-29 -51.5t-40 -26.5t-44 -7.5q-44 0 -74.5 30.5t-30.5 89.5v552h-59v36z" />
    <glyph glyph-name="V" unicode="V" horiz-adv-x="490" 
d="M261 38l123 662h91v-36h-60l-123 -664h-101l-118 664h-58v36h129z" />
    <glyph glyph-name="W" unicode="W" horiz-adv-x="680" 
d="M660 664h-59l-104 -664h-101l-53 354l-66 -354h-101l-99 664h-57v36h129l98 -659l79 426l-34 233h77l97 -654l103 654h91v-36z" />
    <glyph glyph-name="X" unicode="X" horiz-adv-x="400" 
d="M390 0h-104l-102 302l-115 -302h-59v36h35l122 318l-105 310h-32v36h99l84 -248l96 248h71v-36h-48l-102 -264l124 -364h36v-36z" />
    <glyph glyph-name="Y" unicode="Y" horiz-adv-x="338" 
d="M328 664h-25l-96 -356v-308h-74v311l-91 353h-32v36h99l80 -318l86 318h53v-36z" />
    <glyph glyph-name="Z" unicode="Z" horiz-adv-x="331" 
d="M40 700h241l-165 -664h185v-36h-271l165 664h-155v36z" />
    <glyph glyph-name="bracketleft" unicode="[" horiz-adv-x="187" 
d="M40 760h107v-36h-53v-748h53v-36h-107v820z" />
    <glyph glyph-name="backslash" unicode="\" horiz-adv-x="229" 
d="M161 -20l-131 740h39l130 -740h-38z" />
    <glyph glyph-name="bracketright" unicode="]" horiz-adv-x="187" 
d="M147 -60h-107v36h53v748h-53v36h107v-820z" />
    <glyph glyph-name="asciicircum" unicode="^" horiz-adv-x="364" 
d="M196 589l138 -239h-46l-106 184l-106 -184h-46l138 239h28z" />
    <glyph glyph-name="underscore" unicode="_" horiz-adv-x="501" 
d="M0 -160h501v-40h-501v40z" />
    <glyph glyph-name="grave" unicode="`" horiz-adv-x="122" 
d="M55 730l-20 70h40l17 -70h-37z" />
    <glyph glyph-name="a" unicode="a" horiz-adv-x="490" 
d="M15 36h59l124 664h101l117 -664h59v-36h-129l-33 184h-173l-34 -184h-91v36zM147 224h159l-77 437z" />
    <glyph glyph-name="b" unicode="b" horiz-adv-x="330" 
d="M60 700h133q17 0 34.5 -6t31.5 -18.5t22.5 -32t8.5 -47.5v-143q0 -50 -24 -72.5t-52 -22.5v-10q28 0 52 -22.5t24 -72.5v-149q0 -28 -8.5 -47.5t-22.5 -32t-31.5 -18.5t-34.5 -6h-133v700zM134 36h47q13 0 25 8t12 22v229q0 23 -11 31.5t-22 8.5h-51v-299zM134 371h51
q11 0 22 8.5t11 31.5v223q0 14 -12 22t-25 8h-47v-293z" />
    <glyph glyph-name="c" unicode="c" horiz-adv-x="308" 
d="M175 -8q-22 0 -44.5 7.5t-40.5 26.5t-29 51.5t-11 82.5v380q0 81 31.5 124.5t93.5 43.5q19 0 33 -5.5t24 -11.5q11 -8 19 -17l24 34l13 -9l-51 -73q-8 16 -22 30.5t-40 14.5q-22 0 -36.5 -20.5t-14.5 -63.5v-474q0 -85 60 -85q59 0 59 84h36q0 -59 -30.5 -89.5
t-73.5 -30.5z" />
    <glyph glyph-name="d" unicode="d" horiz-adv-x="342" 
d="M176 700q62 0 94 -39.5t32 -120.5v-380q0 -50 -11.5 -81.5t-29.5 -49t-40.5 -23.5t-44.5 -6h-116v700h116zM134 664v-628h43q26 0 38.5 16.5t12.5 60.5v474q0 43 -15 60t-37 17h-42z" />
    <glyph glyph-name="e" unicode="e" horiz-adv-x="387" 
d="M30 214h98v486h180l32 135h37l-40 -171h-135v-450h114v-36h-114v-142h113v-36h-187v178h-98v36z" />
    <glyph glyph-name="f" unicode="f" horiz-adv-x="387" 
d="M202 214h114v-36h-114v-178h-74v178h-98v36h98v486h180l32 135h37l-40 -171h-135v-450z" />
    <glyph glyph-name="g" unicode="g" horiz-adv-x="308" 
d="M243 184h-48v40h84v-112q0 -59 -30.5 -89.5t-73.5 -30.5q-22 0 -44.5 7.5t-40.5 26.5t-29 51.5t-11 82.5v380q0 81 31.5 124.5t93.5 43.5q19 0 33 -5.5t24 -11.5q11 -8 19 -17l24 34l13 -9l-51 -73q-8 16 -22 30.5t-40 14.5q-22 0 -36.5 -20.5t-14.5 -63.5v-474
q0 -85 60 -85q59 0 59 84v72z" />
    <glyph glyph-name="h" unicode="h" horiz-adv-x="414" 
d="M280 184h-146v-184h-74v700h74v-476h146v476h74v-700h-74v184z" />
    <glyph glyph-name="i" unicode="i" horiz-adv-x="194" 
d="M60 700h74v-700h-74v700z" />
    <glyph glyph-name="j" unicode="j" horiz-adv-x="319" 
d="M259 160q0 -50 -11 -82.5t-29 -51.5t-40 -26.5t-44 -7.5q-44 0 -74.5 30.5t-30.5 89.5h36q0 -84 59 -84q60 0 60 85v551h-119v36h193v-540z" />
    <glyph glyph-name="k" unicode="k" horiz-adv-x="347" 
d="M290 700v-247q0 -45 -21.5 -70.5t-54.5 -25.5v-11q33 -1 54.5 -24t21.5 -69v-217h27v-36h-99v295q0 22 -12 31t-25 9h-47v-335h-74v700h74v-329h51q11 0 22 8.5t11 31.5v289h72z" />
    <glyph glyph-name="l" unicode="l" horiz-adv-x="277" 
d="M60 700h74v-664h113v-36h-187v700z" />
    <glyph glyph-name="m" unicode="m" horiz-adv-x="601" 
d="M20 36h63v664h108l119 -673l125 673h106v-700h-74v667l-124 -667h-105l-119 672v-672h-99v36z" />
    <glyph glyph-name="n" unicode="n" horiz-adv-x="429" 
d="M119 667v-667h-99v36h63v664h107l124 -668v668h95v-36h-59v-664h-107z" />
    <glyph glyph-name="o" unicode="o" 
d="M176 708q62 0 94 -43.5t32 -124.5v-380q0 -50 -11.5 -82.5t-29.5 -51.5t-40.5 -26.5t-44.5 -7.5t-44.5 7.5t-40.5 26.5t-29.5 51.5t-11.5 82.5v380q0 81 32 124.5t94 43.5zM176 28q52 0 52 85v474q0 43 -15 63.5t-37 20.5t-37 -20.5t-15 -63.5v-474q0 -85 52 -85z" />
    <glyph glyph-name="p" unicode="p" horiz-adv-x="330" 
d="M60 700h133q17 0 34.5 -6t31.5 -18.5t22.5 -32t8.5 -47.5v-159q0 -59 -26.5 -86t-59.5 -27h-70v-324h-74v700zM134 360h51q11 0 22 8.5t11 31.5v224q0 22 -12 31t-25 9h-47v-304z" />
    <glyph glyph-name="q" unicode="q" 
d="M176 708q62 0 94 -43.5t32 -124.5v-380q0 -42 -8 -71t-21 -48.5t-30.5 -30t-35.5 -14.5l22 -93h-37l-21 89q-22 1 -43.5 9t-39 27t-28 51t-10.5 81v380q0 81 32 124.5t94 43.5zM198 33q30 15 30 80v474q0 43 -15 63.5t-37 20.5t-37 -20.5t-15 -63.5v-474q0 -74 38 -83
l-10 44h37z" />
    <glyph glyph-name="r" unicode="r" horiz-adv-x="347" 
d="M60 700h133q17 0 34.5 -6t31.5 -18.5t22.5 -32t8.5 -47.5v-143q0 -50 -24 -72.5t-52 -22.5v-11q28 -1 52 -22.5t24 -71.5v-217h27v-36h-99v295q0 22 -10 31t-23 9h-51v-335h-74v700zM134 371h51q11 0 22 8.5t11 31.5v213q0 22 -12 31t-25 9h-47v-293z" />
    <glyph glyph-name="s" unicode="s" horiz-adv-x="327" 
d="M189 284q4 -25 5 -48t1 -45q0 -33 -7 -66.5t-22 -61.5t-39 -45.5t-58 -17.5h-49v36h49q26 0 41 30t15 84q0 30 -3 60.5t-8 60.5l-26 164q-5 29 -6.5 56.5t-1.5 52.5q0 22 7.5 49.5t22.5 52t38.5 41.5t55.5 17q24 0 42.5 -9t32.5 -22l23 29l15 -12l-49 -64q-8 10 -18 19
q-8 7 -20.5 13t-26.5 6q-20 0 -39 -19.5t-19 -54.5q0 -32 6 -68t12 -74z" />
    <glyph glyph-name="t" unicode="t" horiz-adv-x="370" 
d="M20 700h330v-36h-128v-664h-74v664h-128v36z" />
    <glyph glyph-name="u" unicode="u" horiz-adv-x="358" 
d="M20 700h95v-588q0 -84 59 -84q60 0 60 85v587h74v-540q0 -50 -11 -82.5t-29 -51.5t-40 -26.5t-44 -7.5q-44 0 -74.5 30.5t-30.5 89.5v552h-59v36z" />
    <glyph glyph-name="v" unicode="v" horiz-adv-x="490" 
d="M261 38l123 662h91v-36h-60l-123 -664h-101l-118 664h-58v36h129z" />
    <glyph glyph-name="w" unicode="w" horiz-adv-x="680" 
d="M660 664h-59l-104 -664h-101l-53 354l-66 -354h-101l-99 664h-57v36h129l98 -659l79 426l-34 233h77l97 -654l103 654h91v-36z" />
    <glyph glyph-name="x" unicode="x" horiz-adv-x="400" 
d="M390 0h-104l-102 302l-115 -302h-59v36h35l122 318l-105 310h-32v36h99l84 -248l96 248h71v-36h-48l-102 -264l124 -364h36v-36z" />
    <glyph glyph-name="y" unicode="y" horiz-adv-x="338" 
d="M328 664h-25l-96 -356v-308h-74v311l-91 353h-32v36h99l80 -318l86 318h53v-36z" />
    <glyph glyph-name="z" unicode="z" horiz-adv-x="331" 
d="M40 700h241l-165 -664h185v-36h-271l165 664h-155v36z" />
    <glyph glyph-name="braceleft" unicode="{" horiz-adv-x="237" 
d="M90 401v359h107v-36h-53v-329l-44 -45l44 -43v-331h53v-36h-107v360l-50 50z" />
    <glyph glyph-name="bar" unicode="|" horiz-adv-x="194" 
d="M60 750h74v-800h-74v800z" />
    <glyph glyph-name="braceright" unicode="}" horiz-adv-x="237" 
d="M197 350l-50 -50v-360h-107v36h53v331l44 43l-44 45v329h-53v36h107v-359z" />
    <glyph glyph-name="asciitilde" unicode="~" horiz-adv-x="581" 
d="M40 360q20 17 43 30q20 11 44.5 20.5t50.5 9.5q35 0 63.5 -9.5t55 -20.5t54.5 -20.5t62 -9.5q44 0 66 12t42 31l20 -23q-18 -17 -38 -30q-17 -11 -40.5 -20.5t-49.5 -9.5q-38 0 -67.5 9.5t-56.5 20.5t-53.5 20.5t-57.5 9.5q-44 0 -71 -13.5t-50 -30.5z" />
    <glyph glyph-name="nonbreakingspace" unicode="&#xa0;" horiz-adv-x="200" 
 />
    <glyph glyph-name="exclamdown" unicode="&#xa1;" horiz-adv-x="154" 
d="M114 610h-74v90h74v-90zM114 0h-74l10 510h54z" />
    <glyph glyph-name="cent" unicode="&#xa2;" horiz-adv-x="308" 
d="M279 112q0 -54 -25.5 -84t-63.5 -35v-43h-34v43q-20 3 -39 12.5t-34 29t-24 50t-9 75.5v380q0 75 26.5 117.5t79.5 49.5v43h34v-43q15 -2 26 -8t19 -11q9 -7 16 -14l24 34l13 -9l-51 -73q-8 16 -22 30.5t-40 14.5q-22 0 -36.5 -20.5t-14.5 -63.5v-474q0 -85 60 -85
q59 0 59 84h36v0z" />
    <glyph glyph-name="sterling" unicode="&#xa3;" horiz-adv-x="327" 
d="M40 300h72q-9 27 -20 56.5t-20.5 60.5t-15.5 63t-6 64q0 25 7.5 53t22.5 52t38.5 39.5t55.5 15.5q24 0 42.5 -9t32.5 -22l23 29l15 -12l-49 -64q-8 10 -18 19q-8 7 -20.5 13t-26.5 6q-32 0 -45.5 -23.5t-13.5 -59.5q0 -37 10 -81t22.5 -85t24 -72.5t14.5 -42.5h77v-40
h-70q3 -20 3 -42q0 -23 -4 -49t-13 -50.5t-24 -46t-38 -36.5h181v-36h-277v36q50 3 82.5 31.5t32.5 82.5q0 34 -3 60.5t-8 49.5h-84v40z" />
    <glyph glyph-name="currency" unicode="&#xa4;" horiz-adv-x="308" 
d="M10 420h40v120q0 81 31.5 124.5t93.5 43.5q19 0 33 -5.5t24 -11.5q11 -8 19 -17l24 34l13 -9l-51 -73q-8 16 -22 30.5t-40 14.5q-22 0 -36.5 -20.5t-14.5 -63.5v-167h119v-40h-119v-60h119v-40h-119v-167q0 -85 60 -85q59 0 59 84h36q0 -59 -30.5 -89.5t-73.5 -30.5
q-22 0 -44.5 7.5t-40.5 26.5t-29 51.5t-11 82.5v120h-40v40h40v60h-40v40z" />
    <glyph glyph-name="yen" unicode="&#xa5;" horiz-adv-x="338" 
d="M320 664h-25l-88 -326v-38h88v-40h-88v-60h88v-40h-88v-160h-74v160h-90v40h90v60h-90v40h90v41l-83 323h-32v36h99l72 -288l78 288h53v-36z" />
    <glyph glyph-name="brokenbar" unicode="&#xa6;" horiz-adv-x="194" 
d="M60 400v350h74v-350h-74zM134 300v-350h-74v350h74z" />
    <glyph glyph-name="section" unicode="&#xa7;" horiz-adv-x="447" 
d="M241 721q29 0 48.5 -10.5t32.5 -23.5l24 34l13 -9l-51 -73q-8 16 -23 30.5t-38 14.5t-37 -17t-14 -44q0 -23 17.5 -58t43.5 -76l41 -63q28 -44 44.5 -86t16.5 -76q0 -54 -28.5 -89t-71.5 -42q26 -42 44 -76.5t18 -76.5q0 -24 -7.5 -45.5t-22 -38t-36 -26t-49.5 -9.5
q-43 0 -73.5 24t-45.5 65l33 16q10 -36 32.5 -52.5t47.5 -16.5q27 0 41.5 16.5t14.5 43.5q0 20 -16 57t-44 79l-42 63q-60 89 -60 163q0 54 28.5 88t71.5 42q-27 42 -45.5 76.5t-18.5 75.5q0 25 8.5 47t23.5 38t35.5 25.5t43.5 9.5zM215 415q-24 -4 -40 -20.5t-16 -42.5
q0 -13 4.5 -31.5t12 -38.5t17 -40t19.5 -36l25 -40q24 5 39.5 21.5t15.5 42.5q0 12 -4 30.5t-11.5 38.5t-17 40t-19.5 37z" />
    <glyph glyph-name="dieresis" unicode="&#xa8;" horiz-adv-x="190" 
d="M74 750h-44v40h44v-40zM116 790h44v-40h-44v40z" />
    <glyph glyph-name="copyright" unicode="&#xa9;" horiz-adv-x="454" 
d="M224 145q-14 0 -27.5 4.5t-24.5 15.5t-18 29.5t-7 47.5v216q0 46 19.5 71.5t57.5 25.5q9 0 17.5 -3t14.5 -6q7 -4 13 -9l13 19l11 -9l-33 -45q-5 10 -13.5 18.5t-22.5 8.5q-12 0 -20.5 -11t-8.5 -34v-269q0 -45 34 -45q33 0 33 47h25q0 -35 -18.5 -53.5t-44.5 -18.5z
M73 349q0 -168 41.5 -248.5t112.5 -80.5t112.5 80.5t41.5 248.5q0 169 -41 250t-113 81t-113 -81t-41 -250zM40 349q0 182 50.5 270.5t136.5 88.5q43 0 77.5 -22t59 -66.5t37.5 -112t13 -158.5t-13 -158t-37.5 -111.5t-59 -66t-77.5 -21.5q-86 0 -136.5 87.5t-50.5 269.5z
" />
    <glyph glyph-name="ordfeminine" unicode="&#xaa;" horiz-adv-x="307" 
d="M15 325h34l75 375h63l71 -375h34v-25h-80l-20 104h-99l-20 -104h-58v25zM97 431h91l-45 233z" />
    <glyph glyph-name="uni00AB" unicode="&#xab;" horiz-adv-x="268" 
d="M77 350l71 -140h-37l-71 140l71 141h37zM157 350l71 -140h-37l-71 140l71 141h37z" />
    <glyph glyph-name="logicalnot" unicode="&#xac;" 
d="M50 370h252v-112h-39v73h-213v39z" />
    <glyph glyph-name="uni00AD" unicode="&#xad;" horiz-adv-x="226" 
d="M40 390h146v-40h-146v40z" />
    <glyph glyph-name="registered" unicode="&#xae;" horiz-adv-x="454" 
d="M159 550h70q20 0 39.5 -14.5t19.5 -46.5v-73q0 -34 -16.5 -48.5t-36.5 -14.5h-4v-4q20 -2 38.5 -18t18.5 -48v-108h16v-25h-63v162q0 11 -6 16t-13 5h-15v-183h-48v400zM207 370h17q6 0 11.5 4.5t5.5 16.5v114q0 11 -6 15.5t-13 4.5h-15v-155zM73 349q0 -168 41.5 -248.5
t112.5 -80.5t112.5 80.5t41.5 248.5q0 169 -41 250t-113 81t-113 -81t-41 -250zM40 349q0 182 50.5 270.5t136.5 88.5q43 0 77.5 -22t59 -66.5t37.5 -112t13 -158.5t-13 -158t-37.5 -111.5t-59 -66t-77.5 -21.5q-86 0 -136.5 87.5t-50.5 269.5z" />
    <glyph glyph-name="macron" unicode="&#xaf;" horiz-adv-x="190" 
d="M160 750h-130v36h130v-36z" />
    <glyph glyph-name="degree" unicode="&#xb0;" horiz-adv-x="219" 
d="M30 618q0 35 23 58.5t56 23.5t56.5 -23.5t23.5 -58.5t-23.5 -58.5t-56.5 -23.5t-56 23.5t-23 58.5zM60 618q0 -23 14.5 -37.5t34.5 -14.5q21 0 35.5 14.5t14.5 37.5t-14.5 37.5t-35.5 14.5q-20 0 -34.5 -14.5t-14.5 -37.5z" />
    <glyph glyph-name="plusminus" unicode="&#xb1;" 
d="M50 370h106v106h40v-106h106v-39h-106v-106h-40v106h-106v39zM50 170h252v-39h-252v39z" />
    <glyph glyph-name="twosuperior" unicode="&#xb2;" horiz-adv-x="222" 
d="M40 325q0 62 15 99.5t33 58.5q18 20 32 42.5t14 57.5v51q0 46 -33 46q-34 0 -34 -48h-25q0 36 19 54.5t46 18.5q13 0 26.5 -4.5t24 -15.5t17.5 -29.5t7 -47.5v-25q0 -39 -19 -66.5t-42 -51.5q-11 -12 -20.5 -24t-17.5 -28t-12.5 -37t-4.5 -51h116v-25h-142v25z" />
    <glyph glyph-name="threesuperior" unicode="&#xb3;" horiz-adv-x="220" 
d="M180 566q0 -34 -16.5 -49t-36.5 -15h-4v-2q20 -1 38.5 -15t18.5 -48v-45q0 -29 -7 -47.5t-17.5 -29.5t-24 -15.5t-26.5 -4.5q-27 0 -46 18.5t-19 53.5h26q0 -47 33 -47t33 45v103q0 8 -5.5 11.5t-11.5 3.5h-32v37h32q6 0 11.5 3.5t5.5 11.5v99q0 46 -33 46t-33 -48h-26
q0 36 19 54.5t46 18.5q13 0 26.5 -4.5t24 -15.5t17.5 -29.5t7 -47.5v-42z" />
    <glyph glyph-name="acute" unicode="&#xb4;" horiz-adv-x="122" 
d="M30 730l17 70h40l-20 -70h-37z" />
    <glyph glyph-name="uni00B5" unicode="&#xb5;" horiz-adv-x="601" 
d="M20 36h63v664h108l119 -673l125 673h106v-700h-74v667l-124 -667h-105l-119 672v-672h-99v36z" />
    <glyph glyph-name="paragraph" unicode="&#xb6;" horiz-adv-x="314" 
d="M220 664h-50v-714h-44v357q-30 0 -49 11t-29.5 32.5t-14 52.5t-3.5 72v77q0 50 11.5 79.5t30 44.5t41 19.5t43.5 4.5h108v-750h-44v714z" />
    <glyph glyph-name="periodcentered" unicode="&#xb7;" horiz-adv-x="154" 
d="M40 396h74v-90h-74v90z" />
    <glyph glyph-name="cedilla" unicode="&#xb8;" horiz-adv-x="122" 
d="M30 -125l25 105h37l-25 -105h-37z" />
    <glyph glyph-name="onesuperior" unicode="&#xb9;" horiz-adv-x="158" 
d="M40 700h78v-400h-48v375h-30v25z" />
    <glyph glyph-name="ordmasculine" unicode="&#xba;" horiz-adv-x="214" 
d="M108 705q37 0 56.5 -25.5t19.5 -71.5v-216q0 -29 -7 -47.5t-18 -29.5t-24.5 -15.5t-26.5 -4.5q-14 0 -28 4.5t-25 15.5t-18 29.5t-7 47.5v216q0 46 20 71.5t58 25.5zM108 320q28 0 28 45v269q0 23 -8.5 34t-19.5 11q-13 0 -21.5 -11t-8.5 -34v-269q0 -45 30 -45z" />
    <glyph glyph-name="uni00BB" unicode="&#xbb;" horiz-adv-x="268" 
d="M120 491h37l71 -141l-71 -140h-37l71 140zM40 491h37l71 -141l-71 -140h-37l71 140z" />
    <glyph glyph-name="onequarter" unicode="&#xbc;" horiz-adv-x="498" 
d="M40 700h78v-400h-48v375h-30v25zM55 -20l330 740h39l-331 -740h-38zM281 160l80 240h65v-240h32v-24h-32v-136h-46v136h-99v24zM310 160h70v209z" />
    <glyph glyph-name="onehalf" unicode="&#xbd;" horiz-adv-x="511" 
d="M40 700h78v-400h-48v375h-30v25zM55 -20l330 740h39l-331 -740h-38zM329 25q0 62 15 99.5t33 58.5q18 20 32 42.5t14 57.5v51q0 46 -33 46q-34 0 -34 -48h-25q0 36 19 54.5t46 18.5q13 0 26.5 -4.5t24 -15.5t17.5 -29.5t7 -47.5v-25q0 -39 -19 -66.5t-42 -51.5
q-11 -12 -20.5 -24t-17.5 -28t-12.5 -37t-4.5 -51h116v-25h-142v25z" />
    <glyph glyph-name="threequarters" unicode="&#xbe;" horiz-adv-x="515" 
d="M180 566q0 -34 -16.5 -49t-36.5 -15h-4v-2q20 -1 38.5 -15t18.5 -48v-45q0 -29 -7 -47.5t-17.5 -29.5t-24 -15.5t-26.5 -4.5q-27 0 -46 18.5t-19 53.5h26q0 -47 33 -47t33 45v103q0 8 -5.5 11.5t-11.5 3.5h-32v37h32q6 0 11.5 3.5t5.5 11.5v99q0 46 -33 46t-33 -48h-26
q0 36 19 54.5t46 18.5q13 0 26.5 -4.5t24 -15.5t17.5 -29.5t7 -47.5v-42zM72 -20l330 740h39l-331 -740h-38zM298 160l80 240h65v-240h32v-24h-32v-136h-46v136h-99v24zM327 160h70v209z" />
    <glyph glyph-name="questiondown" unicode="&#xbf;" horiz-adv-x="289" 
d="M192 518v-16q0 -57 -14 -99t-30.5 -81t-30 -80.5t-13.5 -95.5q0 -60 15 -85t45 -25q59 0 59 84h36q0 -59 -30.5 -89.5t-74.5 -30.5q-22 0 -44 7.5t-40 25t-29 46t-11 69.5q0 52 19.5 91.5t43.5 77.5t43.5 81.5t19.5 103.5v16h36zM210 618h-74v90h74v-90z" />
    <glyph glyph-name="Agrave" unicode="&#xc0;" horiz-adv-x="490" 
d="M15 36h59l124 664h101l117 -664h59v-36h-129l-33 184h-173l-34 -184h-91v36zM147 224h159l-77 437zM227 730l-20 70h40l17 -70h-37z" />
    <glyph glyph-name="Aacute" unicode="&#xc1;" horiz-adv-x="490" 
d="M15 36h59l124 664h101l117 -664h59v-36h-129l-33 184h-173l-34 -184h-91v36zM147 224h159l-77 437zM222 730l17 70h40l-20 -70h-37z" />
    <glyph glyph-name="Acircumflex" unicode="&#xc2;" horiz-adv-x="490" 
d="M15 36h59l124 664h101l117 -664h59v-36h-129l-33 184h-173l-34 -184h-91v36zM147 224h159l-77 437zM163 740l55 70h49l55 -70h-37l-43 50l-42 -50h-37z" />
    <glyph glyph-name="Atilde" unicode="&#xc3;" horiz-adv-x="490" 
d="M15 36h59l124 664h101l117 -664h59v-36h-129l-33 184h-173l-34 -184h-91v36zM147 224h159l-77 437zM374 810l-55 -70h-49q-4 11 -9 21q-5 8 -13 14.5t-21 6.5t-21 -6.5t-13 -14.5q-5 -10 -8 -21h-37q5 19 16 35q9 13 24 24t39 11q21 0 35.5 -8t22.5 -17q10 -11 15 -25
l37 50h37z" />
    <glyph glyph-name="Adieresis" unicode="&#xc4;" horiz-adv-x="490" 
d="M15 36h59l124 664h101l117 -664h59v-36h-129l-33 184h-173l-34 -184h-91v36zM147 224h159l-77 437zM220 750h-44v40h44v-40zM262 790h44v-40h-44v40z" />
    <glyph glyph-name="Aring" unicode="&#xc5;" horiz-adv-x="490" 
d="M15 36h59l124 664h101l117 -664h59v-36h-129l-33 184h-173l-34 -184h-91v36zM147 224h159l-77 437zM198 750q0 21 14.5 35.5t35.5 14.5t35.5 -14.5t14.5 -35.5t-14.5 -35.5t-35.5 -14.5t-35.5 14.5t-14.5 35.5zM220 750q0 -13 7.5 -21t20.5 -8t20.5 8t7.5 21t-7.5 21
t-20.5 8t-20.5 -8t-7.5 -21z" />
    <glyph glyph-name="AE" unicode="&#xc6;" horiz-adv-x="473" 
d="M234 184h-102l-41 -184h-71v36h39l144 664h240v-36h-135v-450h114v-36h-114v-142h113v-36h-187v184zM139 224h95v437z" />
    <glyph glyph-name="Ccedilla" unicode="&#xc7;" horiz-adv-x="308" 
d="M133 -105l23 98q-20 3 -39 12.5t-34 29t-24 50t-9 75.5v380q0 81 31.5 124.5t93.5 43.5q19 0 33 -5.5t24 -11.5q11 -8 19 -17l24 34l13 -9l-51 -73q-8 16 -22 30.5t-40 14.5q-22 0 -36.5 -20.5t-14.5 -63.5v-474q0 -85 60 -85q59 0 59 84h36q0 -53 -24.5 -83t-61.5 -35
l-23 -99h-37z" />
    <glyph glyph-name="Egrave" unicode="&#xc8;" horiz-adv-x="367" 
d="M30 214h98v486h209v-36h-135v-450h114v-36h-114v-142h113v-36h-187v178h-98v36zM217 730l-20 70h40l17 -70h-37z" />
    <glyph glyph-name="Eacute" unicode="&#xc9;" horiz-adv-x="367" 
d="M213 730l17 70h40l-20 -70h-37zM30 214h98v486h209v-36h-135v-450h114v-36h-114v-142h113v-36h-187v178h-98v36z" />
    <glyph glyph-name="Ecircumflex" unicode="&#xca;" horiz-adv-x="367" 
d="M30 214h98v486h209v-36h-135v-450h114v-36h-114v-142h113v-36h-187v178h-98v36zM154 740l55 70h49l55 -70h-37l-43 50l-42 -50h-37z" />
    <glyph glyph-name="Edieresis" unicode="&#xcb;" horiz-adv-x="367" 
d="M30 214h98v486h209v-36h-135v-450h114v-36h-114v-142h113v-36h-187v178h-98v36zM212 750h-44v40h44v-40zM254 790h44v-40h-44v40z" />
    <glyph glyph-name="Igrave" unicode="&#xcc;" horiz-adv-x="194" 
d="M60 700h74v-700h-74v700zM78 730l-20 70h40l17 -70h-37z" />
    <glyph glyph-name="Iacute" unicode="&#xcd;" horiz-adv-x="194" 
d="M60 700h74v-700h-74v700zM78 730l17 70h40l-20 -70h-37z" />
    <glyph glyph-name="Icircumflex" unicode="&#xce;" horiz-adv-x="194" 
d="M60 700h74v-700h-74v700zM18 740l55 70h49l55 -70h-37l-43 50l-42 -50h-37z" />
    <glyph glyph-name="Idieresis" unicode="&#xcf;" horiz-adv-x="194" 
d="M60 700h74v-700h-74v700zM76 750h-44v40h44v-40zM118 790h44v-40h-44v40z" />
    <glyph glyph-name="Eth" unicode="&#xd0;" horiz-adv-x="342" 
d="M20 380h40v320h116q62 0 94 -39.5t32 -120.5v-380q0 -50 -11.5 -81.5t-29.5 -49t-40.5 -23.5t-44.5 -6h-116v340h-40v40zM134 664v-284h52v-40h-52v-304h43q26 0 38.5 16.5t12.5 60.5v474q0 43 -15 60t-37 17h-42z" />
    <glyph glyph-name="Ntilde" unicode="&#xd1;" horiz-adv-x="429" 
d="M119 667v-667h-99v36h63v664h107l124 -668v668h95v-36h-59v-664h-107zM357 810l-55 -70h-49q-4 11 -9 21q-5 8 -13 14.5t-21 6.5t-21 -6.5t-13 -14.5q-5 -10 -8 -21h-37q5 19 16 35q9 13 24 24t39 11q21 0 35.5 -8t22.5 -17q10 -11 15 -25l37 50h37z" />
    <glyph glyph-name="Ograve" unicode="&#xd2;" 
d="M176 708q62 0 94 -43.5t32 -124.5v-380q0 -50 -11.5 -82.5t-29.5 -51.5t-40.5 -26.5t-44.5 -7.5t-44.5 7.5t-40.5 26.5t-29.5 51.5t-11.5 82.5v380q0 81 32 124.5t94 43.5zM176 28q52 0 52 85v474q0 43 -15 63.5t-37 20.5t-37 -20.5t-15 -63.5v-474q0 -85 52 -85z
M157 730l-20 70h40l17 -70h-37z" />
    <glyph glyph-name="Oacute" unicode="&#xd3;" 
d="M176 708q62 0 94 -43.5t32 -124.5v-380q0 -50 -11.5 -82.5t-29.5 -51.5t-40.5 -26.5t-44.5 -7.5t-44.5 7.5t-40.5 26.5t-29.5 51.5t-11.5 82.5v380q0 81 32 124.5t94 43.5zM176 28q52 0 52 85v474q0 43 -15 63.5t-37 20.5t-37 -20.5t-15 -63.5v-474q0 -85 52 -85z
M157 730l17 70h40l-20 -70h-37z" />
    <glyph glyph-name="Ocircumflex" unicode="&#xd4;" 
d="M176 708q62 0 94 -43.5t32 -124.5v-380q0 -50 -11.5 -82.5t-29.5 -51.5t-40.5 -26.5t-44.5 -7.5t-44.5 7.5t-40.5 26.5t-29.5 51.5t-11.5 82.5v380q0 81 32 124.5t94 43.5zM176 28q52 0 52 85v474q0 43 -15 63.5t-37 20.5t-37 -20.5t-15 -63.5v-474q0 -85 52 -85zM96 740
l55 70h49l55 -70h-37l-43 50l-42 -50h-37z" />
    <glyph glyph-name="Otilde" unicode="&#xd5;" 
d="M176 708q62 0 94 -43.5t32 -124.5v-380q0 -50 -11.5 -82.5t-29.5 -51.5t-40.5 -26.5t-44.5 -7.5t-44.5 7.5t-40.5 26.5t-29.5 51.5t-11.5 82.5v380q0 81 32 124.5t94 43.5zM176 28q52 0 52 85v474q0 43 -15 63.5t-37 20.5t-37 -20.5t-15 -63.5v-474q0 -85 52 -85z
M299 810l-55 -70h-49q-4 11 -9 21q-5 8 -13 14.5t-21 6.5t-21 -6.5t-13 -14.5q-5 -10 -8 -21h-37q5 19 16 35q9 13 24 24t39 11q21 0 35.5 -8t22.5 -17q10 -11 15 -25l37 50h37z" />
    <glyph glyph-name="Odieresis" unicode="&#xd6;" 
d="M176 708q62 0 94 -43.5t32 -124.5v-380q0 -50 -11.5 -82.5t-29.5 -51.5t-40.5 -26.5t-44.5 -7.5t-44.5 7.5t-40.5 26.5t-29.5 51.5t-11.5 82.5v380q0 81 32 124.5t94 43.5zM176 28q52 0 52 85v474q0 43 -15 63.5t-37 20.5t-37 -20.5t-15 -63.5v-474q0 -85 52 -85z
M155 750h-44v40h44v-40zM197 790h44v-40h-44v40z" />
    <glyph glyph-name="multiply" unicode="&#xd7;" 
d="M73 275l75 75l-75 75l28 28l75 -75l75 75l28 -28l-75 -75l75 -75l-28 -28l-75 75l-75 -75z" />
    <glyph glyph-name="Oslash" unicode="&#xd8;" 
d="M176 708q45 0 76 -25l11 37h39l-21 -73q21 -41 21 -107v-380q0 -50 -11.5 -82.5t-29.5 -51.5t-40.5 -26.5t-44.5 -7.5q-20 0 -40.5 6t-37.5 20l-11 -38h-38l21 75q-9 19 -14.5 44.5t-5.5 60.5v380q0 81 32 124.5t94 43.5zM176 28q52 0 52 85v474q0 43 -15 63.5t-37 20.5
t-37 -20.5t-15 -63.5v-474q0 -85 52 -85z" />
    <glyph glyph-name="Ugrave" unicode="&#xd9;" horiz-adv-x="358" 
d="M20 700h95v-588q0 -84 59 -84q60 0 60 85v587h74v-540q0 -50 -11 -82.5t-29 -51.5t-40 -26.5t-44 -7.5q-44 0 -74.5 30.5t-30.5 89.5v552h-59v36zM170 730l-20 70h40l17 -70h-37z" />
    <glyph glyph-name="Uacute" unicode="&#xda;" horiz-adv-x="358" 
d="M20 700h95v-588q0 -84 59 -84q60 0 60 85v587h74v-540q0 -50 -11 -82.5t-29 -51.5t-40 -26.5t-44 -7.5q-44 0 -74.5 30.5t-30.5 89.5v552h-59v36zM160 730l17 70h40l-20 -70h-37z" />
    <glyph glyph-name="Ucircumflex" unicode="&#xdb;" horiz-adv-x="358" 
d="M20 700h95v-588q0 -84 59 -84q60 0 60 85v587h74v-540q0 -50 -11 -82.5t-29 -51.5t-40 -26.5t-44 -7.5q-44 0 -74.5 30.5t-30.5 89.5v552h-59v36zM99 740l55 70h49l55 -70h-37l-43 50l-42 -50h-37z" />
    <glyph glyph-name="Udieresis" unicode="&#xdc;" horiz-adv-x="358" 
d="M20 700h95v-588q0 -84 59 -84q60 0 60 85v587h74v-540q0 -50 -11 -82.5t-29 -51.5t-40 -26.5t-44 -7.5q-44 0 -74.5 30.5t-30.5 89.5v552h-59v36zM158 750h-44v40h44v-40zM200 790h44v-40h-44v40z" />
    <glyph glyph-name="Yacute" unicode="&#xdd;" horiz-adv-x="338" 
d="M328 664h-25l-96 -356v-308h-74v311l-91 353h-32v36h99l80 -318l86 318h53v-36zM161 730l17 70h40l-20 -70h-37z" />
    <glyph glyph-name="Thorn" unicode="&#xde;" horiz-adv-x="330" 
d="M60 700h74v-150h59q17 0 34.5 -6t31.5 -18.5t22.5 -32t8.5 -47.5v-159q0 -59 -26.5 -86t-59.5 -27h-70v-174h-74v700zM134 213h51q11 0 22 8.5t11 31.5v221q0 22 -12 31t-25 9h-47v-301z" />
    <glyph glyph-name="germandbls" unicode="&#xdf;" horiz-adv-x="564" 
d="M426 284q4 -25 5 -48t1 -45q0 -33 -7 -66.5t-22 -61.5t-39 -45.5t-58 -17.5h-49v36h49q26 0 41 30t15 84q0 30 -3 60.5t-8 60.5l-26 164q-5 29 -6.5 56.5t-1.5 52.5q0 22 7.5 49.5t22.5 52t38.5 41.5t55.5 17q24 0 42.5 -9t32.5 -22l23 29l15 -12l-49 -64q-8 10 -18 19
q-8 7 -20.5 13t-26.5 6q-20 0 -39 -19.5t-19 -54.5q0 -32 6 -68t12 -74zM189 284q4 -25 5 -48t1 -45q0 -33 -7 -66.5t-22 -61.5t-39 -45.5t-58 -17.5h-49v36h49q26 0 41 30t15 84q0 30 -3 60.5t-8 60.5l-26 164q-5 29 -6.5 56.5t-1.5 52.5q0 22 7.5 49.5t22.5 52t38.5 41.5
t55.5 17q24 0 42.5 -9t32.5 -22l23 29l15 -12l-49 -64q-8 10 -18 19q-8 7 -20.5 13t-26.5 6q-20 0 -39 -19.5t-19 -54.5q0 -32 6 -68t12 -74z" />
    <glyph glyph-name="agrave" unicode="&#xe0;" horiz-adv-x="490" 
d="M15 36h59l124 664h101l117 -664h59v-36h-129l-33 184h-173l-34 -184h-91v36zM147 224h159l-77 437zM227 730l-20 70h40l17 -70h-37z" />
    <glyph glyph-name="aacute" unicode="&#xe1;" horiz-adv-x="490" 
d="M15 36h59l124 664h101l117 -664h59v-36h-129l-33 184h-173l-34 -184h-91v36zM147 224h159l-77 437zM222 730l17 70h40l-20 -70h-37z" />
    <glyph glyph-name="acircumflex" unicode="&#xe2;" horiz-adv-x="490" 
d="M15 36h59l124 664h101l117 -664h59v-36h-129l-33 184h-173l-34 -184h-91v36zM147 224h159l-77 437zM163 740l55 70h49l55 -70h-37l-43 50l-42 -50h-37z" />
    <glyph glyph-name="atilde" unicode="&#xe3;" horiz-adv-x="490" 
d="M15 36h59l124 664h101l117 -664h59v-36h-129l-33 184h-173l-34 -184h-91v36zM147 224h159l-77 437zM374 810l-55 -70h-49q-4 11 -9 21q-5 8 -13 14.5t-21 6.5t-21 -6.5t-13 -14.5q-5 -10 -8 -21h-37q5 19 16 35q9 13 24 24t39 11q21 0 35.5 -8t22.5 -17q10 -11 15 -25
l37 50h37z" />
    <glyph glyph-name="adieresis" unicode="&#xe4;" horiz-adv-x="490" 
d="M15 36h59l124 664h101l117 -664h59v-36h-129l-33 184h-173l-34 -184h-91v36zM147 224h159l-77 437zM220 750h-44v40h44v-40zM262 790h44v-40h-44v40z" />
    <glyph glyph-name="aring" unicode="&#xe5;" horiz-adv-x="490" 
d="M15 36h59l124 664h101l117 -664h59v-36h-129l-33 184h-173l-34 -184h-91v36zM147 224h159l-77 437zM198 750q0 21 14.5 35.5t35.5 14.5t35.5 -14.5t14.5 -35.5t-14.5 -35.5t-35.5 -14.5t-35.5 14.5t-14.5 35.5zM220 750q0 -13 7.5 -21t20.5 -8t20.5 8t7.5 21t-7.5 21
t-20.5 8t-20.5 -8t-7.5 -21z" />
    <glyph glyph-name="ae" unicode="&#xe6;" horiz-adv-x="473" 
d="M234 184h-102l-41 -184h-71v36h39l144 664h240v-36h-135v-450h114v-36h-114v-142h113v-36h-187v184zM139 224h95v437z" />
    <glyph glyph-name="ccedilla" unicode="&#xe7;" horiz-adv-x="308" 
d="M133 -105l23 98q-20 3 -39 12.5t-34 29t-24 50t-9 75.5v380q0 81 31.5 124.5t93.5 43.5q19 0 33 -5.5t24 -11.5q11 -8 19 -17l24 34l13 -9l-51 -73q-8 16 -22 30.5t-40 14.5q-22 0 -36.5 -20.5t-14.5 -63.5v-474q0 -85 60 -85q59 0 59 84h36q0 -53 -24.5 -83t-61.5 -35
l-23 -99h-37z" />
    <glyph glyph-name="egrave" unicode="&#xe8;" horiz-adv-x="367" 
d="M30 214h98v486h209v-36h-135v-450h114v-36h-114v-142h113v-36h-187v178h-98v36zM217 730l-20 70h40l17 -70h-37z" />
    <glyph glyph-name="eacute" unicode="&#xe9;" horiz-adv-x="367" 
d="M213 730l17 70h40l-20 -70h-37zM30 214h98v486h209v-36h-135v-450h114v-36h-114v-142h113v-36h-187v178h-98v36z" />
    <glyph glyph-name="ecircumflex" unicode="&#xea;" horiz-adv-x="367" 
d="M30 214h98v486h209v-36h-135v-450h114v-36h-114v-142h113v-36h-187v178h-98v36zM154 740l55 70h49l55 -70h-37l-43 50l-42 -50h-37z" />
    <glyph glyph-name="edieresis" unicode="&#xeb;" horiz-adv-x="367" 
d="M30 214h98v486h209v-36h-135v-450h114v-36h-114v-142h113v-36h-187v178h-98v36zM212 750h-44v40h44v-40zM254 790h44v-40h-44v40z" />
    <glyph glyph-name="igrave" unicode="&#xec;" horiz-adv-x="194" 
d="M60 700h74v-700h-74v700zM78 730l-20 70h40l17 -70h-37z" />
    <glyph glyph-name="iacute" unicode="&#xed;" horiz-adv-x="194" 
d="M60 700h74v-700h-74v700zM78 730l17 70h40l-20 -70h-37z" />
    <glyph glyph-name="icircumflex" unicode="&#xee;" horiz-adv-x="194" 
d="M60 700h74v-700h-74v700zM18 740l55 70h49l55 -70h-37l-43 50l-42 -50h-37z" />
    <glyph glyph-name="idieresis" unicode="&#xef;" horiz-adv-x="194" 
d="M60 700h74v-700h-74v700zM76 750h-44v40h44v-40zM118 790h44v-40h-44v40z" />
    <glyph glyph-name="eth" unicode="&#xf0;" horiz-adv-x="342" 
d="M20 380h40v320h116q62 0 94 -39.5t32 -120.5v-380q0 -50 -11.5 -81.5t-29.5 -49t-40.5 -23.5t-44.5 -6h-116v340h-40v40zM134 664v-284h52v-40h-52v-304h43q26 0 38.5 16.5t12.5 60.5v474q0 43 -15 60t-37 17h-42z" />
    <glyph glyph-name="ntilde" unicode="&#xf1;" horiz-adv-x="429" 
d="M119 667v-667h-99v36h63v664h107l124 -668v668h95v-36h-59v-664h-107zM357 810l-55 -70h-49q-4 11 -9 21q-5 8 -13 14.5t-21 6.5t-21 -6.5t-13 -14.5q-5 -10 -8 -21h-37q5 19 16 35q9 13 24 24t39 11q21 0 35.5 -8t22.5 -17q10 -11 15 -25l37 50h37z" />
    <glyph glyph-name="ograve" unicode="&#xf2;" 
d="M176 708q62 0 94 -43.5t32 -124.5v-380q0 -50 -11.5 -82.5t-29.5 -51.5t-40.5 -26.5t-44.5 -7.5t-44.5 7.5t-40.5 26.5t-29.5 51.5t-11.5 82.5v380q0 81 32 124.5t94 43.5zM176 28q52 0 52 85v474q0 43 -15 63.5t-37 20.5t-37 -20.5t-15 -63.5v-474q0 -85 52 -85z
M157 730l-20 70h40l17 -70h-37z" />
    <glyph glyph-name="oacute" unicode="&#xf3;" 
d="M176 708q62 0 94 -43.5t32 -124.5v-380q0 -50 -11.5 -82.5t-29.5 -51.5t-40.5 -26.5t-44.5 -7.5t-44.5 7.5t-40.5 26.5t-29.5 51.5t-11.5 82.5v380q0 81 32 124.5t94 43.5zM176 28q52 0 52 85v474q0 43 -15 63.5t-37 20.5t-37 -20.5t-15 -63.5v-474q0 -85 52 -85z
M157 730l17 70h40l-20 -70h-37z" />
    <glyph glyph-name="ocircumflex" unicode="&#xf4;" 
d="M176 708q62 0 94 -43.5t32 -124.5v-380q0 -50 -11.5 -82.5t-29.5 -51.5t-40.5 -26.5t-44.5 -7.5t-44.5 7.5t-40.5 26.5t-29.5 51.5t-11.5 82.5v380q0 81 32 124.5t94 43.5zM176 28q52 0 52 85v474q0 43 -15 63.5t-37 20.5t-37 -20.5t-15 -63.5v-474q0 -85 52 -85zM96 740
l55 70h49l55 -70h-37l-43 50l-42 -50h-37z" />
    <glyph glyph-name="otilde" unicode="&#xf5;" 
d="M176 708q62 0 94 -43.5t32 -124.5v-380q0 -50 -11.5 -82.5t-29.5 -51.5t-40.5 -26.5t-44.5 -7.5t-44.5 7.5t-40.5 26.5t-29.5 51.5t-11.5 82.5v380q0 81 32 124.5t94 43.5zM176 28q52 0 52 85v474q0 43 -15 63.5t-37 20.5t-37 -20.5t-15 -63.5v-474q0 -85 52 -85z
M299 810l-55 -70h-49q-4 11 -9 21q-5 8 -13 14.5t-21 6.5t-21 -6.5t-13 -14.5q-5 -10 -8 -21h-37q5 19 16 35q9 13 24 24t39 11q21 0 35.5 -8t22.5 -17q10 -11 15 -25l37 50h37z" />
    <glyph glyph-name="odieresis" unicode="&#xf6;" 
d="M176 708q62 0 94 -43.5t32 -124.5v-380q0 -50 -11.5 -82.5t-29.5 -51.5t-40.5 -26.5t-44.5 -7.5t-44.5 7.5t-40.5 26.5t-29.5 51.5t-11.5 82.5v380q0 81 32 124.5t94 43.5zM176 28q52 0 52 85v474q0 43 -15 63.5t-37 20.5t-37 -20.5t-15 -63.5v-474q0 -85 52 -85z
M155 750h-44v40h44v-40zM197 790h44v-40h-44v40z" />
    <glyph glyph-name="divide" unicode="&#xf7;" horiz-adv-x="366" 
d="M30 376h306v-50h-306v50zM146 250h74v-70h-74v70zM146 520h74v-70h-74v70z" />
    <glyph glyph-name="oslash" unicode="&#xf8;" 
d="M176 708q45 0 76 -25l11 37h39l-21 -73q21 -41 21 -107v-380q0 -50 -11.5 -82.5t-29.5 -51.5t-40.5 -26.5t-44.5 -7.5q-20 0 -40.5 6t-37.5 20l-11 -38h-38l21 75q-9 19 -14.5 44.5t-5.5 60.5v380q0 81 32 124.5t94 43.5zM176 28q52 0 52 85v474q0 43 -15 63.5t-37 20.5
t-37 -20.5t-15 -63.5v-474q0 -85 52 -85z" />
    <glyph glyph-name="ugrave" unicode="&#xf9;" horiz-adv-x="358" 
d="M20 700h95v-588q0 -84 59 -84q60 0 60 85v587h74v-540q0 -50 -11 -82.5t-29 -51.5t-40 -26.5t-44 -7.5q-44 0 -74.5 30.5t-30.5 89.5v552h-59v36zM170 730l-20 70h40l17 -70h-37z" />
    <glyph glyph-name="uacute" unicode="&#xfa;" horiz-adv-x="358" 
d="M20 700h95v-588q0 -84 59 -84q60 0 60 85v587h74v-540q0 -50 -11 -82.5t-29 -51.5t-40 -26.5t-44 -7.5q-44 0 -74.5 30.5t-30.5 89.5v552h-59v36zM160 730l17 70h40l-20 -70h-37z" />
    <glyph glyph-name="ucircumflex" unicode="&#xfb;" horiz-adv-x="358" 
d="M20 700h95v-588q0 -84 59 -84q60 0 60 85v587h74v-540q0 -50 -11 -82.5t-29 -51.5t-40 -26.5t-44 -7.5q-44 0 -74.5 30.5t-30.5 89.5v552h-59v36zM99 740l55 70h49l55 -70h-37l-43 50l-42 -50h-37z" />
    <glyph glyph-name="udieresis" unicode="&#xfc;" horiz-adv-x="358" 
d="M20 700h95v-588q0 -84 59 -84q60 0 60 85v587h74v-540q0 -50 -11 -82.5t-29 -51.5t-40 -26.5t-44 -7.5q-44 0 -74.5 30.5t-30.5 89.5v552h-59v36zM158 750h-44v40h44v-40zM200 790h44v-40h-44v40z" />
    <glyph glyph-name="yacute" unicode="&#xfd;" horiz-adv-x="338" 
d="M328 664h-25l-96 -356v-308h-74v311l-91 353h-32v36h99l80 -318l86 318h53v-36zM161 730l17 70h40l-20 -70h-37z" />
    <glyph glyph-name="thorn" unicode="&#xfe;" horiz-adv-x="330" 
d="M60 700h74v-150h59q17 0 34.5 -6t31.5 -18.5t22.5 -32t8.5 -47.5v-159q0 -59 -26.5 -86t-59.5 -27h-70v-174h-74v700zM134 213h51q11 0 22 8.5t11 31.5v221q0 22 -12 31t-25 9h-47v-301z" />
    <glyph glyph-name="ydieresis" unicode="&#xff;" horiz-adv-x="338" 
d="M168 750h-44v40h44v-40zM210 790h44v-40h-44v40zM328 664h-25l-96 -356v-308h-74v311l-91 353h-32v36h99l80 -318l86 318h53v-36z" />
    <glyph glyph-name="Amacron" unicode="&#x100;" horiz-adv-x="490" 
d="M15 36h59l124 664h101l117 -664h59v-36h-129l-33 184h-173l-34 -184h-91v36zM147 224h159l-77 437zM310 750h-130v36h130v-36z" />
    <glyph glyph-name="amacron" unicode="&#x101;" horiz-adv-x="490" 
d="M15 36h59l124 664h101l117 -664h59v-36h-129l-33 184h-173l-34 -184h-91v36zM147 224h159l-77 437zM310 750h-130v36h130v-36z" />
    <glyph glyph-name="Abreve" unicode="&#x102;" horiz-adv-x="490" 
d="M15 36h59l124 664h101l117 -664h59v-36h-129l-33 184h-173l-34 -184h-91v36zM147 224h159l-77 437zM203 810q3 -12 8 -21q5 -8 13 -14.5t21 -6.5t21 6.5t13 14.5q5 9 8 21h37q-5 -20 -16 -35q-9 -14 -24.5 -24.5t-38.5 -10.5q-24 0 -39 10.5t-24 24.5q-11 15 -16 35h37z
" />
    <glyph glyph-name="abreve" unicode="&#x103;" horiz-adv-x="490" 
d="M15 36h59l124 664h101l117 -664h59v-36h-129l-33 184h-173l-34 -184h-91v36zM147 224h159l-77 437zM203 810q3 -12 8 -21q5 -8 13 -14.5t21 -6.5t21 6.5t13 14.5q5 9 8 21h37q-5 -20 -16 -35q-9 -14 -24.5 -24.5t-38.5 -10.5q-24 0 -39 10.5t-24 24.5q-11 15 -16 35h37z
" />
    <glyph glyph-name="Aogonek" unicode="&#x104;" horiz-adv-x="490" 
d="M15 36h59l124 664h101l117 -664h59v-36h-129l-33 184h-173l-34 -184h-91v36zM147 224h159l-77 437zM367 -125l-18 105h37l18 -105h-37z" />
    <glyph glyph-name="aogonek" unicode="&#x105;" horiz-adv-x="490" 
d="M15 36h59l124 664h101l117 -664h59v-36h-129l-33 184h-173l-34 -184h-91v36zM147 224h159l-77 437zM367 -125l-18 105h37l18 -105h-37z" />
    <glyph glyph-name="Cacute" unicode="&#x106;" horiz-adv-x="308" 
d="M175 -8q-22 0 -44.5 7.5t-40.5 26.5t-29 51.5t-11 82.5v380q0 81 31.5 124.5t93.5 43.5q19 0 33 -5.5t24 -11.5q11 -8 19 -17l24 34l13 -9l-51 -73q-8 16 -22 30.5t-40 14.5q-22 0 -36.5 -20.5t-14.5 -63.5v-474q0 -85 60 -85q59 0 59 84h36q0 -59 -30.5 -89.5
t-73.5 -30.5zM155 740l17 70h40l-20 -70h-37z" />
    <glyph glyph-name="cacute" unicode="&#x107;" horiz-adv-x="308" 
d="M175 -8q-22 0 -44.5 7.5t-40.5 26.5t-29 51.5t-11 82.5v380q0 81 31.5 124.5t93.5 43.5q19 0 33 -5.5t24 -11.5q11 -8 19 -17l24 34l13 -9l-51 -73q-8 16 -22 30.5t-40 14.5q-22 0 -36.5 -20.5t-14.5 -63.5v-474q0 -85 60 -85q59 0 59 84h36q0 -59 -30.5 -89.5
t-73.5 -30.5zM155 740l17 70h40l-20 -70h-37z" />
    <glyph glyph-name="Ccircumflex" unicode="&#x108;" horiz-adv-x="308" 
d="M175 -8q-22 0 -44.5 7.5t-40.5 26.5t-29 51.5t-11 82.5v380q0 81 31.5 124.5t93.5 43.5q19 0 33 -5.5t24 -11.5q11 -8 19 -17l24 34l13 -9l-51 -73q-8 16 -22 30.5t-40 14.5q-22 0 -36.5 -20.5t-14.5 -63.5v-474q0 -85 60 -85q59 0 59 84h36q0 -59 -30.5 -89.5
t-73.5 -30.5zM94 740l55 70h49l55 -70h-37l-43 50l-42 -50h-37z" />
    <glyph glyph-name="ccircumflex" unicode="&#x109;" horiz-adv-x="308" 
d="M175 -8q-22 0 -44.5 7.5t-40.5 26.5t-29 51.5t-11 82.5v380q0 81 31.5 124.5t93.5 43.5q19 0 33 -5.5t24 -11.5q11 -8 19 -17l24 34l13 -9l-51 -73q-8 16 -22 30.5t-40 14.5q-22 0 -36.5 -20.5t-14.5 -63.5v-474q0 -85 60 -85q59 0 59 84h36q0 -59 -30.5 -89.5
t-73.5 -30.5zM94 740l55 70h49l55 -70h-37l-43 50l-42 -50h-37z" />
    <glyph glyph-name="Cdotaccent" unicode="&#x10a;" horiz-adv-x="308" 
d="M175 -8q-22 0 -44.5 7.5t-40.5 26.5t-29 51.5t-11 82.5v380q0 81 31.5 124.5t93.5 43.5q19 0 33 -5.5t24 -11.5q11 -8 19 -17l24 34l13 -9l-51 -73q-8 16 -22 30.5t-40 14.5q-22 0 -36.5 -20.5t-14.5 -63.5v-474q0 -85 60 -85q59 0 59 84h36q0 -59 -30.5 -89.5
t-73.5 -30.5zM150 810h48v-58h-48v58z" />
    <glyph glyph-name="cdotaccent" unicode="&#x10b;" horiz-adv-x="308" 
d="M175 -8q-22 0 -44.5 7.5t-40.5 26.5t-29 51.5t-11 82.5v380q0 81 31.5 124.5t93.5 43.5q19 0 33 -5.5t24 -11.5q11 -8 19 -17l24 34l13 -9l-51 -73q-8 16 -22 30.5t-40 14.5q-22 0 -36.5 -20.5t-14.5 -63.5v-474q0 -85 60 -85q59 0 59 84h36q0 -59 -30.5 -89.5
t-73.5 -30.5zM150 810h48v-58h-48v58z" />
    <glyph glyph-name="Ccaron" unicode="&#x10c;" horiz-adv-x="308" 
d="M175 -8q-22 0 -44.5 7.5t-40.5 26.5t-29 51.5t-11 82.5v380q0 81 31.5 124.5t93.5 43.5q19 0 33 -5.5t24 -11.5q11 -8 19 -17l24 34l13 -9l-51 -73q-8 16 -22 30.5t-40 14.5q-22 0 -36.5 -20.5t-14.5 -63.5v-474q0 -85 60 -85q59 0 59 84h36q0 -59 -30.5 -89.5
t-73.5 -30.5zM253 810l-55 -70h-49l-55 70h37l43 -50l42 50h37z" />
    <glyph glyph-name="ccaron" unicode="&#x10d;" horiz-adv-x="308" 
d="M175 -8q-22 0 -44.5 7.5t-40.5 26.5t-29 51.5t-11 82.5v380q0 81 31.5 124.5t93.5 43.5q19 0 33 -5.5t24 -11.5q11 -8 19 -17l24 34l13 -9l-51 -73q-8 16 -22 30.5t-40 14.5q-22 0 -36.5 -20.5t-14.5 -63.5v-474q0 -85 60 -85q59 0 59 84h36q0 -59 -30.5 -89.5
t-73.5 -30.5zM253 810l-55 -70h-49l-55 70h37l43 -50l42 50h37z" />
    <glyph glyph-name="Dcaron" unicode="&#x10e;" horiz-adv-x="342" 
d="M176 700q62 0 94 -39.5t32 -120.5v-380q0 -50 -11.5 -81.5t-29.5 -49t-40.5 -23.5t-44.5 -6h-116v700h116zM134 664v-628h43q26 0 38.5 16.5t12.5 60.5v474q0 43 -15 60t-37 17h-42zM244 810l-55 -70h-49l-55 70h37l43 -50l42 50h37z" />
    <glyph glyph-name="dcaron" unicode="&#x10f;" horiz-adv-x="342" 
d="M176 700q62 0 94 -39.5t32 -120.5v-380q0 -50 -11.5 -81.5t-29.5 -49t-40.5 -23.5t-44.5 -6h-116v700h116zM134 664v-628h43q26 0 38.5 16.5t12.5 60.5v474q0 43 -15 60t-37 17h-42zM244 810l-55 -70h-49l-55 70h37l43 -50l42 50h37z" />
    <glyph glyph-name="Dcroat" unicode="&#x110;" horiz-adv-x="342" 
d="M20 380h40v320h116q62 0 94 -39.5t32 -120.5v-380q0 -50 -11.5 -81.5t-29.5 -49t-40.5 -23.5t-44.5 -6h-116v340h-40v40zM134 664v-284h52v-40h-52v-304h43q26 0 38.5 16.5t12.5 60.5v474q0 43 -15 60t-37 17h-42z" />
    <glyph glyph-name="dcroat" unicode="&#x111;" horiz-adv-x="342" 
d="M20 380h40v320h116q62 0 94 -39.5t32 -120.5v-380q0 -50 -11.5 -81.5t-29.5 -49t-40.5 -23.5t-44.5 -6h-116v340h-40v40zM134 664v-284h52v-40h-52v-304h43q26 0 38.5 16.5t12.5 60.5v474q0 43 -15 60t-37 17h-42z" />
    <glyph glyph-name="Emacron" unicode="&#x112;" horiz-adv-x="387" 
d="M30 214h98v486h180l32 135h37l-40 -171h-135v-450h114v-36h-114v-142h113v-36h-187v178h-98v36zM258 750h-130v36h130v-36z" />
    <glyph glyph-name="emacron" unicode="&#x113;" horiz-adv-x="387" 
d="M30 214h98v486h180l32 135h37l-40 -171h-135v-450h114v-36h-114v-142h113v-36h-187v178h-98v36zM258 750h-130v36h130v-36z" />
    <glyph glyph-name="Ebreve" unicode="&#x114;" horiz-adv-x="387" 
d="M30 214h98v486h180l32 135h37l-40 -171h-135v-450h114v-36h-114v-142h113v-36h-187v178h-98v36zM151 810q3 -12 8 -21q5 -8 13 -14.5t21 -6.5t21 6.5t13 14.5q5 9 8 21h37q-5 -20 -16 -35q-9 -14 -24.5 -24.5t-38.5 -10.5q-24 0 -39 10.5t-24 24.5q-11 15 -16 35h37z" />
    <glyph glyph-name="ebreve" unicode="&#x115;" horiz-adv-x="387" 
d="M30 214h98v486h180l32 135h37l-40 -171h-135v-450h114v-36h-114v-142h113v-36h-187v178h-98v36zM151 810q3 -12 8 -21q5 -8 13 -14.5t21 -6.5t21 6.5t13 14.5q5 9 8 21h37q-5 -20 -16 -35q-9 -14 -24.5 -24.5t-38.5 -10.5q-24 0 -39 10.5t-24 24.5q-11 15 -16 35h37z" />
    <glyph glyph-name="Edotaccent" unicode="&#x116;" horiz-adv-x="387" 
d="M30 214h98v486h180l32 135h37l-40 -171h-135v-450h114v-36h-114v-142h113v-36h-187v178h-98v36zM199 810h48v-58h-48v58z" />
    <glyph glyph-name="edotaccent" unicode="&#x117;" horiz-adv-x="387" 
d="M30 214h98v486h180l32 135h37l-40 -171h-135v-450h114v-36h-114v-142h113v-36h-187v178h-98v36zM199 810h48v-58h-48v58z" />
    <glyph glyph-name="Eogonek" unicode="&#x118;" horiz-adv-x="387" 
d="M30 214h98v486h180l32 135h37l-40 -171h-135v-450h114v-36h-114v-142h113v-36h-187v178h-98v36zM271 -125l-18 105h37l18 -105h-37z" />
    <glyph glyph-name="eogonek" unicode="&#x119;" horiz-adv-x="387" 
d="M30 214h98v486h180l32 135h37l-40 -171h-135v-450h114v-36h-114v-142h113v-36h-187v178h-98v36zM271 -125l-18 105h37l18 -105h-37z" />
    <glyph glyph-name="Ecaron" unicode="&#x11a;" horiz-adv-x="387" 
d="M30 214h98v486h180l32 135h37l-40 -171h-135v-450h114v-36h-114v-142h113v-36h-187v178h-98v36zM273 810l-55 -70h-49l-55 70h37l43 -50l42 50h37z" />
    <glyph glyph-name="ecaron" unicode="&#x11b;" horiz-adv-x="387" 
d="M30 214h98v486h180l32 135h37l-40 -171h-135v-450h114v-36h-114v-142h113v-36h-187v178h-98v36zM273 810l-55 -70h-49l-55 70h37l43 -50l42 50h37z" />
    <glyph glyph-name="Gcircumflex" unicode="&#x11c;" horiz-adv-x="308" 
d="M243 184h-48v40h84v-112q0 -59 -30.5 -89.5t-73.5 -30.5q-22 0 -44.5 7.5t-40.5 26.5t-29 51.5t-11 82.5v380q0 81 31.5 124.5t93.5 43.5q19 0 33 -5.5t24 -11.5q11 -8 19 -17l24 34l13 -9l-51 -73q-8 16 -22 30.5t-40 14.5q-22 0 -36.5 -20.5t-14.5 -63.5v-474
q0 -85 60 -85q59 0 59 84v72zM94 740l55 70h49l55 -70h-37l-43 50l-42 -50h-37z" />
    <glyph glyph-name="gcircumflex" unicode="&#x11d;" horiz-adv-x="308" 
d="M243 184h-48v40h84v-112q0 -59 -30.5 -89.5t-73.5 -30.5q-22 0 -44.5 7.5t-40.5 26.5t-29 51.5t-11 82.5v380q0 81 31.5 124.5t93.5 43.5q19 0 33 -5.5t24 -11.5q11 -8 19 -17l24 34l13 -9l-51 -73q-8 16 -22 30.5t-40 14.5q-22 0 -36.5 -20.5t-14.5 -63.5v-474
q0 -85 60 -85q59 0 59 84v72zM94 740l55 70h49l55 -70h-37l-43 50l-42 -50h-37z" />
    <glyph glyph-name="Gbreve" unicode="&#x11e;" horiz-adv-x="308" 
d="M243 184h-48v40h84v-112q0 -59 -30.5 -89.5t-73.5 -30.5q-22 0 -44.5 7.5t-40.5 26.5t-29 51.5t-11 82.5v380q0 81 31.5 124.5t93.5 43.5q19 0 33 -5.5t24 -11.5q11 -8 19 -17l24 34l13 -9l-51 -73q-8 16 -22 30.5t-40 14.5q-22 0 -36.5 -20.5t-14.5 -63.5v-474
q0 -85 60 -85q59 0 59 84v72zM132 810q3 -12 8 -21q5 -8 13 -14.5t21 -6.5t21 6.5t13 14.5q5 9 8 21h37q-5 -20 -16 -35q-9 -14 -24.5 -24.5t-38.5 -10.5q-24 0 -39 10.5t-24 24.5q-11 15 -16 35h37z" />
    <glyph glyph-name="gbreve" unicode="&#x11f;" horiz-adv-x="308" 
d="M243 184h-48v40h84v-112q0 -59 -30.5 -89.5t-73.5 -30.5q-22 0 -44.5 7.5t-40.5 26.5t-29 51.5t-11 82.5v380q0 81 31.5 124.5t93.5 43.5q19 0 33 -5.5t24 -11.5q11 -8 19 -17l24 34l13 -9l-51 -73q-8 16 -22 30.5t-40 14.5q-22 0 -36.5 -20.5t-14.5 -63.5v-474
q0 -85 60 -85q59 0 59 84v72zM132 810q3 -12 8 -21q5 -8 13 -14.5t21 -6.5t21 6.5t13 14.5q5 9 8 21h37q-5 -20 -16 -35q-9 -14 -24.5 -24.5t-38.5 -10.5q-24 0 -39 10.5t-24 24.5q-11 15 -16 35h37z" />
    <glyph glyph-name="Gdotaccent" unicode="&#x120;" horiz-adv-x="308" 
d="M243 184h-48v40h84v-112q0 -59 -30.5 -89.5t-73.5 -30.5q-22 0 -44.5 7.5t-40.5 26.5t-29 51.5t-11 82.5v380q0 81 31.5 124.5t93.5 43.5q19 0 33 -5.5t24 -11.5q11 -8 19 -17l24 34l13 -9l-51 -73q-8 16 -22 30.5t-40 14.5q-22 0 -36.5 -20.5t-14.5 -63.5v-474
q0 -85 60 -85q59 0 59 84v72zM150 810h48v-58h-48v58z" />
    <glyph glyph-name="gdotaccent" unicode="&#x121;" horiz-adv-x="308" 
d="M243 184h-48v40h84v-112q0 -59 -30.5 -89.5t-73.5 -30.5q-22 0 -44.5 7.5t-40.5 26.5t-29 51.5t-11 82.5v380q0 81 31.5 124.5t93.5 43.5q19 0 33 -5.5t24 -11.5q11 -8 19 -17l24 34l13 -9l-51 -73q-8 16 -22 30.5t-40 14.5q-22 0 -36.5 -20.5t-14.5 -63.5v-474
q0 -85 60 -85q59 0 59 84v72zM150 810h48v-58h-48v58z" />
    <glyph glyph-name="uni0122" unicode="&#x122;" horiz-adv-x="308" 
d="M243 184h-48v40h84v-112q0 -59 -30.5 -89.5t-73.5 -30.5q-22 0 -44.5 7.5t-40.5 26.5t-29 51.5t-11 82.5v380q0 81 31.5 124.5t93.5 43.5q19 0 33 -5.5t24 -11.5q11 -8 19 -17l24 34l13 -9l-51 -73q-8 16 -22 30.5t-40 14.5q-22 0 -36.5 -20.5t-14.5 -63.5v-474
q0 -85 60 -85q59 0 59 84v72zM144 -50h60v-72l-20 -83h-30l19 83h-29v72z" />
    <glyph glyph-name="uni0123" unicode="&#x123;" horiz-adv-x="308" 
d="M243 184h-48v40h84v-112q0 -59 -30.5 -89.5t-73.5 -30.5q-22 0 -44.5 7.5t-40.5 26.5t-29 51.5t-11 82.5v380q0 81 31.5 124.5t93.5 43.5q19 0 33 -5.5t24 -11.5q11 -8 19 -17l24 34l13 -9l-51 -73q-8 16 -22 30.5t-40 14.5q-22 0 -36.5 -20.5t-14.5 -63.5v-474
q0 -85 60 -85q59 0 59 84v72zM144 -50h60v-72l-20 -83h-30l19 83h-29v72z" />
    <glyph glyph-name="Hcircumflex" unicode="&#x124;" horiz-adv-x="414" 
d="M280 184h-146v-184h-74v700h74v-476h146v476h74v-700h-74v184zM127 740l55 70h49l55 -70h-37l-43 50l-42 -50h-37z" />
    <glyph glyph-name="hcircumflex" unicode="&#x125;" horiz-adv-x="414" 
d="M127 740l55 70h49l55 -70h-37l-43 50l-42 -50h-37zM280 184h-146v-184h-74v700h74v-476h146v476h74v-700h-74v184z" />
    <glyph glyph-name="Hbar" unicode="&#x126;" horiz-adv-x="434" 
d="M30 390h40v310h74v-310h146v310h74v-310h40v-40h-40v-350h-74v184h-146v-184h-74v350h-40v40zM290 224v126h-146v-126h146z" />
    <glyph glyph-name="hbar" unicode="&#x127;" horiz-adv-x="434" 
d="M30 390h40v310h74v-310h146v310h74v-310h40v-40h-40v-350h-74v184h-146v-184h-74v350h-40v40zM290 224v126h-146v-126h146z" />
    <glyph glyph-name="Itilde" unicode="&#x128;" horiz-adv-x="194" 
d="M60 700h74v-700h-74v700zM210 810l-55 -70h-49q-4 11 -9 21q-5 8 -13 14.5t-21 6.5t-21 -6.5t-13 -14.5q-5 -10 -8 -21h-37q5 19 16 35q9 13 24 24t39 11q21 0 35.5 -8t22.5 -17q10 -11 15 -25l37 50h37z" />
    <glyph glyph-name="itilde" unicode="&#x129;" horiz-adv-x="194" 
d="M60 700h74v-700h-74v700zM210 810l-55 -70h-49q-4 11 -9 21q-5 8 -13 14.5t-21 6.5t-21 -6.5t-13 -14.5q-5 -10 -8 -21h-37q5 19 16 35q9 13 24 24t39 11q21 0 35.5 -8t22.5 -17q10 -11 15 -25l37 50h37z" />
    <glyph glyph-name="Imacron" unicode="&#x12a;" horiz-adv-x="194" 
d="M60 700h74v-700h-74v700zM162 750h-130v36h130v-36z" />
    <glyph glyph-name="imacron" unicode="&#x12b;" horiz-adv-x="194" 
d="M60 700h74v-700h-74v700zM162 750h-130v36h130v-36z" />
    <glyph glyph-name="Ibreve" unicode="&#x12c;" horiz-adv-x="194" 
d="M60 700h74v-700h-74v700zM55 810q3 -12 8 -21q5 -8 13 -14.5t21 -6.5t21 6.5t13 14.5q5 9 8 21h37q-5 -20 -16 -35q-9 -14 -24.5 -24.5t-38.5 -10.5q-24 0 -39 10.5t-24 24.5q-11 15 -16 35h37z" />
    <glyph glyph-name="ibreve" unicode="&#x12d;" horiz-adv-x="194" 
d="M60 700h74v-700h-74v700zM55 810q3 -12 8 -21q5 -8 13 -14.5t21 -6.5t21 6.5t13 14.5q5 9 8 21h37q-5 -20 -16 -35q-9 -14 -24.5 -24.5t-38.5 -10.5q-24 0 -39 10.5t-24 24.5q-11 15 -16 35h37z" />
    <glyph glyph-name="Iogonek" unicode="&#x12e;" horiz-adv-x="194" 
d="M60 700h74v-700h-74v700zM97 -125l-18 105h37l18 -105h-37z" />
    <glyph glyph-name="iogonek" unicode="&#x12f;" horiz-adv-x="194" 
d="M60 700h74v-700h-74v700zM97 -125l-18 105h37l18 -105h-37z" />
    <glyph glyph-name="Idotaccent" unicode="&#x130;" horiz-adv-x="194" 
d="M60 700h74v-700h-74v700zM73 810h48v-58h-48v58z" />
    <glyph glyph-name="dotlessi" unicode="&#x131;" horiz-adv-x="194" 
d="M60 700h74v-700h-74v700z" />
    <glyph glyph-name="IJ" unicode="&#x132;" horiz-adv-x="513" 
d="M60 700h74v-700h-74v700zM453 160q0 -50 -11 -82.5t-29 -51.5t-40 -26.5t-44 -7.5q-44 0 -74.5 30.5t-30.5 89.5h36q0 -84 59 -84q60 0 60 85v551h-119v36h193v-540z" />
    <glyph glyph-name="ij" unicode="&#x133;" horiz-adv-x="513" 
d="M60 700h74v-700h-74v700zM453 160q0 -50 -11 -82.5t-29 -51.5t-40 -26.5t-44 -7.5q-44 0 -74.5 30.5t-30.5 89.5h36q0 -84 59 -84q60 0 60 85v551h-119v36h193v-540z" />
    <glyph glyph-name="Jcircumflex" unicode="&#x134;" horiz-adv-x="319" 
d="M259 160q0 -50 -11 -82.5t-29 -51.5t-40 -26.5t-44 -7.5q-44 0 -74.5 30.5t-30.5 89.5h36q0 -84 59 -84q60 0 60 85v551h-119v36h193v-540zM90 740l55 70h49l55 -70h-37l-43 50l-42 -50h-37z" />
    <glyph glyph-name="jcircumflex" unicode="&#x135;" horiz-adv-x="319" 
d="M259 160q0 -50 -11 -82.5t-29 -51.5t-40 -26.5t-44 -7.5q-44 0 -74.5 30.5t-30.5 89.5h36q0 -84 59 -84q60 0 60 85v551h-119v36h193v-540zM90 740l55 70h49l55 -70h-37l-43 50l-42 -50h-37z" />
    <glyph glyph-name="uni0136" unicode="&#x136;" horiz-adv-x="347" 
d="M290 700v-247q0 -45 -21.5 -70.5t-54.5 -25.5v-11q33 -1 54.5 -24t21.5 -69v-217h27v-36h-99v295q0 22 -12 31t-25 9h-47v-335h-74v700h74v-329h51q11 0 22 8.5t11 31.5v289h72zM135 -40h60v-72l-20 -83h-30l19 83h-29v72z" />
    <glyph glyph-name="uni0137" unicode="&#x137;" horiz-adv-x="347" 
d="M290 700v-247q0 -45 -21.5 -70.5t-54.5 -25.5v-11q33 -1 54.5 -24t21.5 -69v-217h27v-36h-99v295q0 22 -12 31t-25 9h-47v-335h-74v700h74v-329h51q11 0 22 8.5t11 31.5v289h72zM135 -40h60v-72l-20 -83h-30l19 83h-29v72z" />
    <glyph glyph-name="kgreenlandic" unicode="&#x138;" horiz-adv-x="347" 
d="M290 700v-247q0 -45 -21.5 -70.5t-54.5 -25.5v-11q33 -1 54.5 -24t21.5 -69v-217h27v-36h-99v295q0 22 -12 31t-25 9h-47v-335h-74v700h74v-329h51q11 0 22 8.5t11 31.5v289h72z" />
    <glyph glyph-name="Lacute" unicode="&#x139;" horiz-adv-x="277" 
d="M60 700h74v-664h113v-36h-187v700zM75 730l17 70h40l-20 -70h-37z" />
    <glyph glyph-name="lacute" unicode="&#x13a;" horiz-adv-x="277" 
d="M60 700h74v-664h113v-36h-187v700zM75 730l17 70h40l-20 -70h-37z" />
    <glyph glyph-name="uni013B" unicode="&#x13b;" horiz-adv-x="277" 
d="M60 700h74v-664h113v-36h-187v700zM119 -40h60v-72l-20 -83h-30l19 83h-29v72z" />
    <glyph glyph-name="uni013C" unicode="&#x13c;" horiz-adv-x="277" 
d="M60 700h74v-664h113v-36h-187v700zM119 -40h60v-72l-20 -83h-30l19 83h-29v72z" />
    <glyph glyph-name="Lcaron" unicode="&#x13d;" horiz-adv-x="277" 
d="M189 589l11 111h37l-11 -111h-37zM60 700h74v-664h113v-36h-187v700z" />
    <glyph glyph-name="lcaron" unicode="&#x13e;" horiz-adv-x="277" 
d="M189 589l11 111h37l-11 -111h-37zM60 700h74v-664h113v-36h-187v700z" />
    <glyph glyph-name="Ldot" unicode="&#x13f;" horiz-adv-x="277" 
d="M60 700h74v-664h113v-36h-187v700zM185 378h48v-58h-48v58z" />
    <glyph glyph-name="ldot" unicode="&#x140;" horiz-adv-x="277" 
d="M60 700h74v-664h113v-36h-187v700zM185 378h48v-58h-48v58z" />
    <glyph glyph-name="Lslash" unicode="&#x141;" horiz-adv-x="277" 
d="M10 326l50 28v346h74v-308l72 41v-40l-72 -41v-316h113v-36h-187v314l-50 -28v40z" />
    <glyph glyph-name="lslash" unicode="&#x142;" horiz-adv-x="287" 
d="M20 326l50 28v346h74v-308l72 41v-40l-72 -41v-316h113v-36h-187v314l-50 -28v40z" />
    <glyph glyph-name="Nacute" unicode="&#x143;" horiz-adv-x="429" 
d="M119 667v-667h-99v36h63v664h107l124 -668v668h95v-36h-59v-664h-107zM216 730l17 70h40l-20 -70h-37z" />
    <glyph glyph-name="nacute" unicode="&#x144;" horiz-adv-x="429" 
d="M119 667v-667h-99v36h63v664h107l124 -668v668h95v-36h-59v-664h-107zM216 730l17 70h40l-20 -70h-37z" />
    <glyph glyph-name="uni0145" unicode="&#x145;" horiz-adv-x="429" 
d="M119 667v-667h-99v36h63v664h107l124 -668v668h95v-36h-59v-664h-107zM194 -40h60v-72l-20 -83h-30l19 83h-29v72z" />
    <glyph glyph-name="uni0146" unicode="&#x146;" horiz-adv-x="429" 
d="M119 667v-667h-99v36h63v664h107l124 -668v668h95v-36h-59v-664h-107zM194 -40h60v-72l-20 -83h-30l19 83h-29v72z" />
    <glyph glyph-name="Ncaron" unicode="&#x147;" horiz-adv-x="429" 
d="M119 667v-667h-99v36h63v664h107l124 -668v668h95v-36h-59v-664h-107zM304 810l-55 -70h-49l-55 70h37l43 -50l42 50h37z" />
    <glyph glyph-name="ncaron" unicode="&#x148;" horiz-adv-x="429" 
d="M119 667v-667h-99v36h63v664h107l124 -668v668h95v-36h-59v-664h-107zM304 810l-55 -70h-49l-55 70h37l43 -50l42 50h37z" />
    <glyph glyph-name="napostrophe" unicode="&#x149;" horiz-adv-x="469" 
d="M20 700h60v-72l-20 -83h-30l19 83h-29v72zM159 667v-667h-99v36h63v664h107l124 -668v668h95v-36h-59v-664h-107z" />
    <glyph glyph-name="Eng" unicode="&#x14a;" horiz-adv-x="429" 
d="M119 667v-667h-99v36h63v664h107l124 -668v668h95v-36h-59v-704q0 -50 -11 -82.5t-29 -51.5t-40 -26.5t-44 -7.5q-44 0 -74.5 30.5t-30.5 89.5h36q0 -45 16.5 -64.5t46.5 -19.5q35 0 55.5 22t20.5 63v87h-53z" />
    <glyph glyph-name="eng" unicode="&#x14b;" horiz-adv-x="429" 
d="M119 667v-667h-99v36h63v664h107l124 -668v668h95v-36h-59v-704q0 -50 -11 -82.5t-29 -51.5t-40 -26.5t-44 -7.5q-44 0 -74.5 30.5t-30.5 89.5h36q0 -45 16.5 -64.5t46.5 -19.5q35 0 55.5 22t20.5 63v87h-53z" />
    <glyph glyph-name="Omacron" unicode="&#x14c;" 
d="M176 708q62 0 94 -43.5t32 -124.5v-380q0 -50 -11.5 -82.5t-29.5 -51.5t-40.5 -26.5t-44.5 -7.5t-44.5 7.5t-40.5 26.5t-29.5 51.5t-11.5 82.5v380q0 81 32 124.5t94 43.5zM176 28q52 0 52 85v474q0 43 -15 63.5t-37 20.5t-37 -20.5t-15 -63.5v-474q0 -85 52 -85z
M241 750h-130v36h130v-36z" />
    <glyph glyph-name="omacron" unicode="&#x14d;" 
d="M176 708q62 0 94 -43.5t32 -124.5v-380q0 -50 -11.5 -82.5t-29.5 -51.5t-40.5 -26.5t-44.5 -7.5t-44.5 7.5t-40.5 26.5t-29.5 51.5t-11.5 82.5v380q0 81 32 124.5t94 43.5zM176 28q52 0 52 85v474q0 43 -15 63.5t-37 20.5t-37 -20.5t-15 -63.5v-474q0 -85 52 -85z
M241 750h-130v36h130v-36z" />
    <glyph glyph-name="Obreve" unicode="&#x14e;" 
d="M176 708q62 0 94 -43.5t32 -124.5v-380q0 -50 -11.5 -82.5t-29.5 -51.5t-40.5 -26.5t-44.5 -7.5t-44.5 7.5t-40.5 26.5t-29.5 51.5t-11.5 82.5v380q0 81 32 124.5t94 43.5zM176 28q52 0 52 85v474q0 43 -15 63.5t-37 20.5t-37 -20.5t-15 -63.5v-474q0 -85 52 -85z
M134 810q3 -12 8 -21q5 -8 13 -14.5t21 -6.5t21 6.5t13 14.5q5 9 8 21h37q-5 -20 -16 -35q-9 -14 -24.5 -24.5t-38.5 -10.5q-24 0 -39 10.5t-24 24.5q-11 15 -16 35h37z" />
    <glyph glyph-name="obreve" unicode="&#x14f;" 
d="M176 708q62 0 94 -43.5t32 -124.5v-380q0 -50 -11.5 -82.5t-29.5 -51.5t-40.5 -26.5t-44.5 -7.5t-44.5 7.5t-40.5 26.5t-29.5 51.5t-11.5 82.5v380q0 81 32 124.5t94 43.5zM176 28q52 0 52 85v474q0 43 -15 63.5t-37 20.5t-37 -20.5t-15 -63.5v-474q0 -85 52 -85z
M134 810q3 -12 8 -21q5 -8 13 -14.5t21 -6.5t21 6.5t13 14.5q5 9 8 21h37q-5 -20 -16 -35q-9 -14 -24.5 -24.5t-38.5 -10.5q-24 0 -39 10.5t-24 24.5q-11 15 -16 35h37z" />
    <glyph glyph-name="Ohungarumlaut" unicode="&#x150;" 
d="M176 708q62 0 94 -43.5t32 -124.5v-380q0 -50 -11.5 -82.5t-29.5 -51.5t-40.5 -26.5t-44.5 -7.5t-44.5 7.5t-40.5 26.5t-29.5 51.5t-11.5 82.5v380q0 81 32 124.5t94 43.5zM176 28q52 0 52 85v474q0 43 -15 63.5t-37 20.5t-37 -20.5t-15 -63.5v-474q0 -85 52 -85z
M115 740l17 70h40l-20 -70h-37zM195 740l27 70h40l-30 -70h-37z" />
    <glyph glyph-name="ohungarumlaut" unicode="&#x151;" 
d="M176 708q62 0 94 -43.5t32 -124.5v-380q0 -50 -11.5 -82.5t-29.5 -51.5t-40.5 -26.5t-44.5 -7.5t-44.5 7.5t-40.5 26.5t-29.5 51.5t-11.5 82.5v380q0 81 32 124.5t94 43.5zM176 28q52 0 52 85v474q0 43 -15 63.5t-37 20.5t-37 -20.5t-15 -63.5v-474q0 -85 52 -85z
M115 740l17 70h40l-20 -70h-37zM195 740l27 70h40l-30 -70h-37z" />
    <glyph glyph-name="OE" unicode="&#x152;" horiz-adv-x="487" 
d="M176 708q22 0 34 -4t30 -4h168l32 135h37l-40 -171h-135v-450h114v-36h-114v-142h113v-36h-182q-14 0 -25.5 -4t-31.5 -4q-22 0 -44.5 7.5t-40.5 26.5t-29.5 51.5t-11.5 82.5v380q0 81 32 124.5t94 43.5zM228 595q-2 39 -17 57.5t-35 18.5q-22 0 -37 -20.5t-15 -63.5
v-474q0 -85 52 -85t52 85v482z" />
    <glyph glyph-name="oe" unicode="&#x153;" horiz-adv-x="467" 
d="M176 708q22 0 34 -4t30 -4h197v-36h-135v-450h114v-36h-114v-142h113v-36h-182q-14 0 -25.5 -4t-31.5 -4q-22 0 -44.5 7.5t-40.5 26.5t-29.5 51.5t-11.5 82.5v380q0 81 32 124.5t94 43.5zM228 595q-2 39 -17 57.5t-35 18.5q-22 0 -37 -20.5t-15 -63.5v-474q0 -85 52 -85
t52 85v482z" />
    <glyph glyph-name="Racute" unicode="&#x154;" horiz-adv-x="347" 
d="M60 700h133q17 0 34.5 -6t31.5 -18.5t22.5 -32t8.5 -47.5v-143q0 -50 -24 -72.5t-52 -22.5v-11q28 -1 52 -22.5t24 -71.5v-217h27v-36h-99v295q0 22 -10 31t-23 9h-51v-335h-74v700zM134 371h51q11 0 22 8.5t11 31.5v213q0 22 -12 31t-25 9h-47v-293zM135 730l17 70h40
l-20 -70h-37z" />
    <glyph glyph-name="racute" unicode="&#x155;" horiz-adv-x="347" 
d="M60 700h133q17 0 34.5 -6t31.5 -18.5t22.5 -32t8.5 -47.5v-143q0 -50 -24 -72.5t-52 -22.5v-11q28 -1 52 -22.5t24 -71.5v-217h27v-36h-99v295q0 22 -10 31t-23 9h-51v-335h-74v700zM134 371h51q11 0 22 8.5t11 31.5v213q0 22 -12 31t-25 9h-47v-293zM135 730l17 70h40
l-20 -70h-37z" />
    <glyph glyph-name="uni0156" unicode="&#x156;" horiz-adv-x="347" 
d="M60 700h133q17 0 34.5 -6t31.5 -18.5t22.5 -32t8.5 -47.5v-143q0 -50 -24 -72.5t-52 -22.5v-11q28 -1 52 -22.5t24 -71.5v-217h27v-36h-99v295q0 22 -10 31t-23 9h-51v-335h-74v700zM134 371h51q11 0 22 8.5t11 31.5v213q0 22 -12 31t-25 9h-47v-293zM135 -40h60v-72
l-20 -83h-30l19 83h-29v72z" />
    <glyph glyph-name="uni0157" unicode="&#x157;" horiz-adv-x="347" 
d="M60 700h133q17 0 34.5 -6t31.5 -18.5t22.5 -32t8.5 -47.5v-143q0 -50 -24 -72.5t-52 -22.5v-11q28 -1 52 -22.5t24 -71.5v-217h27v-36h-99v295q0 22 -10 31t-23 9h-51v-335h-74v700zM134 371h51q11 0 22 8.5t11 31.5v213q0 22 -12 31t-25 9h-47v-293zM135 -40h60v-72
l-20 -83h-30l19 83h-29v72z" />
    <glyph glyph-name="Rcaron" unicode="&#x158;" horiz-adv-x="347" 
d="M60 700h133q17 0 34.5 -6t31.5 -18.5t22.5 -32t8.5 -47.5v-143q0 -50 -24 -72.5t-52 -22.5v-11q28 -1 52 -22.5t24 -71.5v-217h27v-36h-99v295q0 22 -10 31t-23 9h-51v-335h-74v700zM134 371h51q11 0 22 8.5t11 31.5v213q0 22 -12 31t-25 9h-47v-293zM235 810l-55 -70
h-49l-55 70h37l43 -50l42 50h37z" />
    <glyph glyph-name="rcaron" unicode="&#x159;" horiz-adv-x="347" 
d="M60 700h133q17 0 34.5 -6t31.5 -18.5t22.5 -32t8.5 -47.5v-143q0 -50 -24 -72.5t-52 -22.5v-11q28 -1 52 -22.5t24 -71.5v-217h27v-36h-99v295q0 22 -10 31t-23 9h-51v-335h-74v700zM134 371h51q11 0 22 8.5t11 31.5v213q0 22 -12 31t-25 9h-47v-293zM235 810l-55 -70
h-49l-55 70h37l43 -50l42 50h37z" />
    <glyph glyph-name="Sacute" unicode="&#x15a;" horiz-adv-x="327" 
d="M189 284q4 -25 5 -48t1 -45q0 -33 -7 -66.5t-22 -61.5t-39 -45.5t-58 -17.5h-49v36h49q26 0 41 30t15 84q0 30 -3 60.5t-8 60.5l-26 164q-5 29 -6.5 56.5t-1.5 52.5q0 22 7.5 49.5t22.5 52t38.5 41.5t55.5 17q24 0 42.5 -9t32.5 -22l23 29l15 -12l-49 -64q-8 10 -18 19
q-8 7 -20.5 13t-26.5 6q-20 0 -39 -19.5t-19 -54.5q0 -32 6 -68t12 -74zM182 730l17 70h40l-20 -70h-37z" />
    <glyph glyph-name="sacute" unicode="&#x15b;" horiz-adv-x="327" 
d="M189 284q4 -25 5 -48t1 -45q0 -33 -7 -66.5t-22 -61.5t-39 -45.5t-58 -17.5h-49v36h49q26 0 41 30t15 84q0 30 -3 60.5t-8 60.5l-26 164q-5 29 -6.5 56.5t-1.5 52.5q0 22 7.5 49.5t22.5 52t38.5 41.5t55.5 17q24 0 42.5 -9t32.5 -22l23 29l15 -12l-49 -64q-8 10 -18 19
q-8 7 -20.5 13t-26.5 6q-20 0 -39 -19.5t-19 -54.5q0 -32 6 -68t12 -74zM182 730l17 70h40l-20 -70h-37z" />
    <glyph glyph-name="Scircumflex" unicode="&#x15c;" horiz-adv-x="327" 
d="M189 284q4 -25 5 -48t1 -45q0 -33 -7 -66.5t-22 -61.5t-39 -45.5t-58 -17.5h-49v36h49q26 0 41 30t15 84q0 30 -3 60.5t-8 60.5l-26 164q-5 29 -6.5 56.5t-1.5 52.5q0 22 7.5 49.5t22.5 52t38.5 41.5t55.5 17q24 0 42.5 -9t32.5 -22l23 29l15 -12l-49 -64q-8 10 -18 19
q-8 7 -20.5 13t-26.5 6q-20 0 -39 -19.5t-19 -54.5q0 -32 6 -68t12 -74zM124 740l55 70h49l55 -70h-37l-43 50l-42 -50h-37z" />
    <glyph glyph-name="scircumflex" unicode="&#x15d;" horiz-adv-x="327" 
d="M189 284q4 -25 5 -48t1 -45q0 -33 -7 -66.5t-22 -61.5t-39 -45.5t-58 -17.5h-49v36h49q26 0 41 30t15 84q0 30 -3 60.5t-8 60.5l-26 164q-5 29 -6.5 56.5t-1.5 52.5q0 22 7.5 49.5t22.5 52t38.5 41.5t55.5 17q24 0 42.5 -9t32.5 -22l23 29l15 -12l-49 -64q-8 10 -18 19
q-8 7 -20.5 13t-26.5 6q-20 0 -39 -19.5t-19 -54.5q0 -32 6 -68t12 -74zM124 740l55 70h49l55 -70h-37l-43 50l-42 -50h-37z" />
    <glyph glyph-name="uni015E" unicode="&#x15e;" horiz-adv-x="327" 
d="M189 284q4 -25 5 -48t1 -45q0 -33 -7 -66.5t-22 -61.5t-39 -45.5t-58 -17.5h-49v36h49q26 0 41 30t15 84q0 30 -3 60.5t-8 60.5l-26 164q-5 29 -6.5 56.5t-1.5 52.5q0 22 7.5 49.5t22.5 52t38.5 41.5t55.5 17q24 0 42.5 -9t32.5 -22l23 29l15 -12l-49 -64q-8 10 -18 19
q-8 7 -20.5 13t-26.5 6q-20 0 -39 -19.5t-19 -54.5q0 -32 6 -68t12 -74zM42 -125l25 105h37l-25 -105h-37z" />
    <glyph glyph-name="uni015F" unicode="&#x15f;" horiz-adv-x="327" 
d="M189 284q4 -25 5 -48t1 -45q0 -33 -7 -66.5t-22 -61.5t-39 -45.5t-58 -17.5h-49v36h49q26 0 41 30t15 84q0 30 -3 60.5t-8 60.5l-26 164q-5 29 -6.5 56.5t-1.5 52.5q0 22 7.5 49.5t22.5 52t38.5 41.5t55.5 17q24 0 42.5 -9t32.5 -22l23 29l15 -12l-49 -64q-8 10 -18 19
q-8 7 -20.5 13t-26.5 6q-20 0 -39 -19.5t-19 -54.5q0 -32 6 -68t12 -74zM42 -125l25 105h37l-25 -105h-37z" />
    <glyph glyph-name="Scaron" unicode="&#x160;" horiz-adv-x="327" 
d="M189 284q4 -25 5 -48t1 -45q0 -33 -7 -66.5t-22 -61.5t-39 -45.5t-58 -17.5h-49v36h49q26 0 41 30t15 84q0 30 -3 60.5t-8 60.5l-26 164q-5 29 -6.5 56.5t-1.5 52.5q0 22 7.5 49.5t22.5 52t38.5 41.5t55.5 17q24 0 42.5 -9t32.5 -22l23 29l15 -12l-49 -64q-8 10 -18 19
q-8 7 -20.5 13t-26.5 6q-20 0 -39 -19.5t-19 -54.5q0 -32 6 -68t12 -74zM283 810l-55 -70h-49l-55 70h37l43 -50l42 50h37z" />
    <glyph glyph-name="scaron" unicode="&#x161;" horiz-adv-x="327" 
d="M189 284q4 -25 5 -48t1 -45q0 -33 -7 -66.5t-22 -61.5t-39 -45.5t-58 -17.5h-49v36h49q26 0 41 30t15 84q0 30 -3 60.5t-8 60.5l-26 164q-5 29 -6.5 56.5t-1.5 52.5q0 22 7.5 49.5t22.5 52t38.5 41.5t55.5 17q24 0 42.5 -9t32.5 -22l23 29l15 -12l-49 -64q-8 10 -18 19
q-8 7 -20.5 13t-26.5 6q-20 0 -39 -19.5t-19 -54.5q0 -32 6 -68t12 -74zM283 810l-55 -70h-49l-55 70h37l43 -50l42 50h37z" />
    <glyph glyph-name="uni0162" unicode="&#x162;" horiz-adv-x="370" 
d="M20 700h330v-36h-128v-664h-74v664h-128v36zM142 -125l25 105h37l-25 -105h-37z" />
    <glyph glyph-name="uni0163" unicode="&#x163;" horiz-adv-x="370" 
d="M20 700h330v-36h-128v-664h-74v664h-128v36zM142 -125l25 105h37l-25 -105h-37z" />
    <glyph glyph-name="Tcaron" unicode="&#x164;" horiz-adv-x="370" 
d="M20 700h330v-36h-128v-664h-74v664h-128v36zM265 810l-55 -70h-49l-55 70h37l43 -50l42 50h37z" />
    <glyph glyph-name="tcaron" unicode="&#x165;" horiz-adv-x="370" 
d="M20 700h330v-36h-128v-664h-74v664h-128v36zM265 810l-55 -70h-49l-55 70h37l43 -50l42 50h37z" />
    <glyph glyph-name="Tbar" unicode="&#x166;" horiz-adv-x="370" 
d="M20 700h330v-36h-128v-274h65v-40h-65v-350h-74v350h-65v40h65v274h-128v36z" />
    <glyph glyph-name="tbar" unicode="&#x167;" horiz-adv-x="370" 
d="M20 700h330v-36h-128v-274h65v-40h-65v-350h-74v350h-65v40h65v274h-128v36z" />
    <glyph glyph-name="Utilde" unicode="&#x168;" horiz-adv-x="358" 
d="M20 700h95v-588q0 -84 59 -84q60 0 60 85v587h74v-540q0 -50 -11 -82.5t-29 -51.5t-40 -26.5t-44 -7.5q-44 0 -74.5 30.5t-30.5 89.5v552h-59v36zM322 810l-55 -70h-49q-4 11 -9 21q-5 8 -13 14.5t-21 6.5t-21 -6.5t-13 -14.5q-5 -10 -8 -21h-37q5 19 16 35q9 13 24 24
t39 11q21 0 35.5 -8t22.5 -17q10 -11 15 -25l37 50h37z" />
    <glyph glyph-name="utilde" unicode="&#x169;" horiz-adv-x="358" 
d="M20 700h95v-588q0 -84 59 -84q60 0 60 85v587h74v-540q0 -50 -11 -82.5t-29 -51.5t-40 -26.5t-44 -7.5q-44 0 -74.5 30.5t-30.5 89.5v552h-59v36zM322 810l-55 -70h-49q-4 11 -9 21q-5 8 -13 14.5t-21 6.5t-21 -6.5t-13 -14.5q-5 -10 -8 -21h-37q5 19 16 35q9 13 24 24
t39 11q21 0 35.5 -8t22.5 -17q10 -11 15 -25l37 50h37z" />
    <glyph glyph-name="Umacron" unicode="&#x16a;" horiz-adv-x="358" 
d="M20 700h95v-588q0 -84 59 -84q60 0 60 85v587h74v-540q0 -50 -11 -82.5t-29 -51.5t-40 -26.5t-44 -7.5q-44 0 -74.5 30.5t-30.5 89.5v552h-59v36zM244 750h-130v36h130v-36z" />
    <glyph glyph-name="umacron" unicode="&#x16b;" horiz-adv-x="358" 
d="M20 700h95v-588q0 -84 59 -84q60 0 60 85v587h74v-540q0 -50 -11 -82.5t-29 -51.5t-40 -26.5t-44 -7.5q-44 0 -74.5 30.5t-30.5 89.5v552h-59v36zM244 750h-130v36h130v-36z" />
    <glyph glyph-name="Ubreve" unicode="&#x16c;" horiz-adv-x="358" 
d="M20 700h95v-588q0 -84 59 -84q60 0 60 85v587h74v-540q0 -50 -11 -82.5t-29 -51.5t-40 -26.5t-44 -7.5q-44 0 -74.5 30.5t-30.5 89.5v552h-59v36zM137 810q3 -12 8 -21q5 -8 13 -14.5t21 -6.5t21 6.5t13 14.5q5 9 8 21h37q-5 -20 -16 -35q-9 -14 -24.5 -24.5t-38.5 -10.5
q-24 0 -39 10.5t-24 24.5q-11 15 -16 35h37z" />
    <glyph glyph-name="ubreve" unicode="&#x16d;" horiz-adv-x="358" 
d="M20 700h95v-588q0 -84 59 -84q60 0 60 85v587h74v-540q0 -50 -11 -82.5t-29 -51.5t-40 -26.5t-44 -7.5q-44 0 -74.5 30.5t-30.5 89.5v552h-59v36zM137 810q3 -12 8 -21q5 -8 13 -14.5t21 -6.5t21 6.5t13 14.5q5 9 8 21h37q-5 -20 -16 -35q-9 -14 -24.5 -24.5t-38.5 -10.5
q-24 0 -39 10.5t-24 24.5q-11 15 -16 35h37z" />
    <glyph glyph-name="Uring" unicode="&#x16e;" horiz-adv-x="358" 
d="M20 700h95v-588q0 -84 59 -84q60 0 60 85v587h74v-540q0 -50 -11 -82.5t-29 -51.5t-40 -26.5t-44 -7.5q-44 0 -74.5 30.5t-30.5 89.5v552h-59v36zM125 750q0 21 14.5 35.5t35.5 14.5t35.5 -14.5t14.5 -35.5t-14.5 -35.5t-35.5 -14.5t-35.5 14.5t-14.5 35.5zM147 750
q0 -13 7.5 -21t20.5 -8t20.5 8t7.5 21t-7.5 21t-20.5 8t-20.5 -8t-7.5 -21z" />
    <glyph glyph-name="uring" unicode="&#x16f;" horiz-adv-x="358" 
d="M20 700h95v-588q0 -84 59 -84q60 0 60 85v587h74v-540q0 -50 -11 -82.5t-29 -51.5t-40 -26.5t-44 -7.5q-44 0 -74.5 30.5t-30.5 89.5v552h-59v36zM125 750q0 21 14.5 35.5t35.5 14.5t35.5 -14.5t14.5 -35.5t-14.5 -35.5t-35.5 -14.5t-35.5 14.5t-14.5 35.5zM147 750
q0 -13 7.5 -21t20.5 -8t20.5 8t7.5 21t-7.5 21t-20.5 8t-20.5 -8t-7.5 -21z" />
    <glyph glyph-name="Uhungarumlaut" unicode="&#x170;" horiz-adv-x="358" 
d="M20 700h95v-588q0 -84 59 -84q60 0 60 85v587h74v-540q0 -50 -11 -82.5t-29 -51.5t-40 -26.5t-44 -7.5q-44 0 -74.5 30.5t-30.5 89.5v552h-59v36zM116 740l17 70h40l-20 -70h-37zM196 740l27 70h40l-30 -70h-37z" />
    <glyph glyph-name="uhungarumlaut" unicode="&#x171;" horiz-adv-x="358" 
d="M20 700h95v-588q0 -84 59 -84q60 0 60 85v587h74v-540q0 -50 -11 -82.5t-29 -51.5t-40 -26.5t-44 -7.5q-44 0 -74.5 30.5t-30.5 89.5v552h-59v36zM116 740l17 70h40l-20 -70h-37zM196 740l27 70h40l-30 -70h-37z" />
    <glyph glyph-name="Uogonek" unicode="&#x172;" horiz-adv-x="358" 
d="M20 700h95v-588q0 -84 59 -84q60 0 60 85v587h74v-540q0 -50 -11 -82.5t-29 -51.5t-40 -26.5t-44 -7.5q-44 0 -74.5 30.5t-30.5 89.5v552h-59v36zM186 -135l-18 105h37l18 -105h-37z" />
    <glyph glyph-name="uogonek" unicode="&#x173;" horiz-adv-x="358" 
d="M20 700h95v-588q0 -84 59 -84q60 0 60 85v587h74v-540q0 -50 -11 -82.5t-29 -51.5t-40 -26.5t-44 -7.5q-44 0 -74.5 30.5t-30.5 89.5v552h-59v36zM186 -135l-18 105h37l18 -105h-37z" />
    <glyph glyph-name="Wcircumflex" unicode="&#x174;" horiz-adv-x="680" 
d="M660 664h-59l-104 -664h-101l-53 354l-66 -354h-101l-99 664h-57v36h129l98 -659l79 426l-34 233h77l97 -654l103 654h91v-36zM260 740l55 70h49l55 -70h-37l-43 50l-42 -50h-37z" />
    <glyph glyph-name="wcircumflex" unicode="&#x175;" horiz-adv-x="680" 
d="M660 664h-59l-104 -664h-101l-53 354l-66 -354h-101l-99 664h-57v36h129l98 -659l79 426l-34 233h77l97 -654l103 654h91v-36zM260 740l55 70h49l55 -70h-37l-43 50l-42 -50h-37z" />
    <glyph glyph-name="Ycircumflex" unicode="&#x176;" horiz-adv-x="338" 
d="M328 664h-25l-96 -356v-308h-74v311l-91 353h-32v36h99l80 -318l86 318h53v-36zM109 740l55 70h49l55 -70h-37l-43 50l-42 -50h-37z" />
    <glyph glyph-name="ycircumflex" unicode="&#x177;" horiz-adv-x="338" 
d="M328 664h-25l-96 -356v-308h-74v311l-91 353h-32v36h99l80 -318l86 318h53v-36zM109 740l55 70h49l55 -70h-37l-43 50l-42 -50h-37z" />
    <glyph glyph-name="Ydieresis" unicode="&#x178;" horiz-adv-x="338" 
d="M328 664h-25l-96 -356v-308h-74v311l-91 353h-32v36h99l80 -318l86 318h53v-36zM168 750h-44v40h44v-40zM210 790h44v-40h-44v40z" />
    <glyph glyph-name="Zacute" unicode="&#x179;" horiz-adv-x="331" 
d="M40 700h241l-165 -664h185v-36h-271l165 664h-155v36zM137 730l17 70h40l-20 -70h-37z" />
    <glyph glyph-name="zacute" unicode="&#x17a;" horiz-adv-x="331" 
d="M40 700h241l-165 -664h185v-36h-271l165 664h-155v36zM137 730l17 70h40l-20 -70h-37z" />
    <glyph glyph-name="Zdotaccent" unicode="&#x17b;" horiz-adv-x="331" 
d="M40 700h241l-165 -664h185v-36h-271l165 664h-155v36zM131 810h48v-58h-48v58z" />
    <glyph glyph-name="zdotaccent" unicode="&#x17c;" horiz-adv-x="331" 
d="M40 700h241l-165 -664h185v-36h-271l165 664h-155v36zM131 810h48v-58h-48v58z" />
    <glyph glyph-name="Zcaron" unicode="&#x17d;" horiz-adv-x="331" 
d="M40 700h241l-165 -664h185v-36h-271l165 664h-155v36zM245 810l-55 -70h-49l-55 70h37l43 -50l42 50h37z" />
    <glyph glyph-name="zcaron" unicode="&#x17e;" horiz-adv-x="331" 
d="M40 700h241l-165 -664h185v-36h-271l165 664h-155v36zM245 810l-55 -70h-49l-55 70h37l43 -50l42 50h37z" />
    <glyph glyph-name="longs" unicode="&#x17f;" horiz-adv-x="327" 
d="M189 284q4 -25 5 -48t1 -45q0 -33 -7 -66.5t-22 -61.5t-39 -45.5t-58 -17.5h-49v36h49q26 0 41 30t15 84q0 30 -3 60.5t-8 60.5l-26 164q-5 29 -6.5 56.5t-1.5 52.5q0 22 7.5 49.5t22.5 52t38.5 41.5t55.5 17q24 0 42.5 -9t32.5 -22l23 29l15 -12l-49 -64q-8 10 -18 19
q-8 7 -20.5 13t-26.5 6q-20 0 -39 -19.5t-19 -54.5q0 -32 6 -68t12 -74z" />
    <glyph glyph-name="AEacute" unicode="&#x1fc;" horiz-adv-x="473" 
d="M234 184h-102l-41 -184h-71v36h39l144 664h240v-36h-135v-450h114v-36h-114v-142h113v-36h-187v184zM139 224h95v437zM268 730l17 70h40l-20 -70h-37z" />
    <glyph glyph-name="aeacute" unicode="&#x1fd;" horiz-adv-x="473" 
d="M234 184h-102l-41 -184h-71v36h39l144 664h240v-36h-135v-450h114v-36h-114v-142h113v-36h-187v184zM139 224h95v437zM268 730l17 70h40l-20 -70h-37z" />
    <glyph glyph-name="Oslashacute" unicode="&#x1fe;" 
d="M176 708q45 0 76 -25l11 37h39l-21 -73q21 -41 21 -107v-380q0 -50 -11.5 -82.5t-29.5 -51.5t-40.5 -26.5t-44.5 -7.5q-20 0 -40.5 6t-37.5 20l-11 -38h-38l21 75q-9 19 -14.5 44.5t-5.5 60.5v380q0 81 32 124.5t94 43.5zM176 28q52 0 52 85v474q0 43 -15 63.5t-37 20.5
t-37 -20.5t-15 -63.5v-474q0 -85 52 -85zM157 730l17 70h40l-20 -70h-37z" />
    <glyph glyph-name="oslashacute" unicode="&#x1ff;" 
d="M176 708q45 0 76 -25l11 37h39l-21 -73q21 -41 21 -107v-380q0 -50 -11.5 -82.5t-29.5 -51.5t-40.5 -26.5t-44.5 -7.5q-20 0 -40.5 6t-37.5 20l-11 -38h-38l21 75q-9 19 -14.5 44.5t-5.5 60.5v380q0 81 32 124.5t94 43.5zM176 28q52 0 52 85v474q0 43 -15 63.5t-37 20.5
t-37 -20.5t-15 -63.5v-474q0 -85 52 -85zM157 730l17 70h40l-20 -70h-37z" />
    <glyph glyph-name="uni0218" unicode="&#x218;" horiz-adv-x="327" 
d="M189 284q4 -25 5 -48t1 -45q0 -33 -7 -66.5t-22 -61.5t-39 -45.5t-58 -17.5h-49v36h49q26 0 41 30t15 84q0 30 -3 60.5t-8 60.5l-26 164q-5 29 -6.5 56.5t-1.5 52.5q0 22 7.5 49.5t22.5 52t38.5 41.5t55.5 17q24 0 42.5 -9t32.5 -22l23 29l15 -12l-49 -64q-8 10 -18 19
q-8 7 -20.5 13t-26.5 6q-20 0 -39 -19.5t-19 -54.5q0 -32 6 -68t12 -74zM57 -40h60v-72l-20 -83h-30l19 83h-29v72z" />
    <glyph glyph-name="uni0219" unicode="&#x219;" horiz-adv-x="327" 
d="M189 284q4 -25 5 -48t1 -45q0 -33 -7 -66.5t-22 -61.5t-39 -45.5t-58 -17.5h-49v36h49q26 0 41 30t15 84q0 30 -3 60.5t-8 60.5l-26 164q-5 29 -6.5 56.5t-1.5 52.5q0 22 7.5 49.5t22.5 52t38.5 41.5t55.5 17q24 0 42.5 -9t32.5 -22l23 29l15 -12l-49 -64q-8 10 -18 19
q-8 7 -20.5 13t-26.5 6q-20 0 -39 -19.5t-19 -54.5q0 -32 6 -68t12 -74zM57 -40h60v-72l-20 -83h-30l19 83h-29v72z" />
    <glyph glyph-name="uni021A" unicode="&#x21a;" horiz-adv-x="370" 
d="M20 700h330v-36h-128v-664h-74v664h-128v36zM156 -40h60v-72l-20 -83h-30l19 83h-29v72z" />
    <glyph glyph-name="uni021B" unicode="&#x21b;" horiz-adv-x="370" 
d="M20 700h330v-36h-128v-664h-74v664h-128v36zM156 -40h60v-72l-20 -83h-30l19 83h-29v72z" />
    <glyph glyph-name="circumflex" unicode="&#x2c6;" horiz-adv-x="219" 
d="M30 740l55 70h49l55 -70h-37l-43 50l-42 -50h-37z" />
    <glyph glyph-name="caron" unicode="&#x2c7;" horiz-adv-x="219" 
d="M189 810l-55 -70h-49l-55 70h37l43 -50l42 50h37z" />
    <glyph glyph-name="uni02C9" unicode="&#x2c9;" horiz-adv-x="190" 
d="M160 750h-130v36h130v-36z" />
    <glyph glyph-name="breve" unicode="&#x2d8;" horiz-adv-x="286" 
d="M80 810q3 -12 8 -21q5 -8 13 -14.5t21 -6.5t21 6.5t13 14.5q5 9 8 21h37q-5 -20 -16 -35q-9 -14 -24.5 -24.5t-38.5 -10.5q-24 0 -39 10.5t-24 24.5q-11 15 -16 35h37z" />
    <glyph glyph-name="dotaccent" unicode="&#x2d9;" horiz-adv-x="108" 
d="M30 810h48v-58h-48v58z" />
    <glyph glyph-name="ring" unicode="&#x2da;" horiz-adv-x="160" 
d="M30 750q0 21 14.5 35.5t35.5 14.5t35.5 -14.5t14.5 -35.5t-14.5 -35.5t-35.5 -14.5t-35.5 14.5t-14.5 35.5zM52 750q0 -13 7.5 -21t20.5 -8t20.5 8t7.5 21t-7.5 21t-20.5 8t-20.5 -8t-7.5 -21z" />
    <glyph glyph-name="ogonek" unicode="&#x2db;" horiz-adv-x="122" 
d="M48 -125l-18 105h37l18 -105h-37z" />
    <glyph glyph-name="tilde" unicode="&#x2dc;" horiz-adv-x="286" 
d="M256 810l-55 -70h-49q-4 11 -9 21q-5 8 -13 14.5t-21 6.5t-21 -6.5t-13 -14.5q-5 -10 -8 -21h-37q5 19 16 35q9 13 24 24t39 11q21 0 35.5 -8t22.5 -17q10 -11 15 -25l37 50h37z" />
    <glyph glyph-name="hungarumlaut" unicode="&#x2dd;" horiz-adv-x="207" 
d="M30 740l17 70h40l-20 -70h-37zM110 740l27 70h40l-30 -70h-37z" />
    <glyph glyph-name="uni0374" unicode="&#x374;" horiz-adv-x="157" 
d="M50 530l17 170h40l-20 -170h-37z" />
    <glyph glyph-name="uni0375" unicode="&#x375;" horiz-adv-x="157" 
d="M107 36l-17 -170h-40l20 170h37z" />
    <glyph glyph-name="uni037E" unicode="&#x37e;" horiz-adv-x="154" 
d="M40 90h74v-90l-25 -103h-37l24 103h-36v90zM40 440h74v-90h-74v90z" />
    <glyph glyph-name="tonos" unicode="&#x384;" horiz-adv-x="122" 
d="M30 730l17 70h40l-20 -70h-37z" />
    <glyph glyph-name="dieresistonos" unicode="&#x385;" horiz-adv-x="250" 
d="M74 750h-44v40h44v-40zM176 790h44v-40h-44v40zM98 750l17 70h40l-20 -70h-37z" />
    <glyph glyph-name="Alphatonos" unicode="&#x386;" horiz-adv-x="490" 
d="M15 36h59l124 664h101l117 -664h59v-36h-129l-33 184h-173l-34 -184h-91v36zM147 224h159l-77 437zM60 630l17 70h40l-20 -70h-37z" />
    <glyph glyph-name="anoteleia" unicode="&#x387;" horiz-adv-x="154" 
d="M40 396h74v-90h-74v90z" />
    <glyph glyph-name="Epsilontonos" unicode="&#x388;" horiz-adv-x="387" 
d="M30 214h98v486h180l32 135h37l-40 -171h-135v-450h114v-36h-114v-142h113v-36h-187v178h-98v36zM0 630l17 70h40l-20 -70h-37z" />
    <glyph glyph-name="Etatonos" unicode="&#x389;" horiz-adv-x="471" 
d="M337 184h-146v-184h-74v700h74v-476h146v476h74v-700h-74v184zM0 630l17 70h40l-20 -70h-37z" />
    <glyph glyph-name="Iotatonos" unicode="&#x38a;" horiz-adv-x="251" 
d="M117 700h74v-700h-74v700zM0 630l17 70h40l-20 -70h-37z" />
    <glyph glyph-name="Omicrontonos" unicode="&#x38c;" horiz-adv-x="381" 
d="M205 708q62 0 94 -43.5t32 -124.5v-380q0 -50 -11.5 -82.5t-29.5 -51.5t-40.5 -26.5t-44.5 -7.5t-44.5 7.5t-40.5 26.5t-29.5 51.5t-11.5 82.5v380q0 81 32 124.5t94 43.5zM205 28q52 0 52 85v474q0 43 -15 63.5t-37 20.5t-37 -20.5t-15 -63.5v-474q0 -85 52 -85zM0 630
l17 70h40l-20 -70h-37z" />
    <glyph glyph-name="Upsilontonos" unicode="&#x38e;" horiz-adv-x="418" 
d="M408 664h-25l-96 -356v-308h-74v311l-91 353h-32v36h99l80 -318l86 318h53v-36zM0 630l17 70h40l-20 -70h-37z" />
    <glyph glyph-name="Omegatonos" unicode="&#x38f;" horiz-adv-x="381" 
d="M236 36q8 7 12 23t6 35.5t2.5 40.5t0.5 38v414q0 43 -15 63.5t-37 20.5t-37 -20.5t-15 -63.5v-414q0 -17 0.5 -38t2.5 -40.5t6 -35.5t12 -23v-44h-95v44h54q-20 25 -37 70.5t-17 113.5v320q0 81 32 124.5t94 43.5t94 -43.5t32 -124.5v-320q0 -68 -17 -113.5t-37 -70.5h54
v-44h-95v44zM0 630l17 70h40l-20 -70h-37z" />
    <glyph glyph-name="iotadieresistonos" unicode="&#x390;" horiz-adv-x="194" 
d="M60 700h74v-700h-74v700zM46 750h-44v40h44v-40zM148 790h44v-40h-44v40zM70 750l17 70h40l-20 -70h-37z" />
    <glyph glyph-name="Alpha" unicode="&#x391;" horiz-adv-x="490" 
d="M15 36h59l124 664h101l117 -664h59v-36h-129l-33 184h-173l-34 -184h-91v36zM147 224h159l-77 437z" />
    <glyph glyph-name="Beta" unicode="&#x392;" horiz-adv-x="330" 
d="M60 700h133q17 0 34.5 -6t31.5 -18.5t22.5 -32t8.5 -47.5v-143q0 -50 -24 -72.5t-52 -22.5v-10q28 0 52 -22.5t24 -72.5v-149q0 -28 -8.5 -47.5t-22.5 -32t-31.5 -18.5t-34.5 -6h-133v700zM134 36h47q13 0 25 8t12 22v229q0 23 -11 31.5t-22 8.5h-51v-299zM134 371h51
q11 0 22 8.5t11 31.5v223q0 14 -12 22t-25 8h-47v-293z" />
    <glyph glyph-name="Gamma" unicode="&#x393;" horiz-adv-x="297" 
d="M60 700h207v-36h-133v-664h-74v700z" />
    <glyph glyph-name="uni0394" unicode="&#x394;" horiz-adv-x="396" 
d="M151 700h101l124 -700h-356zM65 36h227l-110 626z" />
    <glyph glyph-name="Epsilon" unicode="&#x395;" horiz-adv-x="387" 
d="M30 214h98v486h180l32 135h37l-40 -171h-135v-450h114v-36h-114v-142h113v-36h-187v178h-98v36z" />
    <glyph glyph-name="Zeta" unicode="&#x396;" horiz-adv-x="331" 
d="M40 700h241l-165 -664h185v-36h-271l165 664h-155v36z" />
    <glyph glyph-name="Eta" unicode="&#x397;" horiz-adv-x="414" 
d="M280 184h-146v-184h-74v700h74v-476h146v476h74v-700h-74v184z" />
    <glyph glyph-name="Theta" unicode="&#x398;" 
d="M176 708q62 0 94 -43.5t32 -124.5v-380q0 -50 -11.5 -82.5t-29.5 -51.5t-40.5 -26.5t-44.5 -7.5t-44.5 7.5t-40.5 26.5t-29.5 51.5t-11.5 82.5v380q0 81 32 124.5t94 43.5zM176 28q52 0 52 85v474q0 43 -15 63.5t-37 20.5t-37 -20.5t-15 -63.5v-474q0 -85 52 -85z
M144 390h64v-40h-64v40z" />
    <glyph glyph-name="Iota" unicode="&#x399;" horiz-adv-x="194" 
d="M60 700h74v-700h-74v700z" />
    <glyph glyph-name="Kappa" unicode="&#x39a;" horiz-adv-x="347" 
d="M290 700v-247q0 -45 -21.5 -70.5t-54.5 -25.5v-11q33 -1 54.5 -24t21.5 -69v-217h27v-36h-99v295q0 22 -12 31t-25 9h-47v-335h-74v700h74v-329h51q11 0 22 8.5t11 31.5v289h72z" />
    <glyph glyph-name="Lambda" unicode="&#x39b;" horiz-adv-x="490" 
d="M229 662l-123 -662h-91v36h60l123 664h101l118 -664h58v-36h-129z" />
    <glyph glyph-name="Mu" unicode="&#x39c;" horiz-adv-x="601" 
d="M20 36h63v664h108l119 -673l125 673h106v-700h-74v667l-124 -667h-105l-119 672v-672h-99v36z" />
    <glyph glyph-name="Nu" unicode="&#x39d;" horiz-adv-x="429" 
d="M119 667v-667h-99v36h63v664h107l124 -668v668h95v-36h-59v-664h-107z" />
    <glyph glyph-name="Xi" unicode="&#x39e;" horiz-adv-x="324" 
d="M30 60h264v-60h-264v60zM40 700h244v-60h-244v60zM60 386h204v-60h-204v60z" />
    <glyph glyph-name="Omicron" unicode="&#x39f;" 
d="M176 708q62 0 94 -43.5t32 -124.5v-380q0 -50 -11.5 -82.5t-29.5 -51.5t-40.5 -26.5t-44.5 -7.5t-44.5 7.5t-40.5 26.5t-29.5 51.5t-11.5 82.5v380q0 81 32 124.5t94 43.5zM176 28q52 0 52 85v474q0 43 -15 63.5t-37 20.5t-37 -20.5t-15 -63.5v-474q0 -85 52 -85z" />
    <glyph glyph-name="Pi" unicode="&#x3a0;" horiz-adv-x="384" 
d="M250 664h-116v-664h-74v700h264v-700h-74v664z" />
    <glyph glyph-name="Rho" unicode="&#x3a1;" horiz-adv-x="330" 
d="M60 700h133q17 0 34.5 -6t31.5 -18.5t22.5 -32t8.5 -47.5v-159q0 -59 -26.5 -86t-59.5 -27h-70v-324h-74v700zM134 360h51q11 0 22 8.5t11 31.5v224q0 22 -12 31t-25 9h-47v-304z" />
    <glyph glyph-name="Sigma" unicode="&#x3a3;" horiz-adv-x="331" 
d="M116 36h185v-36h-271l109 350l-109 350h241v-36h-155l98 -314z" />
    <glyph glyph-name="Tau" unicode="&#x3a4;" horiz-adv-x="370" 
d="M20 700h330v-36h-128v-664h-74v664h-128v36z" />
    <glyph glyph-name="Upsilon" unicode="&#x3a5;" horiz-adv-x="338" 
d="M328 664h-25l-96 -356v-308h-74v311l-91 353h-32v36h99l80 -318l86 318h53v-36z" />
    <glyph glyph-name="Phi" unicode="&#x3a6;" horiz-adv-x="446" 
d="M186 92h-14q-22 0 -43.5 8t-39 27t-28.5 51.5t-11 81.5v180q0 79 30.5 122.5t89.5 45.5h16v92h74v-92h18q59 0 88.5 -44.5t29.5 -123.5v-180q0 -49 -10.5 -81.5t-27.5 -51.5t-38.5 -27t-43.5 -8h-16v-92h-74v92zM186 571h-15q-20 0 -34.5 -21t-14.5 -63v-274
q0 -85 48 -85h16v443zM260 571v-443h16q48 0 48 85v274q0 42 -14.5 63t-34.5 21h-15z" />
    <glyph glyph-name="Chi" unicode="&#x3a7;" horiz-adv-x="400" 
d="M390 0h-104l-102 302l-115 -302h-59v36h35l122 318l-105 310h-32v36h99l84 -248l96 248h71v-36h-48l-102 -264l124 -364h36v-36z" />
    <glyph glyph-name="Psi" unicode="&#x3a8;" horiz-adv-x="436" 
d="M117 700v-365q0 -85 48 -85h16v450h74v-450h16q48 0 48 85v365h72v-318q0 -49 -10.5 -81.5t-27.5 -51.5t-38.5 -27t-43.5 -8h-16v-214h-74v214h-14q-22 0 -43.5 8t-39 27t-28.5 51.5t-11 81.5v318h72z" />
    <glyph glyph-name="uni03A9" unicode="&#x3a9;" 
d="M207 36q8 7 12 23t6 35.5t2.5 40.5t0.5 38v414q0 43 -15 63.5t-37 20.5t-37 -20.5t-15 -63.5v-414q0 -17 0.5 -38t2.5 -40.5t6 -35.5t12 -23v-44h-95v44h54q-20 25 -37 70.5t-17 113.5v320q0 81 32 124.5t94 43.5t94 -43.5t32 -124.5v-320q0 -68 -17 -113.5t-37 -70.5h54
v-44h-95v44z" />
    <glyph glyph-name="Iotadieresis" unicode="&#x3aa;" horiz-adv-x="194" 
d="M60 700h74v-700h-74v700zM76 750h-44v40h44v-40zM118 790h44v-40h-44v40z" />
    <glyph glyph-name="Upsilondieresis" unicode="&#x3ab;" horiz-adv-x="338" 
d="M328 664h-25l-96 -356v-308h-74v311l-91 353h-32v36h99l80 -318l86 318h53v-36zM168 750h-44v40h44v-40zM210 790h44v-40h-44v40z" />
    <glyph glyph-name="alphatonos" unicode="&#x3ac;" horiz-adv-x="490" 
d="M15 36h59l124 664h101l117 -664h59v-36h-129l-33 184h-173l-34 -184h-91v36zM147 224h159l-77 437zM226 730l17 70h40l-20 -70h-37z" />
    <glyph glyph-name="epsilontonos" unicode="&#x3ad;" horiz-adv-x="387" 
d="M30 214h98v486h180l32 135h37l-40 -171h-135v-450h114v-36h-114v-142h113v-36h-187v178h-98v36zM205 730l17 70h40l-20 -70h-37z" />
    <glyph glyph-name="etatonos" unicode="&#x3ae;" horiz-adv-x="414" 
d="M280 184h-146v-184h-74v700h74v-476h146v476h74v-700h-74v184zM188 730l17 70h40l-20 -70h-37z" />
    <glyph glyph-name="iotatonos" unicode="&#x3af;" horiz-adv-x="194" 
d="M60 700h74v-700h-74v700zM78 730l17 70h40l-20 -70h-37z" />
    <glyph glyph-name="upsilondieresistonos" unicode="&#x3b0;" horiz-adv-x="338" 
d="M328 664h-25l-96 -356v-308h-74v311l-91 353h-32v36h99l80 -318l86 318h53v-36zM138 750h-44v40h44v-40zM240 790h44v-40h-44v40zM162 750l17 70h40l-20 -70h-37z" />
    <glyph glyph-name="alpha" unicode="&#x3b1;" horiz-adv-x="490" 
d="M15 36h59l124 664h101l117 -664h59v-36h-129l-33 184h-173l-34 -184h-91v36zM147 224h159l-77 437z" />
    <glyph glyph-name="beta" unicode="&#x3b2;" horiz-adv-x="330" 
d="M60 700h133q17 0 34.5 -6t31.5 -18.5t22.5 -32t8.5 -47.5v-143q0 -50 -24 -72.5t-52 -22.5v-10q28 0 52 -22.5t24 -72.5v-149q0 -28 -8.5 -47.5t-22.5 -32t-31.5 -18.5t-34.5 -6h-133v700zM134 36h47q13 0 25 8t12 22v229q0 23 -11 31.5t-22 8.5h-51v-299zM134 371h51
q11 0 22 8.5t11 31.5v223q0 14 -12 22t-25 8h-47v-293z" />
    <glyph glyph-name="gamma" unicode="&#x3b3;" horiz-adv-x="297" 
d="M60 700h207v-36h-133v-664h-74v700z" />
    <glyph glyph-name="delta" unicode="&#x3b4;" horiz-adv-x="396" 
d="M151 700h101l124 -700h-356zM65 36h227l-110 626z" />
    <glyph glyph-name="epsilon" unicode="&#x3b5;" horiz-adv-x="387" 
d="M30 214h98v486h180l32 135h37l-40 -171h-135v-450h114v-36h-114v-142h113v-36h-187v178h-98v36z" />
    <glyph glyph-name="zeta" unicode="&#x3b6;" horiz-adv-x="331" 
d="M40 700h241l-165 -664h185v-36h-271l165 664h-155v36z" />
    <glyph glyph-name="eta" unicode="&#x3b7;" horiz-adv-x="414" 
d="M280 184h-146v-184h-74v700h74v-476h146v476h74v-700h-74v184z" />
    <glyph glyph-name="theta" unicode="&#x3b8;" 
d="M176 708q62 0 94 -43.5t32 -124.5v-380q0 -50 -11.5 -82.5t-29.5 -51.5t-40.5 -26.5t-44.5 -7.5t-44.5 7.5t-40.5 26.5t-29.5 51.5t-11.5 82.5v380q0 81 32 124.5t94 43.5zM176 28q52 0 52 85v474q0 43 -15 63.5t-37 20.5t-37 -20.5t-15 -63.5v-474q0 -85 52 -85z
M144 390h64v-40h-64v40z" />
    <glyph glyph-name="iota" unicode="&#x3b9;" horiz-adv-x="194" 
d="M60 700h74v-700h-74v700z" />
    <glyph glyph-name="kappa" unicode="&#x3ba;" horiz-adv-x="347" 
d="M290 700v-247q0 -45 -21.5 -70.5t-54.5 -25.5v-11q33 -1 54.5 -24t21.5 -69v-217h27v-36h-99v295q0 22 -12 31t-25 9h-47v-335h-74v700h74v-329h51q11 0 22 8.5t11 31.5v289h72z" />
    <glyph glyph-name="lambda" unicode="&#x3bb;" horiz-adv-x="490" 
d="M229 662l-123 -662h-91v36h60l123 664h101l118 -664h58v-36h-129z" />
    <glyph glyph-name="uni03BC" unicode="&#x3bc;" horiz-adv-x="601" 
d="M20 36h63v664h108l119 -673l125 673h106v-700h-74v667l-124 -667h-105l-119 672v-672h-99v36z" />
    <glyph glyph-name="nu" unicode="&#x3bd;" horiz-adv-x="429" 
d="M119 667v-667h-99v36h63v664h107l124 -668v668h95v-36h-59v-664h-107z" />
    <glyph glyph-name="xi" unicode="&#x3be;" horiz-adv-x="324" 
d="M30 60h264v-60h-264v60zM40 700h244v-60h-244v60zM60 386h204v-60h-204v60z" />
    <glyph glyph-name="omicron" unicode="&#x3bf;" 
d="M176 708q62 0 94 -43.5t32 -124.5v-380q0 -50 -11.5 -82.5t-29.5 -51.5t-40.5 -26.5t-44.5 -7.5t-44.5 7.5t-40.5 26.5t-29.5 51.5t-11.5 82.5v380q0 81 32 124.5t94 43.5zM176 28q52 0 52 85v474q0 43 -15 63.5t-37 20.5t-37 -20.5t-15 -63.5v-474q0 -85 52 -85z" />
    <glyph glyph-name="pi" unicode="&#x3c0;" horiz-adv-x="384" 
d="M250 664h-116v-664h-74v700h264v-700h-74v664z" />
    <glyph glyph-name="rho" unicode="&#x3c1;" horiz-adv-x="330" 
d="M60 700h133q17 0 34.5 -6t31.5 -18.5t22.5 -32t8.5 -47.5v-159q0 -59 -26.5 -86t-59.5 -27h-70v-324h-74v700zM134 360h51q11 0 22 8.5t11 31.5v224q0 22 -12 31t-25 9h-47v-304z" />
    <glyph glyph-name="uni03C2" unicode="&#x3c2;" horiz-adv-x="331" 
d="M116 36h185v-36h-271l109 350l-109 350h241v-36h-155l98 -314z" />
    <glyph glyph-name="sigma" unicode="&#x3c3;" horiz-adv-x="331" 
d="M116 36h185v-36h-271l109 350l-109 350h241v-36h-155l98 -314z" />
    <glyph glyph-name="tau" unicode="&#x3c4;" horiz-adv-x="370" 
d="M20 700h330v-36h-128v-664h-74v664h-128v36z" />
    <glyph glyph-name="upsilon" unicode="&#x3c5;" horiz-adv-x="338" 
d="M328 664h-25l-96 -356v-308h-74v311l-91 353h-32v36h99l80 -318l86 318h53v-36z" />
    <glyph glyph-name="phi" unicode="&#x3c6;" horiz-adv-x="446" 
d="M186 92h-14q-22 0 -43.5 8t-39 27t-28.5 51.5t-11 81.5v180q0 79 30.5 122.5t89.5 45.5h16v92h74v-92h18q59 0 88.5 -44.5t29.5 -123.5v-180q0 -49 -10.5 -81.5t-27.5 -51.5t-38.5 -27t-43.5 -8h-16v-92h-74v92zM186 571h-15q-20 0 -34.5 -21t-14.5 -63v-274
q0 -85 48 -85h16v443zM260 571v-443h16q48 0 48 85v274q0 42 -14.5 63t-34.5 21h-15z" />
    <glyph glyph-name="chi" unicode="&#x3c7;" horiz-adv-x="400" 
d="M390 0h-104l-102 302l-115 -302h-59v36h35l122 318l-105 310h-32v36h99l84 -248l96 248h71v-36h-48l-102 -264l124 -364h36v-36z" />
    <glyph glyph-name="psi" unicode="&#x3c8;" horiz-adv-x="436" 
d="M117 700v-365q0 -85 48 -85h16v450h74v-450h16q48 0 48 85v365h72v-318q0 -49 -10.5 -81.5t-27.5 -51.5t-38.5 -27t-43.5 -8h-16v-214h-74v214h-14q-22 0 -43.5 8t-39 27t-28.5 51.5t-11 81.5v318h72z" />
    <glyph glyph-name="omega" unicode="&#x3c9;" 
d="M207 36q8 7 12 23t6 35.5t2.5 40.5t0.5 38v414q0 43 -15 63.5t-37 20.5t-37 -20.5t-15 -63.5v-414q0 -17 0.5 -38t2.5 -40.5t6 -35.5t12 -23v-44h-95v44h54q-20 25 -37 70.5t-17 113.5v320q0 81 32 124.5t94 43.5t94 -43.5t32 -124.5v-320q0 -68 -17 -113.5t-37 -70.5h54
v-44h-95v44z" />
    <glyph glyph-name="iotadieresis" unicode="&#x3ca;" horiz-adv-x="194" 
d="M60 700h74v-700h-74v700zM76 750h-44v40h44v-40zM118 790h44v-40h-44v40z" />
    <glyph glyph-name="upsilondieresis" unicode="&#x3cb;" horiz-adv-x="338" 
d="M328 664h-25l-96 -356v-308h-74v311l-91 353h-32v36h99l80 -318l86 318h53v-36zM168 750h-44v40h44v-40zM210 790h44v-40h-44v40z" />
    <glyph glyph-name="omicrontonos" unicode="&#x3cc;" 
d="M176 708q62 0 94 -43.5t32 -124.5v-380q0 -50 -11.5 -82.5t-29.5 -51.5t-40.5 -26.5t-44.5 -7.5t-44.5 7.5t-40.5 26.5t-29.5 51.5t-11.5 82.5v380q0 81 32 124.5t94 43.5zM176 28q52 0 52 85v474q0 43 -15 63.5t-37 20.5t-37 -20.5t-15 -63.5v-474q0 -85 52 -85z
M157 740l17 70h40l-20 -70h-37z" />
    <glyph glyph-name="upsilontonos" unicode="&#x3cd;" horiz-adv-x="338" 
d="M328 664h-25l-96 -356v-308h-74v311l-91 353h-32v36h99l80 -318l86 318h53v-36zM161 730l17 70h40l-20 -70h-37z" />
    <glyph glyph-name="omegatonos" unicode="&#x3ce;" 
d="M207 36q8 7 12 23t6 35.5t2.5 40.5t0.5 38v414q0 43 -15 63.5t-37 20.5t-37 -20.5t-15 -63.5v-414q0 -17 0.5 -38t2.5 -40.5t6 -35.5t12 -23v-44h-95v44h54q-20 25 -37 70.5t-17 113.5v320q0 81 32 124.5t94 43.5t94 -43.5t32 -124.5v-320q0 -68 -17 -113.5t-37 -70.5h54
v-44h-95v44zM157 740l17 70h40l-20 -70h-37z" />
    <glyph glyph-name="uni0400" unicode="&#x400;" horiz-adv-x="367" 
d="M30 214h98v486h209v-36h-135v-450h114v-36h-114v-142h113v-36h-187v178h-98v36zM217 730l-20 70h40l17 -70h-37z" />
    <glyph glyph-name="uni0401" unicode="&#x401;" horiz-adv-x="367" 
d="M30 214h98v486h209v-36h-135v-450h114v-36h-114v-142h113v-36h-187v178h-98v36zM212 750h-44v40h44v-40zM254 790h44v-40h-44v40z" />
    <glyph glyph-name="uni0402" unicode="&#x402;" horiz-adv-x="438" 
d="M280 0h26v318q0 23 -10 31.5t-23 8.5h-51v-358h-74v664h-128v36h338v-36h-136v-281h60q16 0 33.5 -6t31 -19t22.5 -34t9 -50v-310h-98v36z" />
    <glyph glyph-name="uni0403" unicode="&#x403;" horiz-adv-x="297" 
d="M60 700h207v-36h-133v-664h-74v700zM132 730l17 70h40l-20 -70h-37z" />
    <glyph glyph-name="uni0404" unicode="&#x404;" horiz-adv-x="308" 
d="M175 -8q-22 0 -44.5 7.5t-40.5 26.5t-29 51.5t-11 82.5v380q0 81 31.5 124.5t93.5 43.5q19 0 33 -5.5t24 -11.5q11 -8 19 -17l24 34l13 -9l-51 -73q-8 16 -22 30.5t-40 14.5q-22 0 -36.5 -20.5t-14.5 -63.5v-207h119v-40h-119v-227q0 -85 60 -85q59 0 59 84h36
q0 -59 -30.5 -89.5t-73.5 -30.5z" />
    <glyph glyph-name="uni0405" unicode="&#x405;" horiz-adv-x="327" 
d="M189 284q4 -25 5 -48t1 -45q0 -33 -7 -66.5t-22 -61.5t-39 -45.5t-58 -17.5h-49v36h49q26 0 41 30t15 84q0 30 -3 60.5t-8 60.5l-26 164q-5 29 -6.5 56.5t-1.5 52.5q0 22 7.5 49.5t22.5 52t38.5 41.5t55.5 17q24 0 42.5 -9t32.5 -22l23 29l15 -12l-49 -64q-8 10 -18 19
q-8 7 -20.5 13t-26.5 6q-20 0 -39 -19.5t-19 -54.5q0 -32 6 -68t12 -74z" />
    <glyph glyph-name="uni0406" unicode="&#x406;" horiz-adv-x="194" 
d="M60 700h74v-700h-74v700z" />
    <glyph glyph-name="uni0407" unicode="&#x407;" horiz-adv-x="194" 
d="M60 700h74v-700h-74v700zM76 750h-44v40h44v-40zM118 790h44v-40h-44v40z" />
    <glyph glyph-name="uni0408" unicode="&#x408;" horiz-adv-x="319" 
d="M259 160q0 -50 -11 -82.5t-29 -51.5t-40 -26.5t-44 -7.5q-44 0 -74.5 30.5t-30.5 89.5h36q0 -84 59 -84q60 0 60 85v551h-119v36h193v-540z" />
    <glyph glyph-name="uni0409" unicode="&#x409;" horiz-adv-x="531" 
d="M261 664h-49q-45 0 -61.5 -19t-16.5 -68v-577h-114v36h63v560q0 28 9 47.5t23.5 32t33.5 18.5t40 6h146v-324h70q33 0 59.5 -27t26.5 -86v-159q0 -28 -8.5 -47.5t-22.5 -32t-31.5 -18.5t-34.5 -6h-133v664zM335 36h47q13 0 25 9t12 31v221q0 23 -11 31.5t-22 8.5h-51
v-301z" />
    <glyph glyph-name="uni040A" unicode="&#x40a;" horiz-adv-x="550" 
d="M280 184h-146v-184h-74v700h74v-476h146v476h74v-324h70q33 0 59.5 -27t26.5 -86v-159q0 -28 -8.5 -47.5t-22.5 -32t-31.5 -18.5t-34.5 -6h-133v184zM354 36h47q13 0 25 9t12 31v221q0 23 -11 31.5t-22 8.5h-51v-301z" />
    <glyph glyph-name="uni040B" unicode="&#x40b;" horiz-adv-x="425" 
d="M282 383q16 0 33.5 -6t31 -19t22.5 -34t9 -50v-238h27v-36h-99v318q0 23 -10 31.5t-23 8.5h-51v-358h-74v664h-128v36h338v-36h-136v-281h60z" />
    <glyph glyph-name="uni040C" unicode="&#x40c;" horiz-adv-x="347" 
d="M156 730l17 70h40l-20 -70h-37zM290 700v-247q0 -45 -21.5 -70.5t-54.5 -25.5v-11q33 -1 54.5 -24t21.5 -69v-217h27v-36h-99v295q0 22 -12 31t-25 9h-47v-335h-74v700h74v-329h51q11 0 22 8.5t11 31.5v289h72z" />
    <glyph glyph-name="uni040D" unicode="&#x40d;" horiz-adv-x="414" 
d="M280 504l-146 -423v-81h-74v700h74v-503l146 422v81h74v-700h-74v504zM188 730l-20 70h40l17 -70h-37z" />
    <glyph glyph-name="uni040E" unicode="&#x40e;" horiz-adv-x="440" 
d="M197 139l-129 525h-58v36h128l98 -409l103 409h91v-36h-60l-169 -664h-107v36h77zM193 810q3 -12 8 -21q5 -8 13 -14.5t21 -6.5t21 6.5t13 14.5q5 9 8 21h37q-5 -20 -16 -35q-9 -14 -24.5 -24.5t-38.5 -10.5q-24 0 -39 10.5t-24 24.5q-11 15 -16 35h37z" />
    <glyph glyph-name="uni040F" unicode="&#x40f;" horiz-adv-x="414" 
d="M182 0h-122v700h74v-664h146v664h74v-700h-122v-136h-50v136z" />
    <glyph glyph-name="uni0410" unicode="&#x410;" horiz-adv-x="490" 
d="M15 36h59l124 664h101l117 -664h59v-36h-129l-33 184h-173l-34 -184h-91v36zM147 224h159l-77 437z" />
    <glyph glyph-name="uni0411" unicode="&#x411;" horiz-adv-x="332" 
d="M134 36h47q13 0 25 8t12 22v252q0 23 -11 31.5t-22 8.5h-51v-322zM134 664v-281h60q16 0 33.5 -6t31 -19t22.5 -34t9 -50v-170q0 -28 -8.5 -47.5t-22.5 -32t-31.5 -18.5t-34.5 -6h-133v700h163l32 135h37l-40 -171h-118z" />
    <glyph glyph-name="uni0412" unicode="&#x412;" horiz-adv-x="330" 
d="M60 700h133q17 0 34.5 -6t31.5 -18.5t22.5 -32t8.5 -47.5v-143q0 -50 -24 -72.5t-52 -22.5v-10q28 0 52 -22.5t24 -72.5v-149q0 -28 -8.5 -47.5t-22.5 -32t-31.5 -18.5t-34.5 -6h-133v700zM134 36h47q13 0 25 8t12 22v229q0 23 -11 31.5t-22 8.5h-51v-299zM134 371h51
q11 0 22 8.5t11 31.5v223q0 14 -12 22t-25 8h-47v-293z" />
    <glyph glyph-name="uni0413" unicode="&#x413;" horiz-adv-x="297" 
d="M60 700h207v-36h-133v-664h-74v700z" />
    <glyph glyph-name="uni0414" unicode="&#x414;" horiz-adv-x="392" 
d="M20 36h50v560q0 28 9 47.5t23.5 32t33.5 18.5t40 6h146v-664h50v-172h-50v136h-252v-136h-50v172zM199 664q-45 0 -61.5 -19t-16.5 -68v-541h127v628h-49z" />
    <glyph glyph-name="uni0415" unicode="&#x415;" horiz-adv-x="387" 
d="M30 214h98v486h180l32 135h37l-40 -171h-135v-450h114v-36h-114v-142h113v-36h-187v178h-98v36z" />
    <glyph glyph-name="uni0416" unicode="&#x416;" horiz-adv-x="480" 
d="M129 700v-289q0 -23 11 -31.5t22 -8.5h41v329h74v-329h41q11 0 22 8.5t11 31.5v289h72v-247q0 -45 -21.5 -70.5t-54.5 -25.5v-11q33 -1 54.5 -24t21.5 -69v-217h27v-36h-99v295q0 22 -12 31t-25 9h-37v-335h-74v335h-37q-13 0 -25 -9t-12 -31v-295h-99v36h27v217
q0 46 21.5 69t54.5 24v11q-33 0 -54.5 25.5t-21.5 70.5v247h72z" />
    <glyph glyph-name="uni0417" unicode="&#x417;" horiz-adv-x="299" 
d="M125 708q22 0 44 -7.5t40 -26.5t29 -51.5t11 -82.5v-73q0 -29 -7.5 -50t-20 -34t-28.5 -19t-32 -6h-10v-10q16 0 33.5 -6t32 -19t23.5 -34t9 -50v-79q0 -50 -11 -82.5t-29 -51.5t-40 -26.5t-44 -7.5q-44 0 -74.5 30.5t-30.5 89.5h36q0 -38 14.5 -61t44.5 -23q60 0 60 85
v180q0 15 -11 22.5t-22 7.5h-51v60h51q11 0 22 7.5t11 22.5v174q0 85 -56 85q-30 0 -45 -23t-15 -61h-36q0 59 30 89.5t72 30.5z" />
    <glyph glyph-name="uni0418" unicode="&#x418;" horiz-adv-x="414" 
d="M280 504l-146 -423v-81h-74v700h74v-503l146 422v81h74v-700h-74v504z" />
    <glyph glyph-name="uni0419" unicode="&#x419;" horiz-adv-x="414" 
d="M280 504l-146 -423v-81h-74v700h74v-503l146 422v81h74v-700h-74v504zM163 810q3 -12 8 -21q5 -8 13 -14.5t21 -6.5t21 6.5t13 14.5q5 9 8 21h37q-5 -20 -16 -35q-9 -14 -24.5 -24.5t-38.5 -10.5q-24 0 -39 10.5t-24 24.5q-11 15 -16 35h37z" />
    <glyph glyph-name="uni041A" unicode="&#x41a;" horiz-adv-x="347" 
d="M290 700v-247q0 -45 -21.5 -70.5t-54.5 -25.5v-11q33 -1 54.5 -24t21.5 -69v-217h27v-36h-99v295q0 22 -12 31t-25 9h-47v-335h-74v700h74v-329h51q11 0 22 8.5t11 31.5v289h72z" />
    <glyph glyph-name="uni041B" unicode="&#x41b;" horiz-adv-x="395" 
d="M83 596q0 28 9 47.5t23.5 32t33.5 18.5t40 6h146v-700h-74v664h-49q-45 0 -61.5 -19t-16.5 -68v-577h-114v36h63v560z" />
    <glyph glyph-name="uni041C" unicode="&#x41c;" horiz-adv-x="601" 
d="M20 36h63v664h108l119 -673l125 673h106v-700h-74v667l-124 -667h-105l-119 672v-672h-99v36z" />
    <glyph glyph-name="uni041D" unicode="&#x41d;" horiz-adv-x="414" 
d="M280 184h-146v-184h-74v700h74v-476h146v476h74v-700h-74v184z" />
    <glyph glyph-name="uni041E" unicode="&#x41e;" 
d="M176 708q62 0 94 -43.5t32 -124.5v-380q0 -50 -11.5 -82.5t-29.5 -51.5t-40.5 -26.5t-44.5 -7.5t-44.5 7.5t-40.5 26.5t-29.5 51.5t-11.5 82.5v380q0 81 32 124.5t94 43.5zM176 28q52 0 52 85v474q0 43 -15 63.5t-37 20.5t-37 -20.5t-15 -63.5v-474q0 -85 52 -85z" />
    <glyph glyph-name="uni041F" unicode="&#x41f;" horiz-adv-x="384" 
d="M250 664h-116v-664h-74v700h264v-700h-74v664z" />
    <glyph glyph-name="uni0420" unicode="&#x420;" horiz-adv-x="330" 
d="M60 700h133q17 0 34.5 -6t31.5 -18.5t22.5 -32t8.5 -47.5v-159q0 -59 -26.5 -86t-59.5 -27h-70v-324h-74v700zM134 360h51q11 0 22 8.5t11 31.5v224q0 22 -12 31t-25 9h-47v-304z" />
    <glyph glyph-name="uni0421" unicode="&#x421;" horiz-adv-x="308" 
d="M175 -8q-22 0 -44.5 7.5t-40.5 26.5t-29 51.5t-11 82.5v380q0 81 31.5 124.5t93.5 43.5q19 0 33 -5.5t24 -11.5q11 -8 19 -17l24 34l13 -9l-51 -73q-8 16 -22 30.5t-40 14.5q-22 0 -36.5 -20.5t-14.5 -63.5v-474q0 -85 60 -85q59 0 59 84h36q0 -59 -30.5 -89.5
t-73.5 -30.5z" />
    <glyph glyph-name="uni0422" unicode="&#x422;" horiz-adv-x="370" 
d="M20 700h330v-36h-128v-664h-74v664h-128v36z" />
    <glyph glyph-name="uni0423" unicode="&#x423;" horiz-adv-x="440" 
d="M197 139l-129 525h-58v36h128l98 -409l103 409h91v-36h-60l-169 -664h-107v36h77z" />
    <glyph glyph-name="uni0424" unicode="&#x424;" horiz-adv-x="446" 
d="M186 92h-14q-22 0 -43.5 8t-39 27t-28.5 51.5t-11 81.5v180q0 79 30.5 122.5t89.5 45.5h16v92h74v-92h18q59 0 88.5 -44.5t29.5 -123.5v-180q0 -49 -10.5 -81.5t-27.5 -51.5t-38.5 -27t-43.5 -8h-16v-92h-74v92zM186 571h-15q-20 0 -34.5 -21t-14.5 -63v-274
q0 -85 48 -85h16v443zM260 571v-443h16q48 0 48 85v274q0 42 -14.5 63t-34.5 21h-15z" />
    <glyph glyph-name="uni0425" unicode="&#x425;" horiz-adv-x="400" 
d="M390 0h-104l-102 302l-115 -302h-59v36h35l122 318l-105 310h-32v36h99l84 -248l96 248h71v-36h-48l-102 -264l124 -364h36v-36z" />
    <glyph glyph-name="uni0426" unicode="&#x426;" horiz-adv-x="394" 
d="M324 0h-264v700h74v-664h116v664h74v-664h50v-172h-50v136z" />
    <glyph glyph-name="uni0427" unicode="&#x427;" horiz-adv-x="330" 
d="M112 700v-299q0 -23 11 -31.5t22 -8.5h51v339h74v-700h-74v322h-70q-33 0 -59.5 27t-26.5 86v265h72z" />
    <glyph glyph-name="uni0428" unicode="&#x428;" horiz-adv-x="490" 
d="M282 36h74v664h74v-700h-370v700h74v-664h74v664h74v-664z" />
    <glyph glyph-name="uni0429" unicode="&#x429;" horiz-adv-x="500" 
d="M430 0h-370v700h74v-664h74v664h74v-664h74v664h74v-664h50v-172h-50v136z" />
    <glyph glyph-name="uni042A" unicode="&#x42a;" horiz-adv-x="373" 
d="M20 700h157v-327h70q33 0 59.5 -26t26.5 -84v-159q0 -28 -8.5 -47.5t-22.5 -32t-31.5 -18.5t-34.5 -6h-133v664h-83v36zM177 36h47q13 0 25 9t12 31v221q0 23 -11 31.5t-22 8.5h-51v-301z" />
    <glyph glyph-name="uni042B" unicode="&#x42b;" horiz-adv-x="494" 
d="M60 700h74v-327h70q33 0 59.5 -26t26.5 -84v-159q0 -28 -8.5 -47.5t-22.5 -32t-31.5 -18.5t-34.5 -6h-133v700zM134 36h47q13 0 25 9t12 31v221q0 23 -11 31.5t-22 8.5h-51v-301zM360 700h74v-700h-74v700z" />
    <glyph glyph-name="uni042C" unicode="&#x42c;" horiz-adv-x="330" 
d="M60 700h74v-327h70q33 0 59.5 -26t26.5 -84v-159q0 -28 -8.5 -47.5t-22.5 -32t-31.5 -18.5t-34.5 -6h-133v700zM134 36h47q13 0 25 9t12 31v221q0 23 -11 31.5t-22 8.5h-51v-301z" />
    <glyph glyph-name="uni042D" unicode="&#x42d;" horiz-adv-x="299" 
d="M124 708q62 0 93.5 -43.5t31.5 -124.5v-380q0 -50 -11 -82.5t-29 -51.5t-40.5 -26.5t-44.5 -7.5q-43 0 -73.5 30.5t-30.5 89.5h36q0 -84 59 -84q60 0 60 85v227h-119v40h119v207q0 43 -15 64t-41 21q-30 0 -45 -23t-15 -61h-36q0 59 29.5 89.5t71.5 30.5z" />
    <glyph glyph-name="uni042E" unicode="&#x42e;" horiz-adv-x="526" 
d="M350 708q62 0 94 -43.5t32 -124.5v-380q0 -50 -11.5 -82.5t-29.5 -51.5t-40.5 -26.5t-44.5 -7.5t-44.5 7.5t-40.5 26.5t-29.5 51.5t-11.5 82.5v190h-90v-350h-74v700h74v-310h90v150q0 81 32 124.5t94 43.5zM350 28q52 0 52 85v474q0 43 -15 63.5t-37 20.5t-37 -20.5
t-15 -63.5v-474q0 -85 52 -85z" />
    <glyph glyph-name="uni042F" unicode="&#x42f;" horiz-adv-x="347" 
d="M287 0h-74v335h-51q-13 0 -23 -9t-10 -31v-295h-99v36h27v217q0 50 24 71.5t52 22.5v11q-28 0 -52 22.5t-24 72.5v143q0 28 8.5 47.5t22.5 32t31.5 18.5t34.5 6h133v-700zM213 664h-47q-13 0 -25 -9t-12 -31v-213q0 -23 11 -31.5t22 -8.5h51v293z" />
    <glyph glyph-name="uni0430" unicode="&#x430;" horiz-adv-x="490" 
d="M15 36h59l124 664h101l117 -664h59v-36h-129l-33 184h-173l-34 -184h-91v36zM147 224h159l-77 437z" />
    <glyph glyph-name="uni0431" unicode="&#x431;" horiz-adv-x="332" 
d="M134 36h47q13 0 25 8t12 22v252q0 23 -11 31.5t-22 8.5h-51v-322zM134 664v-281h60q16 0 33.5 -6t31 -19t22.5 -34t9 -50v-170q0 -28 -8.5 -47.5t-22.5 -32t-31.5 -18.5t-34.5 -6h-133v700h163l32 135h37l-40 -171h-118z" />
    <glyph glyph-name="uni0432" unicode="&#x432;" horiz-adv-x="330" 
d="M60 700h133q17 0 34.5 -6t31.5 -18.5t22.5 -32t8.5 -47.5v-143q0 -50 -24 -72.5t-52 -22.5v-10q28 0 52 -22.5t24 -72.5v-149q0 -28 -8.5 -47.5t-22.5 -32t-31.5 -18.5t-34.5 -6h-133v700zM134 36h47q13 0 25 8t12 22v229q0 23 -11 31.5t-22 8.5h-51v-299zM134 371h51
q11 0 22 8.5t11 31.5v223q0 14 -12 22t-25 8h-47v-293z" />
    <glyph glyph-name="uni0433" unicode="&#x433;" horiz-adv-x="297" 
d="M60 700h207v-36h-133v-664h-74v700z" />
    <glyph glyph-name="uni0434" unicode="&#x434;" horiz-adv-x="392" 
d="M20 36h50v560q0 28 9 47.5t23.5 32t33.5 18.5t40 6h146v-664h50v-172h-50v136h-252v-136h-50v172zM199 664q-45 0 -61.5 -19t-16.5 -68v-541h127v628h-49z" />
    <glyph glyph-name="uni0435" unicode="&#x435;" horiz-adv-x="387" 
d="M30 214h98v486h180l32 135h37l-40 -171h-135v-450h114v-36h-114v-142h113v-36h-187v178h-98v36z" />
    <glyph glyph-name="uni0436" unicode="&#x436;" horiz-adv-x="480" 
d="M129 700v-289q0 -23 11 -31.5t22 -8.5h41v329h74v-329h41q11 0 22 8.5t11 31.5v289h72v-247q0 -45 -21.5 -70.5t-54.5 -25.5v-11q33 -1 54.5 -24t21.5 -69v-217h27v-36h-99v295q0 22 -12 31t-25 9h-37v-335h-74v335h-37q-13 0 -25 -9t-12 -31v-295h-99v36h27v217
q0 46 21.5 69t54.5 24v11q-33 0 -54.5 25.5t-21.5 70.5v247h72z" />
    <glyph glyph-name="uni0437" unicode="&#x437;" horiz-adv-x="299" 
d="M125 708q22 0 44 -7.5t40 -26.5t29 -51.5t11 -82.5v-73q0 -29 -7.5 -50t-20 -34t-28.5 -19t-32 -6h-10v-10q16 0 33.5 -6t32 -19t23.5 -34t9 -50v-79q0 -50 -11 -82.5t-29 -51.5t-40 -26.5t-44 -7.5q-44 0 -74.5 30.5t-30.5 89.5h36q0 -38 14.5 -61t44.5 -23q60 0 60 85
v180q0 15 -11 22.5t-22 7.5h-51v60h51q11 0 22 7.5t11 22.5v174q0 85 -56 85q-30 0 -45 -23t-15 -61h-36q0 59 30 89.5t72 30.5z" />
    <glyph glyph-name="uni0438" unicode="&#x438;" horiz-adv-x="414" 
d="M280 504l-146 -423v-81h-74v700h74v-503l146 422v81h74v-700h-74v504z" />
    <glyph glyph-name="uni0439" unicode="&#x439;" horiz-adv-x="414" 
d="M280 504l-146 -423v-81h-74v700h74v-503l146 422v81h74v-700h-74v504zM163 810q3 -12 8 -21q5 -8 13 -14.5t21 -6.5t21 6.5t13 14.5q5 9 8 21h37q-5 -20 -16 -35q-9 -14 -24.5 -24.5t-38.5 -10.5q-24 0 -39 10.5t-24 24.5q-11 15 -16 35h37z" />
    <glyph glyph-name="uni043A" unicode="&#x43a;" horiz-adv-x="347" 
d="M290 700v-247q0 -45 -21.5 -70.5t-54.5 -25.5v-11q33 -1 54.5 -24t21.5 -69v-217h27v-36h-99v295q0 22 -12 31t-25 9h-47v-335h-74v700h74v-329h51q11 0 22 8.5t11 31.5v289h72z" />
    <glyph glyph-name="uni043B" unicode="&#x43b;" horiz-adv-x="395" 
d="M83 596q0 28 9 47.5t23.5 32t33.5 18.5t40 6h146v-700h-74v664h-49q-45 0 -61.5 -19t-16.5 -68v-577h-114v36h63v560z" />
    <glyph glyph-name="uni043C" unicode="&#x43c;" horiz-adv-x="601" 
d="M20 36h63v664h108l119 -673l125 673h106v-700h-74v667l-124 -667h-105l-119 672v-672h-99v36z" />
    <glyph glyph-name="uni043D" unicode="&#x43d;" horiz-adv-x="414" 
d="M280 184h-146v-184h-74v700h74v-476h146v476h74v-700h-74v184z" />
    <glyph glyph-name="uni043E" unicode="&#x43e;" 
d="M176 708q62 0 94 -43.5t32 -124.5v-380q0 -50 -11.5 -82.5t-29.5 -51.5t-40.5 -26.5t-44.5 -7.5t-44.5 7.5t-40.5 26.5t-29.5 51.5t-11.5 82.5v380q0 81 32 124.5t94 43.5zM176 28q52 0 52 85v474q0 43 -15 63.5t-37 20.5t-37 -20.5t-15 -63.5v-474q0 -85 52 -85z" />
    <glyph glyph-name="uni043F" unicode="&#x43f;" horiz-adv-x="384" 
d="M250 664h-116v-664h-74v700h264v-700h-74v664z" />
    <glyph glyph-name="uni0440" unicode="&#x440;" horiz-adv-x="330" 
d="M60 700h133q17 0 34.5 -6t31.5 -18.5t22.5 -32t8.5 -47.5v-159q0 -59 -26.5 -86t-59.5 -27h-70v-324h-74v700zM134 360h51q11 0 22 8.5t11 31.5v224q0 22 -12 31t-25 9h-47v-304z" />
    <glyph glyph-name="uni0441" unicode="&#x441;" horiz-adv-x="308" 
d="M175 -8q-22 0 -44.5 7.5t-40.5 26.5t-29 51.5t-11 82.5v380q0 81 31.5 124.5t93.5 43.5q19 0 33 -5.5t24 -11.5q11 -8 19 -17l24 34l13 -9l-51 -73q-8 16 -22 30.5t-40 14.5q-22 0 -36.5 -20.5t-14.5 -63.5v-474q0 -85 60 -85q59 0 59 84h36q0 -59 -30.5 -89.5
t-73.5 -30.5z" />
    <glyph glyph-name="uni0442" unicode="&#x442;" horiz-adv-x="370" 
d="M20 700h330v-36h-128v-664h-74v664h-128v36z" />
    <glyph glyph-name="uni0443" unicode="&#x443;" horiz-adv-x="440" 
d="M197 139l-129 525h-58v36h128l98 -409l103 409h91v-36h-60l-169 -664h-107v36h77z" />
    <glyph glyph-name="uni0444" unicode="&#x444;" horiz-adv-x="446" 
d="M186 92h-14q-22 0 -43.5 8t-39 27t-28.5 51.5t-11 81.5v180q0 79 30.5 122.5t89.5 45.5h16v92h74v-92h18q59 0 88.5 -44.5t29.5 -123.5v-180q0 -49 -10.5 -81.5t-27.5 -51.5t-38.5 -27t-43.5 -8h-16v-92h-74v92zM186 571h-15q-20 0 -34.5 -21t-14.5 -63v-274
q0 -85 48 -85h16v443zM260 571v-443h16q48 0 48 85v274q0 42 -14.5 63t-34.5 21h-15z" />
    <glyph glyph-name="uni0445" unicode="&#x445;" horiz-adv-x="400" 
d="M390 0h-104l-102 302l-115 -302h-59v36h35l122 318l-105 310h-32v36h99l84 -248l96 248h71v-36h-48l-102 -264l124 -364h36v-36z" />
    <glyph glyph-name="uni0446" unicode="&#x446;" horiz-adv-x="394" 
d="M324 0h-264v700h74v-664h116v664h74v-664h50v-172h-50v136z" />
    <glyph glyph-name="uni0447" unicode="&#x447;" horiz-adv-x="330" 
d="M112 700v-299q0 -23 11 -31.5t22 -8.5h51v339h74v-700h-74v322h-70q-33 0 -59.5 27t-26.5 86v265h72z" />
    <glyph glyph-name="uni0448" unicode="&#x448;" horiz-adv-x="490" 
d="M282 36h74v664h74v-700h-370v700h74v-664h74v664h74v-664z" />
    <glyph glyph-name="uni0449" unicode="&#x449;" horiz-adv-x="500" 
d="M430 0h-370v700h74v-664h74v664h74v-664h74v664h74v-664h50v-172h-50v136z" />
    <glyph glyph-name="uni044A" unicode="&#x44a;" horiz-adv-x="373" 
d="M20 700h157v-327h70q33 0 59.5 -26t26.5 -84v-159q0 -28 -8.5 -47.5t-22.5 -32t-31.5 -18.5t-34.5 -6h-133v664h-83v36zM177 36h47q13 0 25 9t12 31v221q0 23 -11 31.5t-22 8.5h-51v-301z" />
    <glyph glyph-name="uni044B" unicode="&#x44b;" horiz-adv-x="494" 
d="M60 700h74v-327h70q33 0 59.5 -26t26.5 -84v-159q0 -28 -8.5 -47.5t-22.5 -32t-31.5 -18.5t-34.5 -6h-133v700zM134 36h47q13 0 25 9t12 31v221q0 23 -11 31.5t-22 8.5h-51v-301zM360 700h74v-700h-74v700z" />
    <glyph glyph-name="uni044C" unicode="&#x44c;" horiz-adv-x="330" 
d="M60 700h74v-327h70q33 0 59.5 -26t26.5 -84v-159q0 -28 -8.5 -47.5t-22.5 -32t-31.5 -18.5t-34.5 -6h-133v700zM134 36h47q13 0 25 9t12 31v221q0 23 -11 31.5t-22 8.5h-51v-301z" />
    <glyph glyph-name="uni044D" unicode="&#x44d;" horiz-adv-x="299" 
d="M124 708q62 0 93.5 -43.5t31.5 -124.5v-380q0 -50 -11 -82.5t-29 -51.5t-40.5 -26.5t-44.5 -7.5q-43 0 -73.5 30.5t-30.5 89.5h36q0 -84 59 -84q60 0 60 85v227h-119v40h119v207q0 43 -15 64t-41 21q-30 0 -45 -23t-15 -61h-36q0 59 29.5 89.5t71.5 30.5z" />
    <glyph glyph-name="uni044E" unicode="&#x44e;" horiz-adv-x="526" 
d="M350 708q62 0 94 -43.5t32 -124.5v-380q0 -50 -11.5 -82.5t-29.5 -51.5t-40.5 -26.5t-44.5 -7.5t-44.5 7.5t-40.5 26.5t-29.5 51.5t-11.5 82.5v190h-90v-350h-74v700h74v-310h90v150q0 81 32 124.5t94 43.5zM350 28q52 0 52 85v474q0 43 -15 63.5t-37 20.5t-37 -20.5
t-15 -63.5v-474q0 -85 52 -85z" />
    <glyph glyph-name="uni044F" unicode="&#x44f;" horiz-adv-x="347" 
d="M287 0h-74v335h-51q-13 0 -23 -9t-10 -31v-295h-99v36h27v217q0 50 24 71.5t52 22.5v11q-28 0 -52 22.5t-24 72.5v143q0 28 8.5 47.5t22.5 32t31.5 18.5t34.5 6h133v-700zM213 664h-47q-13 0 -25 -9t-12 -31v-213q0 -23 11 -31.5t22 -8.5h51v293z" />
    <glyph glyph-name="uni0450" unicode="&#x450;" horiz-adv-x="367" 
d="M30 214h98v486h209v-36h-135v-450h114v-36h-114v-142h113v-36h-187v178h-98v36zM217 730l-20 70h40l17 -70h-37z" />
    <glyph glyph-name="uni0451" unicode="&#x451;" horiz-adv-x="367" 
d="M30 214h98v486h209v-36h-135v-450h114v-36h-114v-142h113v-36h-187v178h-98v36zM212 750h-44v40h44v-40zM254 790h44v-40h-44v40z" />
    <glyph glyph-name="uni0452" unicode="&#x452;" horiz-adv-x="438" 
d="M280 0h26v318q0 23 -10 31.5t-23 8.5h-51v-358h-74v664h-128v36h338v-36h-136v-281h60q16 0 33.5 -6t31 -19t22.5 -34t9 -50v-310h-98v36z" />
    <glyph glyph-name="uni0453" unicode="&#x453;" horiz-adv-x="297" 
d="M60 700h207v-36h-133v-664h-74v700zM130 730l17 70h40l-20 -70h-37z" />
    <glyph glyph-name="uni0454" unicode="&#x454;" horiz-adv-x="308" 
d="M175 -8q-22 0 -44.5 7.5t-40.5 26.5t-29 51.5t-11 82.5v380q0 81 31.5 124.5t93.5 43.5q19 0 33 -5.5t24 -11.5q11 -8 19 -17l24 34l13 -9l-51 -73q-8 16 -22 30.5t-40 14.5q-22 0 -36.5 -20.5t-14.5 -63.5v-207h119v-40h-119v-227q0 -85 60 -85q59 0 59 84h36
q0 -59 -30.5 -89.5t-73.5 -30.5z" />
    <glyph glyph-name="uni0455" unicode="&#x455;" horiz-adv-x="327" 
d="M189 284q4 -25 5 -48t1 -45q0 -33 -7 -66.5t-22 -61.5t-39 -45.5t-58 -17.5h-49v36h49q26 0 41 30t15 84q0 30 -3 60.5t-8 60.5l-26 164q-5 29 -6.5 56.5t-1.5 52.5q0 22 7.5 49.5t22.5 52t38.5 41.5t55.5 17q24 0 42.5 -9t32.5 -22l23 29l15 -12l-49 -64q-8 10 -18 19
q-8 7 -20.5 13t-26.5 6q-20 0 -39 -19.5t-19 -54.5q0 -32 6 -68t12 -74z" />
    <glyph glyph-name="uni0456" unicode="&#x456;" horiz-adv-x="194" 
d="M60 700h74v-700h-74v700z" />
    <glyph glyph-name="uni0457" unicode="&#x457;" horiz-adv-x="194" 
d="M60 700h74v-700h-74v700zM76 750h-44v40h44v-40zM118 790h44v-40h-44v40z" />
    <glyph glyph-name="uni0458" unicode="&#x458;" horiz-adv-x="319" 
d="M259 160q0 -50 -11 -82.5t-29 -51.5t-40 -26.5t-44 -7.5q-44 0 -74.5 30.5t-30.5 89.5h36q0 -84 59 -84q60 0 60 85v551h-119v36h193v-540z" />
    <glyph glyph-name="uni0459" unicode="&#x459;" horiz-adv-x="531" 
d="M261 664h-49q-45 0 -61.5 -19t-16.5 -68v-577h-114v36h63v560q0 28 9 47.5t23.5 32t33.5 18.5t40 6h146v-324h70q33 0 59.5 -27t26.5 -86v-159q0 -28 -8.5 -47.5t-22.5 -32t-31.5 -18.5t-34.5 -6h-133v664zM335 36h47q13 0 25 9t12 31v221q0 23 -11 31.5t-22 8.5h-51
v-301z" />
    <glyph glyph-name="uni045A" unicode="&#x45a;" horiz-adv-x="550" 
d="M280 184h-146v-184h-74v700h74v-476h146v476h74v-324h70q33 0 59.5 -27t26.5 -86v-159q0 -28 -8.5 -47.5t-22.5 -32t-31.5 -18.5t-34.5 -6h-133v184zM354 36h47q13 0 25 9t12 31v221q0 23 -11 31.5t-22 8.5h-51v-301z" />
    <glyph glyph-name="uni045B" unicode="&#x45b;" horiz-adv-x="425" 
d="M282 383q16 0 33.5 -6t31 -19t22.5 -34t9 -50v-238h27v-36h-99v318q0 23 -10 31.5t-23 8.5h-51v-358h-74v664h-128v36h338v-36h-136v-281h60z" />
    <glyph glyph-name="uni045C" unicode="&#x45c;" horiz-adv-x="347" 
d="M157 730l17 70h40l-20 -70h-37zM290 700v-247q0 -45 -21.5 -70.5t-54.5 -25.5v-11q33 -1 54.5 -24t21.5 -69v-217h27v-36h-99v295q0 22 -12 31t-25 9h-47v-335h-74v700h74v-329h51q11 0 22 8.5t11 31.5v289h72z" />
    <glyph glyph-name="uni045D" unicode="&#x45d;" horiz-adv-x="414" 
d="M280 504l-146 -423v-81h-74v700h74v-503l146 422v81h74v-700h-74v504zM198 730l-20 70h40l17 -70h-37z" />
    <glyph glyph-name="uni045E" unicode="&#x45e;" horiz-adv-x="440" 
d="M197 139l-129 525h-58v36h128l98 -409l103 409h91v-36h-60l-169 -664h-107v36h77zM193 810q3 -12 8 -21q5 -8 13 -14.5t21 -6.5t21 6.5t13 14.5q5 9 8 21h37q-5 -20 -16 -35q-9 -14 -24.5 -24.5t-38.5 -10.5q-24 0 -39 10.5t-24 24.5q-11 15 -16 35h37z" />
    <glyph glyph-name="uni045F" unicode="&#x45f;" horiz-adv-x="414" 
d="M182 0h-122v700h74v-664h146v664h74v-700h-122v-136h-50v136z" />
    <glyph glyph-name="uni0472" unicode="&#x472;" 
d="M176 708q62 0 94 -43.5t32 -124.5v-380q0 -50 -11.5 -82.5t-29.5 -51.5t-40.5 -26.5t-44.5 -7.5t-44.5 7.5t-40.5 26.5t-29.5 51.5t-11.5 82.5v380q0 81 32 124.5t94 43.5zM176 28q52 0 52 85v237h-104v-237q0 -85 52 -85zM124 390h104v197q0 43 -15 63.5t-37 20.5
t-37 -20.5t-15 -63.5v-197z" />
    <glyph glyph-name="uni0473" unicode="&#x473;" 
d="M176 708q62 0 94 -43.5t32 -124.5v-380q0 -50 -11.5 -82.5t-29.5 -51.5t-40.5 -26.5t-44.5 -7.5t-44.5 7.5t-40.5 26.5t-29.5 51.5t-11.5 82.5v380q0 81 32 124.5t94 43.5zM176 28q52 0 52 85v237h-104v-237q0 -85 52 -85zM124 390h104v197q0 43 -15 63.5t-37 20.5
t-37 -20.5t-15 -63.5v-197z" />
    <glyph glyph-name="uni0490" unicode="&#x490;" horiz-adv-x="297" 
d="M60 700h157v50h50v-86h-133v-664h-74v700z" />
    <glyph glyph-name="uni0491" unicode="&#x491;" horiz-adv-x="297" 
d="M60 700h157v50h50v-86h-133v-664h-74v700z" />
    <glyph glyph-name="Wgrave" unicode="&#x1e80;" horiz-adv-x="680" 
d="M660 664h-59l-104 -664h-101l-53 354l-66 -354h-101l-99 664h-57v36h129l98 -659l79 426l-34 233h77l97 -654l103 654h91v-36zM321 730l-20 70h40l17 -70h-37z" />
    <glyph glyph-name="wgrave" unicode="&#x1e81;" horiz-adv-x="680" 
d="M660 664h-59l-104 -664h-101l-53 354l-66 -354h-101l-99 664h-57v36h129l98 -659l79 426l-34 233h77l97 -654l103 654h91v-36zM321 730l-20 70h40l17 -70h-37z" />
    <glyph glyph-name="Wacute" unicode="&#x1e82;" horiz-adv-x="680" 
d="M660 664h-59l-104 -664h-101l-53 354l-66 -354h-101l-99 664h-57v36h129l98 -659l79 426l-34 233h77l97 -654l103 654h91v-36zM311 730l17 70h40l-20 -70h-37z" />
    <glyph glyph-name="wacute" unicode="&#x1e83;" horiz-adv-x="680" 
d="M660 664h-59l-104 -664h-101l-53 354l-66 -354h-101l-99 664h-57v36h129l98 -659l79 426l-34 233h77l97 -654l103 654h91v-36zM311 730l17 70h40l-20 -70h-37z" />
    <glyph glyph-name="Wdieresis" unicode="&#x1e84;" horiz-adv-x="680" 
d="M660 664h-59l-104 -664h-101l-53 354l-66 -354h-101l-99 664h-57v36h129l98 -659l79 426l-34 233h77l97 -654l103 654h91v-36zM317 750h-44v40h44v-40zM359 790h44v-40h-44v40z" />
    <glyph glyph-name="wdieresis" unicode="&#x1e85;" horiz-adv-x="680" 
d="M660 664h-59l-104 -664h-101l-53 354l-66 -354h-101l-99 664h-57v36h129l98 -659l79 426l-34 233h77l97 -654l103 654h91v-36zM317 750h-44v40h44v-40zM359 790h44v-40h-44v40z" />
    <glyph glyph-name="Ygrave" unicode="&#x1ef2;" horiz-adv-x="338" 
d="M328 664h-25l-96 -356v-308h-74v311l-91 353h-32v36h99l80 -318l86 318h53v-36zM170 730l-20 70h40l17 -70h-37z" />
    <glyph glyph-name="ygrave" unicode="&#x1ef3;" horiz-adv-x="338" 
d="M328 664h-25l-96 -356v-308h-74v311l-91 353h-32v36h99l80 -318l86 318h53v-36zM170 730l-20 70h40l17 -70h-37z" />
    <glyph glyph-name="endash" unicode="&#x2013;" horiz-adv-x="390" 
d="M40 390h310v-40h-310v40z" />
    <glyph glyph-name="emdash" unicode="&#x2014;" horiz-adv-x="581" 
d="M40 390h501v-40h-501v40z" />
    <glyph glyph-name="quoteleft" unicode="&#x2018;" horiz-adv-x="154" 
d="M114 507h-74v90l25 103h37l-24 -103h36v-90z" />
    <glyph glyph-name="quoteright" unicode="&#x2019;" horiz-adv-x="154" 
d="M40 700h74v-90l-25 -103h-37l24 103h-36v90z" />
    <glyph glyph-name="quotesinglbase" unicode="&#x201a;" horiz-adv-x="154" 
d="M40 90h74v-90l-25 -103h-37l24 103h-36v90z" />
    <glyph glyph-name="quotereversed" unicode="&#x201b;" horiz-adv-x="154" 
d="M114 610h-36l24 -103h-37l-25 103v90h74v-90z" />
    <glyph glyph-name="quotedblleft" unicode="&#x201c;" horiz-adv-x="278" 
d="M114 507h-74v90l25 103h37l-24 -103h36v-90zM238 507h-74v90l25 103h37l-24 -103h36v-90z" />
    <glyph glyph-name="quotedblright" unicode="&#x201d;" horiz-adv-x="278" 
d="M164 700h74v-90l-25 -103h-37l24 103h-36v90zM40 700h74v-90l-25 -103h-37l24 103h-36v90z" />
    <glyph glyph-name="quotedblbase" unicode="&#x201e;" horiz-adv-x="278" 
d="M164 90h74v-90l-25 -103h-37l24 103h-36v90zM40 90h74v-90l-25 -103h-37l24 103h-36v90z" />
    <glyph glyph-name="uni201F" unicode="&#x201f;" horiz-adv-x="278" 
d="M114 610h-36l24 -103h-37l-25 103v90h74v-90zM238 610h-36l24 -103h-37l-25 103v90h74v-90z" />
    <glyph glyph-name="dagger" unicode="&#x2020;" horiz-adv-x="370" 
d="M30 590h118v160h74v-160h118v-50h-118v-590h-74v590h-118v50z" />
    <glyph glyph-name="daggerdbl" unicode="&#x2021;" horiz-adv-x="370" 
d="M30 440h118v100h-118v50h118v160h74v-160h118v-50h-118v-100h118v-50h-118v-440h-74v440h-118v50z" />
    <glyph glyph-name="bullet" unicode="&#x2022;" horiz-adv-x="176" 
d="M40 404h96v-111h-96v111z" />
    <glyph glyph-name="ellipsis" unicode="&#x2026;" horiz-adv-x="462" 
d="M348 90h74v-90h-74v90zM194 90h74v-90h-74v90zM40 90h74v-90h-74v90z" />
    <glyph glyph-name="perthousand" unicode="&#x2030;" horiz-adv-x="793" 
d="M118 705q37 0 56.5 -25.5t19.5 -71.5v-216q0 -29 -7 -47.5t-18 -29.5t-24.5 -15.5t-26.5 -4.5q-14 0 -28 4.5t-25 15.5t-18 29.5t-7 47.5v216q0 46 20 71.5t58 25.5zM118 320q28 0 28 45v269q0 23 -8.5 34t-19.5 11q-13 0 -21.5 -11t-8.5 -34v-269q0 -45 30 -45zM95 -20
l330 740h39l-331 -740h-38zM443 405q37 0 56.5 -25.5t19.5 -71.5v-216q0 -29 -7 -47.5t-18 -29.5t-24.5 -15.5t-26.5 -4.5q-14 0 -28 4.5t-25 15.5t-18 29.5t-7 47.5v216q0 46 20 71.5t58 25.5zM443 20q28 0 28 45v269q0 23 -8.5 34t-19.5 11q-13 0 -21.5 -11t-8.5 -34v-269
q0 -45 30 -45zM677 405q37 0 56.5 -25.5t19.5 -71.5v-216q0 -29 -7 -47.5t-18 -29.5t-24.5 -15.5t-26.5 -4.5q-14 0 -28 4.5t-25 15.5t-18 29.5t-7 47.5v216q0 46 20 71.5t58 25.5zM677 20q28 0 28 45v269q0 23 -8.5 34t-19.5 11q-13 0 -21.5 -11t-8.5 -34v-269
q0 -45 30 -45z" />
    <glyph glyph-name="guilsinglleft" unicode="&#x2039;" horiz-adv-x="188" 
d="M77 350l71 -140h-37l-71 140l71 141h37z" />
    <glyph glyph-name="guilsinglright" unicode="&#x203a;" horiz-adv-x="188" 
d="M40 491h37l71 -141l-71 -140h-37l71 140z" />
    <glyph glyph-name="fraction" unicode="&#x2044;" horiz-adv-x="109" 
d="M-130 -20l330 740h39l-331 -740h-38z" />
    <glyph glyph-name="zerosuperior" unicode="&#x2070;" horiz-adv-x="234" 
d="M118 705q37 0 56.5 -25.5t19.5 -71.5v-216q0 -29 -7 -47.5t-18 -29.5t-24.5 -15.5t-26.5 -4.5q-14 0 -28 4.5t-25 15.5t-18 29.5t-7 47.5v216q0 46 20 71.5t58 25.5zM118 320q28 0 28 45v269q0 23 -8.5 34t-19.5 11q-13 0 -21.5 -11t-8.5 -34v-269q0 -45 30 -45z" />
    <glyph glyph-name="foursuperior" unicode="&#x2074;" horiz-adv-x="257" 
d="M40 460l80 240h65v-240h32v-24h-32v-136h-46v136h-99v24zM69 460h70v209z" />
    <glyph glyph-name="fivesuperior" unicode="&#x2075;" horiz-adv-x="222" 
d="M40 516l8 184h122v-25h-98l-6 -119q17 17 40 17q37 0 56.5 -25t19.5 -71v-80q0 -29 -7 -47.5t-17.5 -29.5t-24.5 -15.5t-27 -4.5q-27 0 -45.5 18t-18.5 53h25q0 -23 11 -34.5t28 -11.5q28 0 28 46v131q0 24 -8 35t-20 11q-10 0 -21.5 -8t-19.5 -24h-25z" />
    <glyph glyph-name="sixsuperior" unicode="&#x2076;" horiz-adv-x="234" 
d="M40 608q0 29 7 47.5t18 29.5t24.5 15.5t26.5 4.5q26 0 45 -18.5t19 -54.5h-25q0 48 -33 48q-34 0 -34 -46v-109q8 7 18 10.5t18 3.5q37 0 53.5 -25.5t16.5 -71.5v-50q0 -29 -7 -47.5t-18 -29.5t-24.5 -15.5t-26.5 -4.5q-14 0 -28 4.5t-25 15.5t-18 29.5t-7 47.5v216z
M146 469q0 23 -8.5 33.5t-19.5 10.5q-12 0 -21 -9.5t-9 -30.5v-108q0 -45 30 -45q28 0 28 45v104z" />
    <glyph glyph-name="sevensuperior" unicode="&#x2077;" horiz-adv-x="228" 
d="M40 700h148l-80 -400h-50l74 375h-92v25z" />
    <glyph glyph-name="eightsuperior" unicode="&#x2078;" horiz-adv-x="234" 
d="M118 705q37 0 56.5 -25.5t19.5 -71.5v-14q0 -47 -15 -68t-36 -27q51 -15 51 -93v-14q0 -29 -7 -47.5t-18 -29.5t-24.5 -15.5t-26.5 -4.5q-14 0 -28 4.5t-25 15.5t-18 29.5t-7 47.5v14q0 78 51 93q-22 6 -36.5 26.5t-14.5 68.5v14q0 46 20 71.5t58 25.5zM118 520
q28 0 28 47v67q0 23 -8.5 34t-19.5 11q-13 0 -21.5 -11t-8.5 -34v-67q0 -47 30 -47zM118 320q28 0 28 45v68q0 24 -8.5 35t-19.5 11q-13 0 -21.5 -11t-8.5 -35v-68q0 -45 30 -45z" />
    <glyph glyph-name="ninesuperior" unicode="&#x2079;" horiz-adv-x="234" 
d="M194 392q0 -29 -7 -47.5t-17.5 -29.5t-24 -15.5t-26.5 -4.5q-27 0 -46 18.5t-19 53.5h25q0 -47 34 -47q33 0 33 45v70q-8 -7 -17 -10t-17 -3q-38 0 -55 25t-17 71v90q0 29 7 47.5t18.5 29.5t25 15.5t27.5 4.5q13 0 26.5 -4.5t24.5 -15.5t18 -29.5t7 -47.5v-216zM88 492
q0 -23 8.5 -34t21.5 -11q11 0 19.5 9.5t8.5 30.5v147q0 46 -28 46q-30 0 -30 -46v-142z" />
    <glyph glyph-name="zeroinferior" unicode="&#x2080;" horiz-adv-x="234" 
d="M118 405q37 0 56.5 -25.5t19.5 -71.5v-216q0 -29 -7 -47.5t-18 -29.5t-24.5 -15.5t-26.5 -4.5q-14 0 -28 4.5t-25 15.5t-18 29.5t-7 47.5v216q0 46 20 71.5t58 25.5zM118 20q28 0 28 45v269q0 23 -8.5 34t-19.5 11q-13 0 -21.5 -11t-8.5 -34v-269q0 -45 30 -45z" />
    <glyph glyph-name="oneinferior" unicode="&#x2081;" horiz-adv-x="158" 
d="M40 400h78v-400h-48v375h-30v25z" />
    <glyph glyph-name="twoinferior" unicode="&#x2082;" horiz-adv-x="222" 
d="M40 25q0 62 15 99.5t33 58.5q18 20 32 42.5t14 57.5v51q0 46 -33 46q-34 0 -34 -48h-25q0 36 19 54.5t46 18.5q13 0 26.5 -4.5t24 -15.5t17.5 -29.5t7 -47.5v-25q0 -39 -19 -66.5t-42 -51.5q-11 -12 -20.5 -24t-17.5 -28t-12.5 -37t-4.5 -51h116v-25h-142v25z" />
    <glyph glyph-name="threeinferior" unicode="&#x2083;" horiz-adv-x="220" 
d="M180 266q0 -34 -16.5 -49t-36.5 -15h-4v-2q20 -1 38.5 -15t18.5 -48v-45q0 -29 -7 -47.5t-17.5 -29.5t-24 -15.5t-26.5 -4.5q-27 0 -46 18.5t-19 53.5h26q0 -47 33 -47t33 45v103q0 8 -5.5 11.5t-11.5 3.5h-32v37h32q6 0 11.5 3.5t5.5 11.5v99q0 46 -33 46t-33 -48h-26
q0 36 19 54.5t46 18.5q13 0 26.5 -4.5t24 -15.5t17.5 -29.5t7 -47.5v-42z" />
    <glyph glyph-name="fourinferior" unicode="&#x2084;" horiz-adv-x="257" 
d="M40 160l80 240h65v-240h32v-24h-32v-136h-46v136h-99v24zM69 160h70v209z" />
    <glyph glyph-name="fiveinferior" unicode="&#x2085;" horiz-adv-x="222" 
d="M40 216l6 184h124v-25h-98l-6 -119q17 17 40 17q37 0 56.5 -25t19.5 -71v-80q0 -29 -7 -47.5t-17.5 -29.5t-24.5 -15.5t-27 -4.5q-27 0 -45.5 18t-18.5 53h25q0 -23 11 -34.5t28 -11.5q28 0 28 46v131q0 24 -8 35t-20 11q-10 0 -21.5 -8t-19.5 -24h-25z" />
    <glyph glyph-name="sixinferior" unicode="&#x2086;" horiz-adv-x="234" 
d="M40 308q0 29 7 47.5t18 29.5t24.5 15.5t26.5 4.5q26 0 45 -18.5t19 -54.5h-25q0 48 -33 48q-34 0 -34 -46v-109q8 7 18 10.5t18 3.5q37 0 53.5 -25.5t16.5 -71.5v-50q0 -29 -7 -47.5t-18 -29.5t-24.5 -15.5t-26.5 -4.5q-14 0 -28 4.5t-25 15.5t-18 29.5t-7 47.5v216z
M146 169q0 23 -8.5 33.5t-19.5 10.5q-12 0 -21 -9.5t-9 -30.5v-108q0 -45 30 -45q28 0 28 45v104z" />
    <glyph glyph-name="seveninferior" unicode="&#x2087;" horiz-adv-x="228" 
d="M40 400h148l-80 -400h-50l74 375h-92v25z" />
    <glyph glyph-name="eightinferior" unicode="&#x2088;" horiz-adv-x="234" 
d="M118 405q37 0 56.5 -25.5t19.5 -71.5v-14q0 -47 -15 -68t-36 -27q51 -15 51 -93v-14q0 -29 -7 -47.5t-18 -29.5t-24.5 -15.5t-26.5 -4.5q-14 0 -28 4.5t-25 15.5t-18 29.5t-7 47.5v14q0 78 51 93q-22 6 -36.5 26.5t-14.5 68.5v14q0 46 20 71.5t58 25.5zM118 220
q28 0 28 47v67q0 23 -8.5 34t-19.5 11q-13 0 -21.5 -11t-8.5 -34v-67q0 -47 30 -47zM118 20q28 0 28 45v68q0 24 -8.5 35t-19.5 11q-13 0 -21.5 -11t-8.5 -35v-68q0 -45 30 -45z" />
    <glyph glyph-name="nineinferior" unicode="&#x2089;" horiz-adv-x="234" 
d="M194 92q0 -29 -7 -47.5t-17.5 -29.5t-24 -15.5t-26.5 -4.5q-27 0 -46 18.5t-19 53.5h25q0 -47 34 -47q33 0 33 45v70q-8 -7 -17 -10t-17 -3q-38 0 -55 25t-17 71v90q0 29 7 47.5t18.5 29.5t25 15.5t27.5 4.5q13 0 26.5 -4.5t24.5 -15.5t18 -29.5t7 -47.5v-216zM88 192
q0 -23 8.5 -34t21.5 -11q11 0 19.5 9.5t8.5 30.5v147q0 46 -28 46q-30 0 -30 -46v-142z" />
    <glyph glyph-name="Euro" unicode="&#x20ac;" horiz-adv-x="308" 
d="M10 420h40v120q0 81 31.5 124.5t93.5 43.5q19 0 33 -5.5t24 -11.5q11 -8 19 -17l24 34l13 -9l-51 -73q-8 16 -22 30.5t-40 14.5q-22 0 -36.5 -20.5t-14.5 -63.5v-167h119v-40h-119v-60h119v-40h-119v-167q0 -85 60 -85q59 0 59 84h36q0 -59 -30.5 -89.5t-73.5 -30.5
q-22 0 -44.5 7.5t-40.5 26.5t-29 51.5t-11 82.5v120h-40v40h40v60h-40v40z" />
    <glyph glyph-name="numero" unicode="&#x2116;" horiz-adv-x="604" 
d="M119 667v-667h-99v36h63v664h107l124 -668v668h95v-36h-59v-664h-107zM415 458q0 35 23 58.5t56 23.5t56.5 -23.5t23.5 -58.5t-23.5 -58.5t-56.5 -23.5t-56 23.5t-23 58.5zM445 458q0 -23 14.5 -37.5t34.5 -14.5q21 0 35.5 14.5t14.5 37.5t-14.5 37.5t-35.5 14.5
q-20 0 -34.5 -14.5t-14.5 -37.5zM457 310h74v-90h-74v90z" />
    <glyph glyph-name="trademark" unicode="&#x2122;" horiz-adv-x="631" 
d="M30 700h211v-27h-80v-394h-51v394h-80v27zM271 307h38v393h74l71 -386q19 98 37 193.5t38 192.5h72v-421h-52v368l-72 -368h-71l-68 371v-371h-67v28z" />
    <glyph glyph-name="filledbox" unicode="&#x25a0;" horiz-adv-x="700" 
d="M0 0v700h700v-700h-700z" />
    <glyph glyph-name="H22073" unicode="&#x25a1;" horiz-adv-x="700" 
d="M0 0v700h700v-700h-700zM665 35v630h-630v-630h630z" />
    <glyph glyph-name="uni25A3" unicode="&#x25a3;" horiz-adv-x="700" 
d="M0 0v700h700v-700h-700zM665 35v630h-630v-630h630zM196 199v302h302v-302h-302z" />
    <glyph glyph-name="H18543" unicode="&#x25aa;" horiz-adv-x="302" 
d="M0 199v302h302v-302h-302z" />
    <glyph glyph-name="H18551" unicode="&#x25ab;" horiz-adv-x="302" 
d="M0 199v302h302v-302h-302zM273 228v244h-244v-244h244z" />
    <glyph glyph-name="uni25AE" unicode="&#x25ae;" horiz-adv-x="350" 
d="M0 0v700h350v-700h-350z" />
    <glyph glyph-name="uni25AF" unicode="&#x25af;" horiz-adv-x="350" 
d="M0 0v700h350v-700h-350zM316 665h-283v-630h283v630z" />
    <glyph glyph-name="triagup" unicode="&#x25b2;" horiz-adv-x="700" 
d="M700 50h-700l350 602z" />
    <glyph glyph-name="uni25B3" unicode="&#x25b3;" horiz-adv-x="700" 
d="M700 50h-700l350 602zM350 572l-280 -482h560z" />
    <glyph glyph-name="uni25B4" unicode="&#x25b4;" horiz-adv-x="325" 
d="M162 490l163 -280h-325z" />
    <glyph glyph-name="uni25B5" unicode="&#x25b5;" horiz-adv-x="325" 
d="M162 490l163 -280h-325zM45 237h234l-117 202z" />
    <glyph glyph-name="uni25B6" unicode="&#x25b6;" horiz-adv-x="602" 
d="M0 0v700l602 -350z" />
    <glyph glyph-name="uni25B7" unicode="&#x25b7;" horiz-adv-x="602" 
d="M602 351l-602 -350v700zM40 631v-560l482 280z" />
    <glyph glyph-name="uni25B8" unicode="&#x25b8;" horiz-adv-x="280" 
d="M0 187v325l280 -163z" />
    <glyph glyph-name="uni25B9" unicode="&#x25b9;" horiz-adv-x="280" 
d="M0 187v325l280 -163zM229 349l-202 117v-234z" />
    <glyph glyph-name="triagdn" unicode="&#x25bc;" horiz-adv-x="700" 
d="M350 48l-350 602h700z" />
    <glyph glyph-name="uni25BD" unicode="&#x25bd;" horiz-adv-x="700" 
d="M350 48l-350 602h700zM630 610h-560l280 -482z" />
    <glyph glyph-name="uni25BE" unicode="&#x25be;" horiz-adv-x="325" 
d="M0 480h325l-163 -280z" />
    <glyph glyph-name="uni25BF" unicode="&#x25bf;" horiz-adv-x="325" 
d="M0 480h325l-163 -280zM162 251l117 202h-234z" />
    <glyph glyph-name="uni25C0" unicode="&#x25c0;" horiz-adv-x="602" 
d="M0 350l602 350v-700z" />
    <glyph glyph-name="uni25C1" unicode="&#x25c1;" horiz-adv-x="602" 
d="M602 701v-700l-602 350zM80 351l482 -280v560z" />
    <glyph glyph-name="uni25C2" unicode="&#x25c2;" horiz-adv-x="280" 
d="M280 512v-325l-280 163z" />
    <glyph glyph-name="uni25C3" unicode="&#x25c3;" horiz-adv-x="280" 
d="M0 349l280 163v-325zM253 232v234l-202 -117z" />
    <glyph glyph-name="uni25C6" unicode="&#x25c6;" horiz-adv-x="700" 
d="M350 700l350 -350l-350 -350l-350 350z" />
    <glyph glyph-name="uni25C7" unicode="&#x25c7;" horiz-adv-x="700" 
d="M0 350l350 350l350 -350l-350 -350zM350 37l313 313l-313 313l-313 -313z" />
    <glyph glyph-name="uni25C8" unicode="&#x25c8;" horiz-adv-x="700" 
d="M350 700l350 -350l-350 -350l-350 350zM37 350l313 -313l313 313l-313 313zM352 502l150 -150l-150 -150l-150 150z" />
    <glyph glyph-name="uni25C9" unicode="&#x25c9;" horiz-adv-x="700" 
d="M0 350q0 72 27.5 136t74.5 111.5t111 75t136 27.5t136 -27.5t112 -75t75.5 -111.5t27.5 -136t-27.5 -136t-75.5 -111t-112 -74.5t-136 -27.5t-136 27.5t-111 74.5t-74.5 111t-27.5 136zM52 350q0 -62 23 -116t63.5 -94.5t94.5 -63.5t116 -23t116.5 23t95 63.5t64 94.5
t23.5 116t-23.5 116t-64 94.5t-95 64t-116.5 23.5t-116 -23.5t-94.5 -64t-63.5 -94.5t-23 -116zM104 350q0 51 19.5 95.5t52.5 78t77.5 53t95.5 19.5t95.5 -19.5t78.5 -53t53.5 -78t19.5 -95.5t-19.5 -95.5t-53.5 -77.5t-78.5 -52.5t-95.5 -19.5t-95.5 19.5t-77.5 52.5
t-52.5 77.5t-19.5 95.5z" />
    <glyph glyph-name="lozenge" unicode="&#x25ca;" horiz-adv-x="350" 
d="M175 -24l-175 375l175 371l175 -371zM175 636l-134 -285l134 -289l134 289z" />
    <glyph glyph-name="circle" unicode="&#x25cb;" horiz-adv-x="700" 
d="M0 350q0 72 27.5 136t74.5 111.5t111 75t136 27.5t136 -27.5t112 -75t75.5 -111.5t27.5 -136t-27.5 -136t-75.5 -111t-112 -74.5t-136 -27.5t-136 27.5t-111 74.5t-74.5 111t-27.5 136zM24 349q0 -68 26 -127.5t70 -103.5t103.5 -70t127.5 -26q67 0 127 26t104.5 70
t70.5 103.5t26 127.5q0 67 -26.5 127.5t-71.5 105.5t-105.5 71.5t-127.5 26.5q-68 0 -127 -26.5t-102.5 -71.5t-69 -105.5t-25.5 -127.5z" />
    <glyph glyph-name="uni25CE" unicode="&#x25ce;" horiz-adv-x="700" 
d="M700 350q0 -72 -27.5 -136t-75 -111.5t-111.5 -75t-136 -27.5t-136 27.5t-111.5 75t-75 111.5t-27.5 136t27.5 136t75 111.5t111.5 75t136 27.5t136 -27.5t111.5 -75t75 -111.5t27.5 -136zM582 350q0 47 -18.5 89.5t-50 74.5t-74 50.5t-89.5 18.5q-48 0 -90.5 -18.5
t-74 -50.5t-50 -74.5t-18.5 -89.5t18.5 -89.5t50 -74.5t74 -50.5t90.5 -18.5q47 0 89.5 18.5t74 50.5t50 74.5t18.5 89.5zM467 350q0 -24 -9.5 -45.5t-25 -37t-37 -25t-45.5 -9.5t-45.5 9.5t-37.5 25t-25.5 37t-9.5 45.5t9.5 45.5t25.5 37t37.5 25t45.5 9.5t45.5 -9.5
t37 -25t25 -37t9.5 -45.5z" />
    <glyph glyph-name="H18533" unicode="&#x25cf;" horiz-adv-x="700" 
d="M0 350q0 72 27.5 136t74.5 111.5t111 75t136 27.5t136 -27.5t112 -75t75.5 -111.5t27.5 -136t-27.5 -136t-75.5 -111t-112 -74.5t-136 -27.5t-136 27.5t-111 74.5t-74.5 111t-27.5 136z" />
    <glyph glyph-name="uni25EB" unicode="&#x25eb;" horiz-adv-x="515" 
d="M285 285v230h-55v-230h-230v230h187l-122 66q-17 8 -25 23.5t-8 32.5q0 15 6 29t17 25t25 17.5t31 6.5q19 0 36.5 -8.5t28.5 -25.5l83 -131l69 125q10 18 29.5 29t40.5 11q29 0 52.5 -20.5t23.5 -52.5q0 -20 -11 -39.5t-30 -29.5l-108 -58h190v-230h-230zM285 0v230h230
v-230h-230zM0 0v230h230v-230h-230zM417 656q-9 9 -20 9q-16 0 -23 -14l-60 -96l98 60q13 6 13 20q0 10 -8 21zM139 651q-5 8 -12.5 11.5t-14.5 3.5q-13 0 -20 -8.5t-7 -19.5q0 -14 13 -22l108 -64z" />
    <glyph glyph-name="uni2605" unicode="&#x2605;" horiz-adv-x="707" 
d="M487 269l85 -262l-218 161l-217 -161l86 262l-223 162h273l81 255l79 -255h274z" />
    <glyph glyph-name="uni2606" unicode="&#x2606;" horiz-adv-x="707" 
d="M487 269l85 -262l-218 161l-217 -161l86 262l-223 162h273l81 255l79 -255h274zM423 415l-69 215l-71 -215h-230l188 -141l-71 -221l184 136l185 -136l-70 221l185 141h-231z" />
    <glyph glyph-name="uni260E" unicode="&#x260e;" horiz-adv-x="971" 
d="M971 470q0 -18 -4 -31.5t-16.5 -22.5t-35 -13t-58.5 -4q-46 0 -72.5 5.5t-41 15t-20.5 22t-10.5 27t-11.5 29.5t-23 30q-16 14 -35.5 21.5t-43.5 11.5t-53 4.5t-64 0.5q-24 0 -50.5 -0.5t-51 -3.5t-45.5 -8.5t-34 -14.5q-18 -15 -26.5 -31.5t-14.5 -32t-13 -29.5
t-21 -24.5t-38 -16.5t-65 -6q-42 0 -66 4.5t-37 14t-16.5 25t-3.5 37.5q0 73 42.5 116.5t111 66.5t154.5 30t174 7q96 0 184.5 -8t156 -32t108 -69.5t40.5 -120.5zM839 110q0 -40 -11 -62t-48 -32.5t-107.5 -13t-190.5 -2.5q-125 0 -195.5 2.5t-104.5 13t-41.5 33t-7.5 61.5
q0 55 14 97.5t36.5 76t50 61t55.5 53.5q16 15 29.5 35.5t33 39t50 31.5t80.5 13q55 0 88.5 -16t56 -38.5t39.5 -47t38 -42.5q19 -16 42.5 -39.5t44 -56t34.5 -74t14 -93.5z" />
    <glyph glyph-name="uni261A" unicode="&#x261a;" horiz-adv-x="1876" 
d="M1452 27q1 -5 6 -11.5t11 -12t12.5 -9.5t12.5 -4q14 0 29.5 4t28 12t21 20.5t8.5 29.5q0 4 -3.5 11t-8.5 13.5t-10.5 11t-10.5 4.5q-19 0 -31.5 -7t-23 -17t-20 -22.5t-21.5 -22.5zM1522 177q10 0 16 1.5t11 4t10 5.5t13 6v4q0 8 -2.5 16.5t-4.5 16.5q-2 -4 -2.5 -8.5
t-1 -8.5t-3.5 -6.5t-10 -2.5q-5 -5 -6 -8.5t-5 -8.5q-5 9 -6.5 20t-5.5 21q-1 -8 -2.5 -16t-1.5 -16zM1501 207q0 -2 3.5 -10.5t4.5 -10.5v45q-3 -5 -5.5 -11t-2.5 -13zM11 447q8 -2 15 -4.5t15 -2.5q10 0 28 4.5t36 12t31 18t13 23.5l-14 10q-8 -6 -28 -14.5t-41 -17.5
t-37.5 -17t-17.5 -12zM1362 136q12 3 25.5 4.5t26 4t25 6.5t23.5 12q-4 -27 -8.5 -54t-4.5 -54l10 -10q7 0 13.5 14t11 32t7 35t2.5 24v95q5 4 11 4.5t13 2.5q12 3 21.5 11.5t17 19t14 21.5t12.5 19q6 -22 10 -44t4 -45q0 -27 -4.5 -54.5t-4.5 -53.5q0 -17 1.5 -36t1.5 -34
q0 -17 -6 -31.5t-7 -30.5l-11 -3t-24 -6.5t-24.5 -6t-12.5 -2.5h-72q-32 32 -46.5 75t-24.5 85zM0 460q19 14 64.5 32.5t108 38.5t136 40.5t150 40t149.5 37t134 30t105 20t61 7.5q31 0 71 -5.5t82 -13.5t82 -16.5t72 -15.5q11 -2 33.5 -9t45.5 -14.5t43 -13t27 -5.5
q9 0 15 10.5t11 16.5q15 4 35 9t41.5 9.5t41.5 7.5t35 3q45 0 90.5 4t91.5 5q15 0 30.5 5.5t31.5 5.5q0 -14 1 -22t3 -14t5.5 -12.5t9.5 -17.5q5 -11 4.5 -23.5t3.5 -23.5q10 -29 16 -39t9 -18.5t4 -22t1 -48.5q0 -10 7.5 -16t15.5 -10l9 -127v-148q0 -15 -4.5 -30t-9.5 -29
t-9.5 -26t-4.5 -21q0 -18 -0.5 -32t-2.5 -26.5t-6.5 -26t-11.5 -31.5q-5 1 -11.5 1h-12.5q-23 0 -49.5 -3t-54.5 -6.5t-56 -6.5t-52 -3q-17 0 -27 3t-16 9t-9.5 16.5t-7.5 25.5q9 2 19.5 3.5t21.5 2.5l-11 -32l19 -16q7 0 13.5 14t11.5 35t9 47t6.5 50.5t4 44t1.5 28.5
q0 17 -2 61t-7 100t-12.5 117t-19 111.5t-27 83.5t-35.5 33q-9 0 -29 -1.5t-40 -5.5t-35 -11t-15 -19q0 -5 4 -16t9 -23l10 -24t7 -19q6 -26 11.5 -55t10 -59t7.5 -59.5t3 -55.5t-0.5 -51t-1.5 -51q-52 -14 -107 -24.5t-109 -10.5q-83 0 -151.5 19t-139.5 62
q-6 0 -12.5 -10.5t-12.5 -24t-9.5 -26t-3.5 -18.5q0 -8 5 -12t12 -4q9 0 14.5 5.5t8.5 13.5t4 17t2 16q21 -3 37.5 -16t36.5 -20q0 -44 -12.5 -67.5t-35.5 -34t-55.5 -12.5t-72.5 -2q-11 0 -23.5 1.5t-23.5 6t-18.5 13t-7.5 22.5q0 33 7 69.5t18.5 73t25 71.5t25.5 65
q10 24 29 40t36 35q-5 13 -17 13q-26 0 -47 -20t-38 -52t-29 -71.5t-21 -78t-14 -71.5t-7 -53q-9 0 -22.5 3.5t-26 10t-21.5 16t-9 20.5q0 15 6 28.5t14 25.5t15 24.5t10 26.5q5 26 14 44.5t20 42.5q19 42 31 66t25 42t32 36.5t53 48.5l11 13l-21 14q-25 0 -49 -19
t-46.5 -49.5t-42.5 -68t-36.5 -75t-28.5 -70t-19 -52.5q-12 1 -24.5 5.5t-23 12t-17 18t-6.5 24.5q0 11 7.5 30t18 38.5t22 37t19.5 25.5l22 22t36.5 37t43 43.5t42.5 42t34.5 33t18.5 16.5q9 6 21.5 9.5t24.5 7t21.5 9.5t12.5 16l-11 11q-51 0 -83.5 -19t-58.5 -47
t-51 -59.5t-61 -56.5l-15 -3.5t-37.5 -9t-48.5 -11.5t-49 -11.5t-38 -9t-16 -3.5q-30 -2 -62.5 -1.5t-61.5 -6.5q-31 -8 -56 -15.5t-49 -14t-51 -10.5t-62 -4q-17 0 -39 1.5t-42 8t-34 20t-14 37.5z" />
    <glyph glyph-name="uni261B" unicode="&#x261b;" horiz-adv-x="1876" 
d="M1876 460q0 -24 -14 -37.5t-34 -20t-42 -8t-39 -1.5q-35 0 -62 4t-51 10.5t-49 14t-56 15.5q-29 7 -61.5 6.5t-62.5 1.5q-1 0 -16 3.5t-38 9t-49 11.5t-48.5 11.5t-37.5 9l-15 3.5q-36 25 -61 56.5t-51 59.5t-58.5 47t-83.5 19l-11 -11q3 -10 12.5 -16t21.5 -9.5t24.5 -7
t21.5 -9.5q4 -2 18.5 -16t34.5 -33.5t42.5 -42t43 -43.5t36.5 -37l22 -22q8 -8 19.5 -25.5t22 -37t18 -38.5t7.5 -30q0 -14 -6.5 -24.5t-17 -18t-23 -12t-24.5 -5.5q-7 20 -19 52.5t-28.5 70t-36.5 75t-42.5 68t-46.5 49.5t-49 19l-21 -14l11 -13q34 -30 53 -48.5t32 -36.5
t25 -42t31 -66q11 -24 20 -42.5t14 -44.5q3 -14 10 -26.5t15 -24.5t14 -25.5t6 -28.5q0 -11 -9 -20.5t-21.5 -16t-26 -10t-22.5 -3.5q-2 20 -7 53t-14 71.5t-21 78t-29 71.5t-38 52t-47 20q-12 0 -17 -13q17 -19 36 -35t29 -40q12 -30 25.5 -65t25 -71.5t18.5 -73t7 -69.5
q0 -14 -7.5 -22.5t-18.5 -13t-23.5 -6t-23.5 -1.5q-40 0 -72.5 2t-55.5 12.5t-35.5 34t-12.5 67.5q20 7 36.5 20t37.5 16q1 -7 2 -16t4 -17t8.5 -13.5t14.5 -5.5q7 0 12 4t5 12q0 6 -3.5 18.5t-9.5 26t-12.5 24t-12.5 10.5q-71 -43 -139.5 -62t-151.5 -19q-54 0 -109 10.5
t-107 24.5q-1 26 -1.5 51t-0.5 51t2.5 55.5t7 59.5t10.5 59t12 55q2 7 7 19l10 24t9 23t4 16q0 12 -15 19t-35 11t-40 5.5t-29 1.5q-20 0 -35.5 -33t-27 -83.5t-19 -111.5t-12.5 -117t-7 -100t-2 -61q0 -9 1.5 -28.5t4 -44t6.5 -50.5t9 -47t11.5 -35t13.5 -14l19 16l-11 32
q11 -1 21.5 -2.5t19.5 -3.5q-4 -15 -7.5 -25.5t-9.5 -16.5t-16.5 -9t-26.5 -3q-24 0 -52 3t-56 6.5t-55 6.5t-49 3h-12.5t-11.5 -1q-8 18 -12 31.5t-6 26t-2.5 26.5t-0.5 32q0 9 -4.5 21t-9.5 26t-9.5 29t-4.5 30v148l9 127q8 4 15.5 10t7.5 16q0 35 1 48.5t4 22t9 18.5
t16 39q4 11 3.5 23.5t4.5 23.5q6 11 9.5 17.5t5.5 12.5t3 14t1 22q16 0 31.5 -5.5t30.5 -5.5q46 -1 91.5 -5t90.5 -4q15 0 35 -3t41.5 -7.5t41.5 -9.5t35 -9q5 -6 11 -16.5t15 -10.5q7 0 27 5.5t43 13t45.5 14.5t33.5 9q32 7 72 15.5t82 16.5t82 13.5t71 5.5q17 0 61 -7.5
t105 -20t134 -30t149.5 -37t150 -40t136 -40.5t108 -38.5t64.5 -32.5zM514 136q-10 -42 -24.5 -85t-46.5 -75h-72q-2 0 -13 2.5t-24 6t-24 6.5l-11 3q-1 16 -7 30.5t-6 31.5q0 15 1.5 34t1.5 36q0 26 -4.5 53.5t-4.5 54.5q0 23 4 45t10 44q6 -8 12.5 -19t14 -21.5t17 -19
t21.5 -11.5q7 -2 13 -2.5t11 -4.5v-95q0 -7 2.5 -24t7 -35t11 -32t13.5 -14l10 10q0 27 -4.5 54t-8.5 54q11 -8 23.5 -12t25 -6.5t26 -4t25.5 -4.5zM1865 447q-1 4 -17.5 12t-37.5 17t-41 17.5t-28 14.5l-14 -10q0 -13 13 -23.5t31 -18t36 -12t28 -4.5q8 0 15 2.5t15 4.5z
M375 207q0 7 -2.5 13t-5.5 11v-45q1 2 4.5 10.5t3.5 10.5zM355 197q0 8 -1.5 16t-2.5 16q-4 -10 -5.5 -21t-6.5 -20q-4 5 -5 8.5t-6 8.5q-14 0 -13.5 9t-3.5 17q-2 -8 -4.5 -16.5t-2.5 -16.5v-4q8 -3 13 -6t10 -5.5t11 -4t16 -1.5zM424 27q-12 10 -21.5 22.5t-20 22.5
t-23 17t-31.5 7q-5 0 -10.5 -4.5t-10.5 -11t-8.5 -13.5t-3.5 -11q0 -17 8.5 -29.5t21 -20.5t28 -12t29.5 -4q6 0 12.5 4t12.5 9.5t10.5 12t6.5 11.5z" />
    <glyph glyph-name="uni261C" unicode="&#x261c;" horiz-adv-x="772" 
d="M0 449q0 18 15.5 29t37 17.5t44 9.5t35.5 5q29 3 55.5 5t55.5 2q11 0 24 -1l26 -2t23.5 -2t16.5 -1q19 0 37 10.5t38 10.5q25 0 46 -10.5t41.5 -23t42 -23t45.5 -10.5l18 13l-2 14q12 1 24 3.5t23 2.5l90 -3q8 0 16 0.5t16 1.5q-2 -20 -3 -41t-1 -41q0 -5 0.5 -16
t1 -26.5t1 -34t1.5 -36.5q2 -43 4 -95v-1q-20 -9 -41.5 -8t-41.5 -6q-3 23 -28 23l-45 -2q-8 0 -11 1q0 3 1 8t1 11q0 8 -3 16t-12 8q-23 0 -44.5 -10t-44.5 -22t-48 -22t-55 -10q-6 0 -14 0.5t-17 0.5q-15 0 -23.5 -4.5t-15 -10.5t-14 -10.5t-21.5 -4.5q-13 0 -34 4
t-40.5 12.5t-33.5 20.5t-14 29q0 13 8.5 22t8.5 21q0 7 -2.5 13.5t-2.5 14.5q0 9 4.5 16.5t9.5 13t9.5 10t4.5 7.5q0 4 -2.5 8.5t-2.5 9.5q0 11 6.5 18.5t6.5 9.5t-3 4t-13 2q-8 0 -23 -0.5t-34 -0.5q-24 0 -50 2t-47.5 7.5t-36 15t-14.5 25.5zM19 446q0 -12 14.5 -19
t34 -11t38 -5t26.5 -1h97q13 0 21.5 2.5t14.5 7.5t10.5 12.5t9.5 16.5q3 4 9 10l12 12t11 11.5t5 9.5q0 3 -5 5.5t-12 4t-14.5 2t-13.5 0.5q-13 0 -37 -0.5t-52.5 -2t-58.5 -5.5t-54.5 -10.5t-40 -16t-15.5 -23.5zM222 364q0 -14 19 -27.5t44.5 -24.5t50.5 -17.5t37 -6.5
q7 0 15.5 4t16 10.5t12.5 14t5 15.5q0 2 -6.5 8t-14.5 13t-17 12t-13 5q-17 0 -32 -6.5t-31 -6.5q-17 0 -28 6t-17.5 12.5t-9.5 12.5t-5 6q-12 0 -19 -9.5t-7 -20.5zM201 298q0 -9 3 -19q3 -7 18.5 -15t34.5 -15t36.5 -11.5t25.5 -4.5q6 0 13 1.5t14 5t11.5 8.5t4.5 12
q0 10 -6.5 14.5t-18.5 8.5t-29.5 8.5t-39.5 14.5q-19 8 -26.5 15t-16.5 7t-16.5 -10t-7.5 -20zM190 231q0 -15 11 -25t27 -16.5t32.5 -9t27.5 -2.5q12 0 29 7.5t17 23.5q0 5 -4.5 7.5t-14.5 4.5t-24.5 5t-34.5 11q-4 1 -10.5 4.5t-14.5 7.5q-9 4 -19 9q-9 0 -15.5 -9.5
t-6.5 -17.5zM269 393q0 -9 12.5 -16t19.5 -7q27 0 47 10t34 22t24 22.5t17 10.5l7 -6q-1 -5 -7 -9.5t-13.5 -10t-13.5 -12t-6 -13.5q0 -3 6 -9.5t13.5 -12.5t14.5 -10.5t10 -5.5q7 -2 22.5 -4t23.5 -2q13 0 27 4.5t28 7.5l8 -6q-4 -3 -13.5 -6.5t-20.5 -6t-21 -4t-16 -1.5
l-25 2q-7 0 -11 -4t-6.5 -10t-5.5 -12t-8 -10q-3 -3 -10 -6.5t-13.5 -7t-12 -7.5t-5.5 -7q0 -12 -5 -19t-10.5 -12t-10.5 -8.5t-5 -9.5q0 -12 12 -12h47q24 0 42 5.5t34 14t32 17.5t37 17q12 5 24 7.5t25 4.5q6 9 7.5 19t1.5 24q0 11 -0.5 34.5t-2 47t-5 41t-9.5 17.5
q-26 0 -48.5 9.5t-44 21.5t-44 21.5t-47.5 9.5q-17 0 -40.5 -15t-44.5 -35t-36 -40.5t-15 -32.5zM610 468q0 -22 1.5 -34.5t3.5 -27t3.5 -37.5t1.5 -66q0 -10 -4 -23t-4 -20q0 -8 4.5 -17.5t14.5 -9.5q7 0 15.5 2t16.5 2q10 0 15 3.5t5 20.5q0 13 -1 44.5t-1 61.5q0 27 3 54
t3 41q0 17 -10.5 21t-24.5 4q-6 0 -13 -0.5t-13.5 -2t-11 -5.5t-4.5 -11z" />
    <glyph glyph-name="uni261D" unicode="&#x261d;" horiz-adv-x="368" 
d="M285 734q18 0 29 -15.5t17.5 -37t9.5 -44t5 -35.5q3 -29 5 -55.5t2 -55.5q0 -11 -1 -24.5t-2 -26t-2 -23t-1 -16.5q0 -10 3.5 -19l7 -18t7 -18.5t3.5 -19.5q0 -25 -10.5 -46t-23 -41.5t-23 -42t-10.5 -45.5l13 -18l14 2q1 -12 3.5 -24t2.5 -23l-3 -90q0 -8 0.5 -16
t1.5 -16q-20 2 -41 3t-41 1q-9 0 -42.5 -1.5t-70.5 -2.5q-43 -2 -95 -4h-1q-9 20 -8 41.5t-6 41.5q23 3 23 28l-2 45q0 8 1 11q3 0 8 -1t11 -1q8 0 16 3t8 12q0 23 -10 44.5t-22 44.5t-22 48t-10 55q0 6 0.5 14t0.5 17q0 15 -4.5 23.5t-10.5 15t-10.5 14t-4.5 21.5
q0 13 4 34t12.5 40.5t20.5 33.5t29 14q13 0 22 -8.5t21 -8.5q7 0 13.5 2.5t14.5 2.5q9 0 16.5 -4.5t13 -9.5t10 -9.5t7.5 -4.5q4 0 8.5 2.5t9.5 2.5q11 0 18.5 -6.5t9.5 -6.5t4 3t2 13q0 8 -0.5 23t-0.5 34q0 24 2 50t7.5 47.5t15 36t25.5 14.5zM282 715q-12 0 -19 -14.5
t-11 -34t-5 -38t-1 -26.5v-97q0 -26 10 -36t29 -20q4 -3 10 -9l12 -12t11.5 -11t9.5 -5q3 0 5.5 5t4 12t2 14.5t0.5 13.5q0 13 -0.5 37t-2 52.5t-5.5 58.5t-10.5 54.5t-16 40t-23.5 15.5zM200 512q-14 0 -27.5 -19t-24.5 -44.5t-17.5 -50.5t-6.5 -37q0 -7 4 -15.5t10.5 -16
t14 -12.5t15.5 -5q2 0 8 6.5t13 14.5t12 16.5t5 13.5q0 17 -6.5 32t-6.5 31q0 17 6 28t12.5 17.5t12.5 9.5t6 5q0 12 -9.5 19t-20.5 7zM134 533q-9 0 -19 -3q-7 -3 -15 -18.5t-15 -34.5t-11.5 -36.5t-4.5 -25.5q0 -6 1.5 -13t5 -14t8.5 -11.5t12 -4.5q10 0 14.5 6.5
t8.5 18.5t8.5 29.5t14.5 39.5q8 19 15 26.5t7 16.5t-10 16.5t-20 7.5zM67 544q-15 0 -25 -11t-16.5 -27t-9 -32.5t-2.5 -27.5q0 -12 7.5 -29t23.5 -17q5 0 7.5 4.5t4.5 14.5t5 24.5t11 34.5q1 3 4.5 10l7.5 15q4 9 9 19q0 9 -9.5 15.5t-17.5 6.5zM229 465q-9 0 -16 -12.5
t-7 -19.5q0 -27 10 -47t22 -34t22.5 -24t10.5 -17l-6 -7q-5 1 -9.5 7t-10 13.5t-12 13.5t-13.5 6q-3 0 -9.5 -6t-12.5 -13.5t-10.5 -14.5t-5.5 -10q-2 -7 -4 -22.5t-2 -23.5q0 -13 4.5 -27t7.5 -28l-6 -8q-3 4 -6.5 13.5t-6 20.5t-4 21t-1.5 16l2 25q0 7 -4 11t-10 6.5
t-12 5.5t-10 8q-3 3 -6.5 10t-7 13.5t-7.5 12t-7 5.5q-12 0 -19 5t-12 10.5t-8.5 10.5t-9.5 5q-12 0 -12 -12v-47q0 -24 5.5 -42t14 -34t17.5 -32t17 -37q5 -12 7.5 -24t4.5 -25q9 -6 19 -7.5t24 -1.5q11 0 34.5 0.5t47 2t41 5t17.5 9.5q0 25 9.5 48t21.5 44.5t21.5 44
t9.5 47.5q0 17 -15 40.5t-35 44.5t-40.5 36t-32.5 15zM304 124q-22 0 -34.5 -1.5t-27 -3.5t-37.5 -3.5t-66 -1.5q-10 0 -23 4t-20 4q-8 0 -17.5 -4.5t-9.5 -14.5q0 -7 2 -15.5t2 -16.5q0 -10 3.5 -15t20.5 -5q13 0 44.5 1t61.5 1q27 0 54 -3t41 -3q17 0 21 10.5t4 24.5
q0 6 -0.5 13t-2 13.5t-5.5 11t-11 4.5z" />
    <glyph glyph-name="uni261E" unicode="&#x261e;" horiz-adv-x="772" 
d="M772 449q0 -16 -14.5 -25.5t-36 -15t-47.5 -7.5t-50 -2q-19 0 -34 0.5t-23 0.5q-10 0 -13 -2t-3 -4t6.5 -9.5t6.5 -18.5q0 -5 -2.5 -9.5t-2.5 -8.5q0 -3 4.5 -7.5t9.5 -10t9.5 -13t4.5 -16.5q0 -8 -2.5 -14.5t-2.5 -13.5q0 -12 8.5 -21t8.5 -22q0 -17 -14 -29
t-33.5 -20.5t-40.5 -12.5t-34 -4q-14 0 -21.5 4.5t-14 10.5t-15 10.5t-23.5 4.5q-9 0 -17 -0.5t-14 -0.5q-30 0 -55 10t-48 22t-44.5 22t-44.5 10q-9 0 -12 -8t-3 -16q0 -6 1 -11t1 -8q-3 -1 -11 -1l-45 2q-25 0 -28 -23q-20 7 -41.5 6t-41.5 8v1q2 52 4 95q1 37 2.5 70.5
t1.5 42.5q0 20 -1 41t-3 41q8 -1 16 -1.5t16 -0.5l90 3q11 0 23 -2.5t24 -3.5l-2 -14l18 -13q24 0 45.5 10.5t42 23t41.5 23t46 10.5q10 0 19.5 -3.5t18.5 -7l18 -7t19 -3.5q6 0 16.5 1t23 2t26 2t24.5 1q29 0 55.5 -2t55.5 -5q13 -2 35.5 -5t44 -9.5t37 -17.5t15.5 -29z
M753 446q0 14 -15.5 23.5t-40 16t-54.5 10.5t-58.5 5.5t-52.5 2t-37 0.5q-6 0 -13.5 -0.5t-14.5 -2t-12 -4t-5 -5.5q0 -4 5 -9.5t11 -11.5l12 -12t9 -10q10 -19 20 -29t36 -10h97q8 0 26.5 1t38 5t34 11t14.5 19zM550 364q0 11 -7 20.5t-19 9.5q-2 0 -5 -6t-9.5 -12.5
t-17.5 -12.5t-28 -6q-16 0 -31 6.5t-32 6.5q-5 0 -13.5 -5t-16.5 -12t-14.5 -13t-6.5 -8q0 -8 5 -15.5t12.5 -14t16 -10.5t15.5 -4q12 0 37 6.5t50.5 17.5t44.5 24.5t19 27.5zM571 298q0 10 -7.5 20t-16.5 10t-16.5 -7t-26.5 -15q-22 -10 -39.5 -14.5t-29.5 -8.5t-18.5 -8.5
t-6.5 -14.5q0 -7 4.5 -12t11.5 -8.5t14 -5t13 -1.5q8 0 25.5 4.5t36.5 11.5t34.5 15t18.5 15q3 10 3 19zM582 231q0 8 -6.5 17.5t-15.5 9.5q-10 -5 -19 -9l-15 -7.5t-10 -4.5q-20 -8 -34.5 -11t-24.5 -5t-14.5 -4.5t-4.5 -7.5q0 -16 17 -23.5t29 -7.5q11 0 27.5 2.5t32.5 9
t27 16.5t11 25zM503 393q0 12 -15 32.5t-36 40.5t-44.5 35t-40.5 15q-25 0 -47.5 -9.5t-44 -21.5t-44.5 -21.5t-48 -9.5q-6 0 -9.5 -17.5t-5 -41t-2 -47t-0.5 -34.5q0 -14 1.5 -24t7.5 -19q13 -2 25 -4.5t24 -7.5q21 -8 37 -17t32 -17.5t34 -14t42 -5.5h47q12 0 12 12
q0 6 -5 9.5t-10.5 8.5t-10.5 12t-5 19q0 3 -5.5 7t-12 7.5t-13.5 7t-10 6.5q-5 4 -8 10t-5.5 12t-6.5 10t-11 4l-25 -2q-6 0 -16 1.5t-21 4t-20.5 6t-13.5 6.5l8 6q14 -3 28 -7.5t27 -4.5q8 0 23.5 2t22.5 4q3 1 10 5.5t14.5 10.5t13.5 12.5t6 9.5q0 7 -6 13.5t-13.5 12
t-13.5 10t-7 9.5l7 6q7 0 17 -10.5t24 -22.5t34 -22t47 -10q7 0 19.5 7t12.5 16zM162 468q0 7 -4.5 11t-11 5.5t-13.5 2t-13 0.5q-14 0 -24.5 -4t-10.5 -21q0 -14 3 -41t3 -54q0 -30 -1 -61.5t-1 -44.5q0 -17 5 -20.5t15 -3.5q8 0 16.5 -2t15.5 -2q10 0 14.5 9.5t4.5 17.5
q0 7 -4 20t-4 23q0 43 1.5 66t3.5 37.5t3.5 27t1.5 34.5z" />
    <glyph glyph-name="uni261F" unicode="&#x261f;" horiz-adv-x="368" 
d="M285 -38q-16 0 -25.5 14.5t-15 36t-7.5 47.5t-2 50q0 19 0.5 34t0.5 23q0 10 -2 13t-4 3t-9.5 -6.5t-18.5 -6.5q-5 0 -9.5 2.5t-8.5 2.5q-3 0 -7.5 -4.5t-10 -9.5t-13 -9.5t-16.5 -4.5q-8 0 -14.5 2.5t-13.5 2.5q-12 0 -21 -8.5t-22 -8.5q-17 0 -29 14t-20.5 33.5
t-12.5 40.5t-4 34q0 14 4.5 21.5t10.5 14t10.5 15t4.5 23.5q0 9 -0.5 17t-0.5 14q0 30 10 55t22 48t22 44.5t10 44.5q0 9 -8 12t-16 3q-6 0 -11 -1t-8 -1q-1 3 -1 11l2 45q0 25 -23 28q7 20 6 41.5t8 41.5h1q52 -2 95 -4q18 -1 36.5 -1.5t34 -1t26.5 -1t16 -0.5q20 0 41 1
t41 3q-1 -8 -1.5 -16t-0.5 -16l3 -90q0 -11 -2.5 -23t-3.5 -24l-14 2l-13 -18q0 -24 10.5 -45.5t23 -42t23 -41.5t10.5 -46q0 -20 -10.5 -38t-10.5 -37q0 -6 1 -16.5t2 -23.5l2 -26t1 -24q0 -29 -2 -55.5t-5 -55.5q-2 -13 -5 -35.5t-9.5 -44t-17.5 -37t-29 -15.5zM282 -19
q14 0 23.5 15.5t16 40t10.5 54.5t5.5 58.5t2 52.5t0.5 37q0 6 -0.5 13.5t-2 14.5t-4 12t-5.5 5q-4 0 -9.5 -5t-11.5 -11l-12 -12t-10 -9q-9 -5 -16.5 -9.5t-12.5 -10.5t-7.5 -14.5t-2.5 -21.5v-97q0 -8 1 -26.5t5 -38t11 -34t19 -14.5zM200 184q11 0 20.5 7t9.5 19q0 2 -6 5
t-12.5 9.5t-12.5 17.5t-6 28q0 16 6.5 31t6.5 32q0 4 -5 13t-12 17t-13 14.5t-8 6.5q-8 0 -15.5 -5t-14 -12.5t-10.5 -16t-4 -15.5q0 -12 6.5 -37t17.5 -50.5t24.5 -44.5t27.5 -19zM134 163q10 0 20 7.5t10 16.5t-7 16.5t-15 26.5q-10 22 -14.5 39.5t-8.5 29.5t-8.5 18.5
t-14.5 6.5q-7 0 -12 -4.5t-8.5 -11.5t-5 -14t-1.5 -13q0 -8 4.5 -25.5t11.5 -36.5t15 -34.5t15 -18.5q10 -3 19 -3zM67 152q8 0 17.5 6.5t9.5 15.5q-5 10 -9 19q-4 8 -7.5 14.5t-4.5 10.5q-8 20 -11 34.5t-5 24.5t-4.5 14.5t-7.5 4.5q-16 0 -23.5 -17t-7.5 -29
q0 -11 2.5 -27.5t9 -32.5t16.5 -27t25 -11zM229 231q12 0 32.5 15t40.5 36t35 44.5t15 40.5q0 25 -9.5 47.5t-21.5 44t-21.5 44t-9.5 48.5q0 6 -17.5 9.5t-41 5t-47 2t-34.5 0.5q-14 0 -24 -1.5t-19 -7.5q-2 -13 -4.5 -25t-7.5 -24q-8 -21 -17 -37t-17.5 -32t-14 -34
t-5.5 -42v-47q0 -12 12 -12q6 0 9.5 5t8.5 10.5t12 10.5t19 5q3 0 7 5.5t7.5 12t7 13.5t6.5 10q4 5 10 8t12 5.5t10 6.5t4 11l-2 25q0 6 1.5 16t4 21t6 20.5t6.5 13.5l6 -8q-3 -14 -7.5 -28t-4.5 -27q0 -8 2 -23.5t4 -22.5q1 -3 5.5 -10t10.5 -14.5t12.5 -13.5t9.5 -6
q7 0 13.5 6t12 13.5t10 13.5t9.5 7l6 -7q0 -7 -10.5 -17t-22.5 -24t-22 -34t-10 -47q0 -7 7 -19.5t16 -12.5zM304 572q7 0 11 4.5t5.5 11t2 13.5t0.5 13q0 14 -4 24.5t-21 10.5q-14 0 -41 -3t-54 -3q-30 0 -61.5 1t-44.5 1q-17 0 -20.5 -5t-3.5 -15q0 -8 -2 -16.5t-2 -15.5
q0 -10 9.5 -14.5t17.5 -4.5q7 0 20 4t23 4q43 0 66 -1.5t37.5 -3.5t27 -3.5t34.5 -1.5z" />
    <glyph glyph-name="uni2620" unicode="&#x2620;" horiz-adv-x="700" 
d="M350 0l-350 350l350 350l350 -350zM533 386q0 35 -4 64.5t-21 59.5q-3 4 -14 15t-30.5 23t-48.5 21.5t-66 9.5q-50 0 -85 -17.5t-57.5 -42.5t-33 -53.5t-10.5 -50.5q0 -45 2 -67t9 -27q13 -14 26.5 -29t13.5 -31q0 -2 2 -9t4 -15.5t4 -16t2 -10.5q0 -24 4.5 -41.5
t24.5 -34.5q26 -21 45 -31.5t51 -10.5q9 0 24 4t30.5 10t28 14.5t15.5 17.5q1 3 4 14t6.5 23.5t6 23.5t2.5 15t2.5 14t6 21t7.5 20.5t7 12.5q10 9 18 18t13.5 20.5t8 27t2.5 38.5zM493 419q-13 7 -30 17.5t-31 10.5q-8 0 -18.5 -5t-18.5 -10q-11 -6 -20 -14l-15 -3
q6 10 17.5 18.5t23 14.5t20.5 9.5t12 3.5q7 0 16 -5t18 -11.5t16.5 -14t9.5 -11.5zM445 477q-10 0 -23 -4t-26 -10t-24 -13.5t-17 -14.5q0 10 7 18.5t17 15t22 10t22 3.5q5 0 8.5 -1t6.5 -2q4 -1 7 -2zM521 335q0 -1 -5.5 -5.5t-12 -10.5t-12.5 -13t-8 -14q-1 0 -1 2v8
q0 9 5.5 15t12.5 9t13 5t8 4zM487 394q0 -7 -6 -14t-6 -15q0 -4 1 -8.5t1 -9.5q0 -7 -3.5 -16t-8.5 -10q-5 0 -11 2.5t-8 4.5q-8 10 -18.5 13.5t-19.5 8t-15 14.5t-6 32q0 1 2 5.5t6.5 10t11.5 10t18 4.5q5 0 12 -2t8 -2q4 0 7 0.5t5 0.5t7 -3t10 -7.5t9 -9.5t4 -9zM345 432
q-2 6 -13 14t-26 15.5t-29.5 13.5t-22.5 8q4 0 8 1q3 0 7 0.5t8 0.5q8 0 17.5 -1t14.5 -5q14 -8 20.5 -16t10.5 -15q4 -8 5 -16zM474 308q-3 -2 -10.5 -9.5t-15.5 -16t-15 -17.5t-9 -14q4 20 10.5 31.5t13.5 17t14 7t12 1.5zM474 283q0 -3 -7 -9t-15 -13t-15.5 -14t-9.5 -11
q0 6 5.5 13t13 14t15.5 12.5t13 7.5zM337 419q0 -2 -1 -3q-2 -2 -4 -2t-7.5 4.5t-14.5 10.5t-21 10.5t-28 4.5q-12 0 -23.5 -5t-20.5 -10q-11 -6 -20 -14q7 12 17 22q8 8 21 15.5t30 7.5t31 -6.5t23 -14.5q11 -9 18 -20zM432 302q0 -3 -2 -11t-5 -17.5t-5.5 -18.5t-3.5 -15
q-1 1 -1 4v11q0 2 0.5 10.5t2 18t4 17t5.5 7.5q4 0 4.5 -2.5t0.5 -3.5zM384 295q0 -8 -3.5 -15.5t-7.5 -12.5q-5 -6 -11 -12q0 4 -1 17.5t-1.5 29t-1.5 30.5t-2 24q8 -13 14 -24q5 -10 9.5 -20.5t4.5 -16.5zM345 356q-1 -10 -1.5 -25t-1.5 -30t-2 -28t-3 -18q-7 5 -11 11
q-4 5 -7 11.5t-3 13.5q0 9 4.5 20.5t9.5 21.5q6 11 15 23zM312 395q0 -12 -7.5 -27t-9.5 -16q-8 -2 -15 -6.5t-14 -10t-13.5 -9.5t-12.5 -5q-5 0 -8 4t-5 8.5t-3 9t-1 6.5q0 7 0.5 11.5t0.5 8.5q0 5 -4.5 8.5t-4.5 9.5q0 3 2 8.5t5 11t6.5 10t6.5 4.5q2 0 4.5 -0.5t4.5 -0.5
q3 -1 6 -1q5 1 9 3q10 4 14 4q6 0 13 -3.5t12.5 -8t9.5 -10t4 -9.5zM437 152q-4 -5 -11 -18t-13 -16q5 7 9 14q4 6 6.5 12t4.5 11q2 10 7 21.5l10 23t9.5 21.5t5.5 16v-5q0 -2 0.5 -4t0.5 -4zM466 262q-2 -5 -4 -9q-3 -8 -3 -18q0 -3 -2.5 -11.5t-6.5 -17t-9 -15.5t-9 -7
q-3 0 -6 -0.5t-6 -4.5q-8 -8 -14.5 -9.5t-14.5 -1.5q-4 0 -7.5 1.5t-8.5 1.5q-8 0 -15.5 -1.5t-20.5 -1.5q-5 0 -7 1.5t-7 1.5q-2 0 -5 -1.5t-8 -1.5q-14 2 -16.5 4t-11.5 2q-8 0 -10.5 3.5t-5.5 6.5q-1 2 -5 7.5t-8.5 12t-8 15t-3.5 16.5q0 4 0.5 7t0.5 4q0 8 -2 10t-2 4
q0 1 2 1q4 0 5.5 -2.5t2 -6.5t0.5 -7.5t1 -4.5q2 -4 5 -13.5t8 -9.5q3 0 14 3.5t27 5.5q9 1 16 1h15q1 0 2 4t2 9t2 9t3 4q1 0 1 -4q0 -2 -0.5 -5.5t-0.5 -7.5q0 -11 5 -11t5 11l-1 10q0 5 3 5q1 0 2 -4t1.5 -9t1 -9t1.5 -4q7 1 13.5 1h12.5q1 0 6.5 -1t12.5 -1.5t13.5 -1.5
t9.5 -1q8 0 12 6.5t6.5 14t5.5 14t11 6.5zM284 243q0 4 -2.5 12.5t-5.5 17.5t-5 17t-2 11q0 4 1 7t2 5q2 -2 8 -16.5t6 -29.5q0 -11 -0.5 -13t-1.5 -11zM275 250q-18 18 -22.5 36.5t-6.5 25.5q4 0 9.5 -7t9.5 -17t7 -20.5t3 -17.5zM216 292q-2 6 -8 12.5t-13 12.5t-13 10
t-7 6q14 -2 21 -4q4 -2 9 -4q-1 4 -1 8v19v12t1 12zM272 237q-3 6 -7 10q-3 4 -6.5 8t-8.5 7q-14 8 -18 9t-4 13q0 6 0.5 13.5t2.5 11.5q2 -12 8.5 -22t14 -18.5t13 -16t5.5 -15.5zM367 144q0 -2 -1.5 -8t-3 -12.5t-3.5 -12t-4 -6.5q-1 1 -1 5q0 8 4 18.5t9 15.5zM345 105
q-7 8 -8.5 18t-1.5 18q6 0 8.5 -9t2.5 -17t-1 -10zM274 134q-17 0 -31.5 32.5t-14.5 80.5v10q0 3 1 5l2 -10t2 -9.5t1 -6.5l1.5 -14t6 -31t12.5 -34t20 -23zM433 214q0 4 -5 4h-6q-4 0 -4 -4v-8q0 -7 4 -7h6q5 0 5 7v8zM413 218q0 5 -4 5h-11q-4 0 -4 -5v-13q0 -6 4 -6h11
q4 0 4 6v13zM388 218q0 5 -4 5h-7q-2 0 -2 -5v-15q0 -6 2 -6h7q4 0 4 6v15zM417 189q0 4 -5 4h-8q-7 0 -7 -4v-8q0 -3 7 -3h8q5 0 5 3v8zM372 217q0 4 -4 4h-12q-3 0 -3 -4v-14q0 -6 3 -6h12q4 0 4 6v14zM392 189q0 4 -4 4h-9q-3 0 -3 -4v-13q0 -2 3 -2h9q4 0 4 2v13z
M347 219q0 5 -3 5h-9q-5 0 -5 -5v-14q0 -6 5 -6h9q3 0 3 6v14zM372 189q0 3 -4 3h-10q-3 0 -3 -3v-13q0 -2 3 -2h10q4 0 4 2v13zM325 220q0 5 -1 5h-7q-4 0 -4 -5v-17q0 -6 4 -6h7q1 0 1 6v17zM349 189q0 4 -4 4h-9q-4 0 -4 -4v-11q0 -4 4 -4h9q4 0 4 4v11zM310 218
q0 5 -4 5h-9q-5 0 -5 -5v-15q0 -6 5 -6h9q4 0 4 6v15zM328 189q0 3 -3 3h-8q-4 0 -4 -3v-11q0 -3 4 -3h8q3 0 3 3v11zM289 214q0 4 -4 4h-7q-4 0 -4 -4v-11q0 -6 4 -6h7q4 0 4 6v11zM310 188q0 3 -4 3h-5q-7 0 -7 -3v-10q0 -3 7 -3h5q4 0 4 3v10zM289 189q0 3 -4 3h-5
q-5 0 -5 -3v-8q0 -3 5 -3h5q4 0 4 3v8z" />
    <glyph glyph-name="uni2622" unicode="&#x2622;" horiz-adv-x="694" 
d="M693 322q0 -3 -11 -10.5t-27 -17.5t-34 -20t-30 -17q-15 -12 -30 -25.5t-30 -24.5t-29.5 -18.5t-27.5 -7.5q-9 0 -17 8.5t-15.5 21.5t-15 29.5t-13.5 33.5q-54 -26 -93.5 -54t-55.5 -45q21 -44 36.5 -73.5t21.5 -41.5q8 -16 12.5 -24.5t4.5 -12.5q0 -9 -9.5 -14.5
t-15.5 -5.5q-10 0 -15 3t-7.5 8.5t-4.5 12t-5 13.5l-241 510q-2 6 -6 6q-3 0 -7 -4t-12 -4t-12 7.5t-4 12.5q0 18 18.5 34.5t45.5 16.5q13 0 18.5 -5t5.5 -10q0 -10 -7 -18t-12 -13q0 -1 2 -6l4 -10q6 6 17 15.5t25 20t29 21.5t30 19q22 13 48 23.5t48.5 18t39 11.5t20.5 4
q2 0 8.5 -9.5t15 -25t19 -35t21.5 -40.5q10 9 27.5 22t37 26t38 22t29.5 9zM517 621q-22 -11 -49.5 -24.5t-56.5 -46.5q5 -9 8.5 -16.5t7.5 -15.5q9 10 23.5 21t29.5 21t29.5 18t23.5 13zM548 560q-12 -5 -27 -13t-30 -18t-28.5 -20.5t-21.5 -21.5q4 -9 8 -17.5t7 -14.5
q8 10 21.5 21t29 20.5t30.5 18t26 14.5zM578 499q-27 -14 -51 -30.5t-57 -45.5q4 -5 7 -14t8 -20q10 10 24.5 22t30 22t31 18t26.5 11zM325 639q0 9 -3 15t-13 6q-8 0 -13 -5.5t-5 -12.5t5.5 -12t13.5 -5q15 0 15 14zM610 434q-23 -12 -54.5 -30t-57.5 -44q6 -13 10.5 -23
t6.5 -15q29 32 55.5 48.5t55.5 32.5zM349 590q0 7 -3.5 12.5t-15.5 5.5q-4 0 -7.5 -5.5t-3.5 -11.5q0 -8 2.5 -13t7.5 -5q20 0 20 17zM382 530q0 19 -12 19q-18 0 -18 -19q0 -14 17 -14q5 0 9 3t4 11zM275 621q0 10 -2.5 15.5t-16.5 5.5q-6 0 -10 -6t-4 -13q0 -16 16 -16
q17 0 17 14zM641 372q-29 -9 -58 -33t-58 -47q-5 -11 -14 -21t-18 -17.5t-15.5 -12.5t-6.5 -6q0 -5 5 -9.5t12 -4.5q14 0 33.5 14.5t42 33.5t47 38t48.5 29zM300 572q0 8 -3.5 14t-14.5 6q-4 0 -8 -6t-4 -14q0 -6 4 -11t9 -5q7 0 12 5t5 11zM333 516q0 8 -5 12t-11 4
q-5 0 -9.5 -5.5t-4.5 -11.5q0 -7 4.5 -12t11.5 -5q5 0 9.5 5t4.5 13zM226 602q0 6 -2 11t-16 5q-6 0 -10 -5.5t-4 -10.5q0 -6 4 -10.5t11 -4.5q17 0 17 15zM250 549q0 9 -3 14t-13 5q-5 0 -9 -5.5t-4 -12.5q0 -8 4.5 -12.5t9.5 -4.5t10 4.5t5 11.5zM283 491q0 5 -2 13t-14 8
q-8 0 -12 -6t-4 -13t4.5 -12.5t13.5 -5.5q14 0 14 16zM492 308q-11 -6 -23 -13t-23 -12q3 -6 6.5 -15.5t5.5 -9.5t7 3.5t11 10t10.5 15.5t5.5 21zM180 575q0 10 -3 16t-14 6q-4 0 -8 -6.5t-4 -14.5q0 -7 4 -11.5t9 -4.5q16 0 16 15zM407 501q-24 -6 -57.5 -22t-67.5 -36
t-64.5 -41t-48.5 -37l18 -36q22 23 56 46.5t69 43t65.5 32t45.5 14.5zM202 521q0 8 -2 13.5t-15 5.5q-5 0 -8.5 -5.5t-3.5 -11.5t3.5 -11t10.5 -5q15 0 15 14zM234 460q0 8 -2 14.5t-15 6.5q-6 0 -10 -7t-4 -13q0 -4 4 -8t12 -4q15 0 15 11zM452 404q-1 2 -3.5 7.5
t-5.5 11.5q-4 7 -7 15q-23 -8 -55.5 -21.5t-66 -31.5t-64 -39t-50.5 -43l18 -35q21 21 54.5 43t68 41t65 33t46.5 19zM137 540q0 10 -2 15.5t-13 5.5q-7 0 -11 -5.5t-4 -13.5q0 -14 16 -14q14 0 14 12zM465 374q-24 -8 -54 -22t-61.5 -32t-61.5 -39.5t-54 -44.5l15 -30
q17 16 48 36.5t65.5 39.5t67 33.5t52.5 17.5zM164 490q0 5 -3.5 12.5t-15.5 7.5q-5 0 -9 -6.5t-4 -13.5t4 -12.5t10 -5.5q8 0 13 5.5t5 12.5zM189 427q0 12 -3 17.5t-14 5.5q-14 0 -14 -20q0 -16 16 -16q5 0 10 3.5t5 9.5z" />
    <glyph glyph-name="uni2629" unicode="&#x2629;" horiz-adv-x="741" 
d="M336 0q-24 0 -49 -2.5t-46.5 -6t-37 -7t-19.5 -4.5q2 1 12 12t21 33.5t19.5 57t8.5 83.5v75h91v-150h70v150h91v-75q0 -51 8.5 -86t19 -56.5t20.5 -32t13 -11.5q-3 1 -18 4t-36.5 6.5t-47 6.5t-50.5 3h-70zM24 403q0 21 -3.5 46t-8 47t-8 38t-4.5 19q1 -3 12 -13.5
t33.5 -21t57 -19t83.5 -8.5h59v-88h-134v-77h134v-85h-59q-51 0 -86 -9t-56.5 -20.5t-32 -21.5t-11.5 -12q1 4 5 19.5t8 37t7.5 46t3.5 45.5v77zM631 326v77h-134v88h59q51 0 85 8.5t55.5 19t32 20.5t12.5 13q-1 -4 -4.5 -19t-7.5 -36.5t-7.5 -46t-3.5 -47.5v-77
q0 -67 10 -102.5t13 -43.5q-6 5 -20.5 15.5t-37 20.5t-54.5 17.5t-73 7.5h-59v85h134zM336 491h-91v45q0 48 -8 82t-18.5 56t-20 33.5t-12.5 13.5q2 -2 38 -11.5t112 -9.5h70q27 0 53 3t46.5 6.5t34.5 7t17 4.5q-2 -1 -12 -11t-20.5 -32t-19 -56.5t-8.5 -85.5v-45h-91v120
h-70v-120zM245 403h91v-77h-91v77zM336 326h70v-85h-70v85zM336 491h70v-88h-70v88zM406 403h91v-77h-91v77z" />
    <glyph glyph-name="heart" unicode="&#x2665;" horiz-adv-x="626" 
d="M626 560q0 -40 -14 -80t-35.5 -79t-48.5 -76t-53.5 -70t-49.5 -61t-37 -50q-48 -73 -75 -158q-38 131 -172 304q-43 55 -70.5 94.5t-43 70t-21.5 54.5t-6 50q0 30 11.5 57t31.5 47.5t47 32t57 11.5q61 0 105 -39t61 -105q7 30 22 56t36 45.5t47.5 31t56.5 11.5
q32 0 59.5 -11.5t48 -31t32 -46.5t11.5 -58z" />
    <glyph glyph-name="uni2672" unicode="&#x2672;" horiz-adv-x="700" 
d="M535 474h-154l42 28l-89 147q-5 8 -11 17.5t-20 20.5h176q23 0 43 -36l45 -70l47 25zM700 332q0 -90 -91 -90q-20 0 -35 10.5t-25 27.5l-69 123l142 73q5 -8 21.5 -34t44.5 -74q12 -14 12 -36zM343 596q0 -7 -4.5 -16t-13.5 -25l-72 -121l-143 82q8 14 27.5 49t55.5 92
q9 14 25.5 21.5t36.5 7.5q13 0 28.5 -9t29 -22.5t22 -29t8.5 -29.5zM588 89q-15 -23 -55 -23h-66v-69l-83 137l82 159v-66h157q20 0 48 11zM194 338l-49 -77q-13 -28 -43 -28q-16 0 -33 6t-30.5 17.5t-22.5 26.5t-9 33q4 4 4.5 12t5.5 18l37 62l-55 31l156 12l99 -142z
M197 66q-21 0 -37.5 11t-32.5 32t-35 51.5t-44 69.5q13 -7 50 -7h239v-157h-140zM563 562l-51 82q-19 30 -33 30h-146q11 -12 14 -18l94 -157l-16 -12h102l50 83zM687 332q-1 7 -3 16t-8 18l-58 93l-118 -62q11 -22 25 -48.5t34 -61.5q17 -30 50 -30q39 0 58.5 18t19.5 57z
M328 596q0 10 -7 23.5t-18 25.5t-24 20t-24 8q-34 0 -49 -23q-14 -23 -33.5 -54.5t-43.5 -73.5l119 -68l69 108q11 25 11 34zM645 219q-7 -1 -12.5 -1.5t-9.5 -0.5h-170v23l-52 -106l54 -88v33h78q33 0 42 16zM148 435l-105 -8l30 -15l-43 -74q-10 -18 -10 -22q0 -30 25 -49
t57 -19q21 0 33 20l55 89l29 -19zM325 211h-227q-5 0 -10 0.5t-12 1.5q7 -14 20 -36.5t29.5 -44t35 -37.5t36.5 -16h128v132z" />
    <glyph glyph-name="uni267B" unicode="&#x267b;" horiz-adv-x="701" 
d="M536 474h-154l42 28l-89 147q-5 8 -11 17.5t-20 20.5h176q23 0 43 -36l45 -70l47 25zM701 332q0 -90 -91 -90q-20 0 -35 10.5t-25 27.5l-69 123l142 73q8 -13 23.5 -37.5t42.5 -70.5q12 -14 12 -36zM253 682q25 -6 45 -17q17 -10 31 -26.5t14 -43.5q0 -12 -17 -40
l-72 -121l-143 82q3 7 16.5 29.5l28.5 47.5q18 29 38 64q8 14 23 19.5t36 5.5zM589 89q-15 -23 -55 -23h-66v-69l-83 137l82 159v-66h157q20 0 48 11zM195 338l-49 -77q-7 -14 -17.5 -19.5t-25.5 -5.5q-17 0 -33.5 5.5t-30.5 16t-22.5 25t-8.5 33.5q3 4 4 12t6 18l37 62
l-55 31l156 12l99 -142zM198 66q-21 0 -37.5 11t-32.5 32t-35 51.5t-44 69.5q13 -7 50 -7h239v-157h-140z" />
    <glyph glyph-name="uni269C" unicode="&#x269c;" horiz-adv-x="698" 
d="M698 329q0 -20 -8 -35t-20.5 -25t-28 -15t-30.5 -5q-9 0 -16 1.5t-21 1.5q-11 0 -19 -2.5t-17 -7.5q1 19 10 29.5t20 16.5t20 10t9 12q0 11 -6 17t-15 9t-19 4t-18 1q-25 0 -45.5 -10.5t-36.5 -28t-27 -39t-17 -43.5h-32q6 35 25 72t47.5 67t64 49.5t75.5 19.5
q49 0 77 -24t28 -75zM421 513q0 -47 -8.5 -87t-19.5 -76t-20.5 -68t-12.5 -62h-26q-2 33 -14.5 65.5t-26.5 67.5t-25.5 73t-11.5 80q0 20 6 38t15 35t19.5 33.5t19.5 33.5q7 14 14.5 27t12.5 27q34 -42 56 -87.5t22 -99.5zM446 156h-201v46h203zM448 79q-5 -5 -13.5 -12
t-16.5 -7t-15 8.5t-12.5 21t-8.5 25.5t-3 22h21q8 -16 21 -31.5t27 -26.5zM288 220q-11 22 -22 44.5t-26 39.5t-35.5 28t-49.5 11q-17 0 -27.5 -7.5t-10.5 -26.5q0 -14 7 -19t15.5 -9.5t16.5 -12t10 -25.5q-7 2 -14.5 3.5t-15.5 1.5q-10 0 -18 -3t-21 -3q-17 0 -34 5t-31 16
t-23 28.5t-9 41.5q0 22 11.5 40t29 31.5t38.5 21t41 7.5q40 0 73.5 -19t58.5 -49.5t41 -68.5t22 -76h-27zM395 0q-12 2 -23.5 3.5t-23.5 1.5q-23 0 -51 -5q19 43 26.5 74.5t10.5 63.5h21q5 -42 13.5 -72t26.5 -66zM311 137q0 -22 -5 -35.5t-12.5 -21t-15 -10.5t-12.5 -3
q-6 0 -15 2t-14 10q7 3 15 10.5t15.5 16t14 17t9.5 14.5h20z" />
    <glyph glyph-name="uni269D" unicode="&#x269d;" horiz-adv-x="744" 
d="M67 323q-67 43 -67 102q0 19 8 37t22.5 32t33.5 22t41 8q44 0 82.5 -27t68.5 -69q12 -17 24.5 -42t22.5 -50.5t16.5 -47t6.5 -31.5h25q0 24 -13.5 61t-30 77.5t-30 81t-13.5 70.5q0 31 13 62t31 55.5t37 39.5t31 15q13 0 31 -14t34 -37t27.5 -52.5t11.5 -61.5
t-13.5 -69.5t-29.5 -77t-29.5 -78t-13.5 -72.5h23q9 47 31 94t53.5 84.5t70 60.5t82.5 23q39 0 64.5 -26t25.5 -63q0 -28 -15 -52t-50 -45q-14 -10 -29 -28t-15 -31q0 -9 7.5 -12.5t17 -6.5t17 -9t7.5 -19q0 -11 -14.5 -19t-27.5 -8q-19 0 -29 8t-15 20t-6 27.5t-1 30.5
q0 35 -16.5 51t-50.5 16q-15 0 -28 -9t-24 -22.5t-18 -31t-10 -33.5q20 0 23.5 -3t3.5 -17q0 -25 -7 -30t-24 -5q0 -6 1.5 -18.5t4.5 -25t8.5 -21.5t13.5 -9q14 0 22.5 8t20.5 8q14 0 25 -12.5t11 -27.5t-14 -27.5t-35 -12.5q-18 0 -39 18.5t-32 50.5q-4 8 -10.5 29t-6.5 40
h-16q0 -9 4 -30t9 -43.5t9 -42t4 -24.5q0 -11 -4 -22.5t-11 -21t-15.5 -15.5t-18.5 -6q-8 0 -16 6t-15 15t-11.5 20t-4.5 21q0 4 4 23.5t9.5 43t9.5 45.5t4 31h-18q0 -24 -6 -48.5t-17.5 -44.5t-28 -33t-37.5 -13q-23 0 -34 13.5t-11 30.5t9 27.5t26 10.5q8 0 13 -4t8.5 -9
t8 -9t12.5 -4q9 0 14 8t7.5 20t3.5 26.5t1 28.5q-18 0 -22.5 6.5t-4.5 24.5q0 16 4 20t20 4q-3 21 -11.5 38.5t-21 30.5t-27.5 20.5t-31 7.5q-25 0 -39.5 -15.5t-14.5 -44.5q0 -5 3 -19.5t3 -21.5q0 -20 -15.5 -34.5t-35.5 -14.5q-14 0 -27.5 8.5t-13.5 24.5q0 12 6 16
t12.5 6t12.5 4t6 11q0 11 -11.5 21t-26.5 28z" />
    <glyph glyph-name="uni272A" unicode="&#x272a;" horiz-adv-x="693" 
d="M693 349q0 -71 -27 -134t-74 -110.5t-110 -75t-135 -27.5q-71 0 -134 27.5t-110 74.5t-75 109.5t-28 133.5q0 73 28 136.5t75.5 110.5t110.5 74t134 27q70 0 133 -27.5t110 -74.5t74.5 -110t27.5 -134zM420 453l-74 216l-72 -216h-234l186 -139l-77 -228l197 142
l187 -142l-68 228l190 139h-235z" />
    <glyph glyph-name="uni272E" unicode="&#x272e;" horiz-adv-x="707" 
d="M487 269l85 -262l-218 161l-217 -161l86 262l-223 162h273l81 255l79 -255h274zM420 411l-66 205l-67 -205h-219l179 -134l-68 -210l175 130l176 -130l-67 210l176 134h-219zM534 377l-112 -84l43 -133l-111 82l-110 -82l42 133l-112 84h138l42 130l41 -130h139z" />
    <glyph glyph-name="uni2756" unicode="&#x2756;" horiz-adv-x="702" 
d="M544 205l-146 145l148 147l156 -153zM351 397l-146 147l146 157l146 -158zM157 205l-157 145l155 147l148 -147zM351 -6l-146 161l146 148l149 -148z" />
    <glyph glyph-name="uni2766" unicode="&#x2766;" horiz-adv-x="685" 
d="M561 595q22 0 44.5 -17.5t39.5 -42.5t28 -53t11 -48q0 -42 -11.5 -69.5t-33 -45t-51 -28t-65.5 -18.5q-6 -1 -6 -8q0 -14 3.5 -38t11.5 -46.5t21 -39t31 -16.5q19 0 19 16q0 8 -4 15.5t-4 17.5q0 19 11 29t29 10q23 0 36.5 -16t13.5 -39q0 -32 -24 -49.5t-53 -17.5
q-33 0 -53 20t-31.5 47t-17 56t-9.5 47q-2 6 -7 7.5t-11 1.5q-13 0 -19.5 -4t-9.5 -10.5t-4.5 -14t-4.5 -14.5q-17 -39 -44 -61t-72 -22q-32 0 -57.5 15.5t-37.5 46.5q-5 12 -24.5 19t-44 12t-48 9.5t-36.5 11.5q-5 3 -11.5 10.5t-13.5 15.5t-13 14t-9 6q-8 0 -10.5 -1.5
t-7.5 -1.5t-8.5 3t-3.5 10q0 11 13 11q5 0 8.5 -2t8.5 -2q4 0 9.5 4t11.5 9.5t11.5 11l8.5 8.5q17 12 34.5 16t35.5 4q15 0 29.5 -1.5t27.5 -1.5q15 0 26 3.5t17 14.5q13 22 34.5 37.5t47.5 15.5q34 0 58 -11.5t39.5 -31t24 -46t11.5 -55.5q2 -8 10.5 -10t14.5 -2
q7 0 11 1.5t4 9.5q0 31 6 60t20 53t36.5 41t55.5 25q3 1 6 2.5t3 5.5q0 10 -14 20.5t-31 22t-31 23.5t-14 26t8.5 16.5t19.5 2.5zM634 459q-32 0 -55 -13.5t-37.5 -35.5t-21.5 -49.5t-7 -55.5q0 -5 1 -10t6 -5q23 0 47.5 8.5t45 24t33.5 37t13 46.5q0 6 -1 15t-3.5 17.5
t-7.5 14.5t-13 6zM298 394q-7 0 -15 -4.5t-8 -12.5t7 -13.5t16 -12.5t16 -18t7 -31q0 -24 -9 -37.5t-20 -21.5t-20 -13.5t-9 -14.5q0 -11 9.5 -15.5t18.5 -4.5q19 0 35.5 9.5t28.5 25t19 34t7 36.5q0 14 -7.5 30.5t-19.5 30.5t-26.5 23.5t-29.5 9.5z" />
    <glyph glyph-name="uni2767" unicode="&#x2767;" horiz-adv-x="504" 
d="M0 135q0 11 2.5 19.5t16.5 8.5t26 -14t23.5 -31t21.5 -31t21 -14q4 0 5.5 3t2.5 6q8 33 25 55.5t41 36.5t53 20t60 6q8 0 9.5 4t1.5 11q0 6 -2 14.5t-10 10.5q-29 3 -55.5 11.5t-46 24t-31 39.5t-11.5 58q0 26 15.5 47.5t37.5 34.5q11 6 14.5 17t3.5 26q0 13 -1.5 27.5
t-1.5 29.5q0 18 4 35.5t16 34.5l8.5 8.5t11 11.5t9.5 11.5t4 9.5q0 5 -2 8.5t-2 8.5q0 13 11 13q7 0 10 -3.5t3 -8.5t-1.5 -7.5t-1.5 -10.5q0 -3 6 -9t14 -13t15.5 -14t10.5 -11q7 -13 11.5 -36.5t9.5 -48t12 -44.5t19 -24q31 -12 46.5 -37.5t15.5 -57.5q0 -45 -22 -72
t-61 -44q-7 -3 -14.5 -4.5t-14 -4.5t-10.5 -9.5t-4 -19.5q0 -6 1.5 -11t7.5 -7q18 -4 47 -9.5t56 -17t47 -31.5t20 -53q0 -29 -17.5 -53t-49.5 -24q-23 0 -39 13.5t-16 36.5q0 18 10 29t29 11q10 0 17.5 -4t15.5 -4q16 0 16 19q0 18 -16.5 31t-39 21t-46.5 11.5t-38 3.5
q-7 0 -8 -6q-8 -36 -18.5 -65.5t-28 -51t-45 -33t-69.5 -11.5q-20 0 -48 11t-53 28t-42.5 39t-17.5 45zM136 62q0 -8 6 -13t14.5 -7.5t17.5 -3.5t15 -1q25 0 46.5 13t37 33t24 45t8.5 48q0 5 -5 6t-10 1q-28 0 -55.5 -7t-49.5 -21.5t-35.5 -37.5t-13.5 -55zM201 398
q0 -15 9.5 -29.5t23.5 -26.5t30.5 -19.5t30.5 -7.5q18 0 36.5 7t34 19t25 28.5t9.5 35.5q0 9 -4.5 18.5t-15.5 9.5q-9 0 -14.5 -9t-13.5 -20t-21.5 -20t-37.5 -9q-20 0 -31 7t-18 16t-12.5 16t-13.5 7t-12.5 -8t-4.5 -15z" />
    <glyph glyph-name="uni2776" unicode="&#x2776;" horiz-adv-x="685" 
d="M124 595q11 0 19.5 -2.5t8.5 -16.5t-14 -26t-31 -23.5t-31 -22t-14 -20.5q0 -4 3 -5.5t6 -2.5q33 -8 55.5 -25t36.5 -41t20 -53t6 -60q0 -8 4 -9.5t11 -1.5q6 0 14.5 2t10.5 10q3 29 11.5 55.5t24 46t39.5 31t58 11.5q26 0 47.5 -15.5t34.5 -37.5q6 -11 17 -14.5t26 -3.5
q13 0 27.5 1.5t29.5 1.5q18 0 35.5 -4t34.5 -16l8.5 -8.5t11.5 -11t11.5 -9.5t9.5 -4q5 0 8.5 2t8.5 2q13 0 13 -11q0 -7 -3.5 -10t-8.5 -3t-7.5 1.5t-10.5 1.5q-3 0 -9 -6t-13 -14t-14 -15.5t-11 -10.5q-13 -7 -36.5 -11.5t-48 -9.5t-44.5 -12t-24 -19q-12 -31 -37.5 -46.5
t-57.5 -15.5q-45 0 -72 22t-44 61q-3 7 -4.5 14.5t-4.5 14t-9.5 10.5t-19.5 4q-6 0 -11 -1.5t-7 -7.5q-4 -18 -9.5 -47t-17 -56t-31.5 -47t-53 -20q-29 0 -53 17.5t-24 49.5q0 23 13.5 39t36.5 16q18 0 29 -10t11 -29q0 -10 -4 -17.5t-4 -15.5q0 -16 19 -16q18 0 31 16.5
t21 39t11.5 46.5t3.5 38q0 7 -6 8q-36 8 -65.5 18.5t-51 28t-33 45t-11.5 69.5q0 20 11 48t28 53t39 42.5t45 17.5zM51 459q-8 0 -13 -6t-7.5 -14.5t-3.5 -17.5t-1 -15q0 -25 13 -46.5t33 -37t45 -24t48 -8.5q5 0 6 5t1 10q0 28 -7 55.5t-21.5 49.5t-37.5 35.5t-55 13.5z
M387 394q-15 0 -29.5 -9.5t-26.5 -23.5t-19.5 -30.5t-7.5 -30.5q0 -18 7 -36.5t19 -34t28.5 -25t35.5 -9.5q9 0 18.5 4.5t9.5 15.5q0 9 -9 14.5t-20 13.5t-20 21.5t-9 37.5q0 20 7 31t16 18t16 12.5t7 13.5t-8 12.5t-15 4.5z" />
    <glyph glyph-name="uni2777" unicode="&#x2777;" horiz-adv-x="504" 
d="M504 571q0 -11 -2.5 -19.5t-16.5 -8.5t-26 14t-23.5 31t-22 31t-20.5 14q-4 0 -5.5 -3t-2.5 -6q-8 -33 -25 -55.5t-41 -36.5t-53 -20t-60 -6q-8 0 -9.5 -4t-1.5 -11q0 -6 2 -14.5t10 -10.5q29 -3 55.5 -11.5t46 -24t31 -39.5t11.5 -58q0 -26 -15.5 -47.5t-37.5 -34.5
q-11 -6 -14.5 -17t-3.5 -26q0 -13 1.5 -27.5t1.5 -29.5q0 -18 -4 -35.5t-16 -34.5l-8.5 -8.5t-11 -11.5t-9.5 -11.5t-4 -9.5q0 -5 2 -8.5t2 -8.5q0 -13 -11 -13q-7 0 -10 3.5t-3 8.5t1.5 7.5t1.5 10.5q0 3 -6 9t-14 13t-15.5 13.5t-10.5 11.5q-7 13 -11.5 36.5t-9.5 48
t-12 44t-19 24.5q-31 12 -46.5 37.5t-15.5 57.5q0 45 22 72t61 44q7 3 14.5 4.5t14 4.5t10.5 9.5t4 19.5q0 6 -1.5 11t-7.5 7q-18 4 -47 9.5t-56 17t-47 31.5t-20 53q0 29 17.5 53t49.5 24q23 0 39 -13.5t16 -36.5q0 -18 -10 -29t-29 -11q-10 0 -17.5 4t-15.5 4
q-16 0 -16 -19q0 -18 16.5 -31t39 -21t46.5 -11.5t38 -3.5q7 0 8 6q8 36 18.5 65.5t28 51t45 33t69.5 11.5q20 0 48 -11t53 -28t42.5 -39.5t17.5 -44.5zM368 644q0 8 -6 13t-14.5 7.5t-17.5 3.5t-15 1q-25 0 -46.5 -13t-37 -33.5t-24 -45t-8.5 -47.5q0 -5 5 -6t10 -1
q28 0 55.5 7t49.5 21.5t35.5 37.5t13.5 55zM303 308q0 15 -9.5 29.5t-23.5 26.5t-30.5 19.5t-30.5 7.5q-18 0 -36.5 -7t-34 -19t-25 -28.5t-9.5 -35.5q0 -9 4.5 -18.5t15.5 -9.5q9 0 14.5 9t13.5 20t21.5 20t37.5 9q20 0 31 -7t18 -16t12.5 -16t13.5 -7t12.5 8t4.5 15z" />
    <glyph glyph-name="commaaccent" unicode="&#xf6c3;" horiz-adv-x="154" 
d="M47 -40h60v-72l-20 -83h-30l19 83h-29v72z" />
    <glyph glyph-name="CastleType" horiz-adv-x="539" 
d="M451 163v276h-73v-93h-8v73h-57v85h-87v-85h-57v-73h-8v93h-73v-276h-88v537h539v-537h-88zM220 163v149q0 27 13.5 43.5t36.5 16.5t36 -16t13 -44v-149h-99zM464 499h-22v-19h-16v31h-24v-31h-14v19h-23v-52h99v52zM326 566h-26v-20h-15v32h-31v-32h-15v20h-26v-51h113
v51zM174 499h-23v-19h-14v31h-24v-31h-16v19h-22v-52h99v52zM34 85v19q0 5 -2 8.5t-8 3.5q-5 0 -7 -4t-2 -9v-81q0 -5 2 -8.5t8 -3.5t7.5 3.5t1.5 8.5v24h14v-27q0 -5 -4.5 -13t-18.5 -8t-19.5 8t-5.5 18v78q0 10 6 18t18 8q15 0 19.5 -8.5t4.5 -17.5v-17h-14zM85 63
q-2 10 -2 18t-1 13q-1 6 -1 11h-1q0 -5 -1 -11q-1 -9 -3 -31l-3 -30h16zM93 0l-2 20h-19l-3 -20h-15l17 126h20l17 -126h-15zM160 27q0 -14 -4.5 -21.5t-18.5 -7.5q-15 0 -19.5 9t-4.5 21v16h15v-16q0 -18 8 -18q9 0 9 18q0 8 -4.5 16.5t-10.5 16.5t-10.5 17t-4.5 18
q0 18 5.5 25t19.5 7q10 0 15 -6.5t5 -23.5v-12h-13v12q0 18 -9 18q-8 0 -8 -20q0 -7 4.5 -14t10.5 -15.5t10.5 -18t4.5 -21.5zM198 113v-113h-15v113h-18v13h51v-13h-18zM224 0v126h16v-113h25v-13h-41zM272 0v126h41v-13h-25v-41h21v-13h-21v-46h26v-13h-42zM353 113v-113
h-15v113h-18v13h51v-13h-18zM414 55v-55h-16v55l-22 71h16l14 -49l14 49h16zM474 106q0 7 -9 7h-9v-44h9q9 0 9 10v27zM490 75q0 -7 -6 -13.5t-14 -6.5h-14v-55h-15v126h28q8 0 14.5 -6t6.5 -14v-31zM498 0v126h41v-13h-25v-41h21v-13h-21v-46h25v-13h-41z" />
    <glyph glyph-name="bullet.a" horiz-adv-x="306" 
d="M153 276l-84 84l84 84l84 -84z" />
    <glyph glyph-name="bullet.b" horiz-adv-x="306" 
d="M193 342l25 -78l-65 48l-65 -48l25 78l-67 49h82l25 76l23 -76h83z" />
    <glyph glyph-name="bullet.c" horiz-adv-x="306" 
d="M76 360q0 33 22.5 54.5t54.5 21.5t54 -21t22 -55q0 -33 -22 -55t-54 -22t-54.5 21.5t-22.5 55.5z" />
    <glyph glyph-name="bullet.d" horiz-adv-x="306" 
d="M153 276l-84 84l84 84l84 -84zM193 360l-40 40l-41 -40l41 -41z" />
    <glyph glyph-name="bullet.e" horiz-adv-x="306" 
d="M91 360q0 -28 18 -45t44 -17t43.5 17.5t17.5 44.5t-17.5 44t-43.5 17t-44 -17t-18 -44zM117 360q0 15 10.5 25t25.5 10t25 -10t10 -25q0 -16 -10 -26t-25 -10t-25.5 10t-10.5 26zM69 360q0 36 24.5 60t59.5 24t59.5 -23.5t24.5 -60.5q0 -36 -24.5 -60t-59.5 -24
t-59.5 23.5t-24.5 60.5z" />
    <glyph glyph-name="bullet.f" horiz-adv-x="306" 
d="M85 289v136h136v-136h-136zM188 322v70h-70v-70h70z" />
    <glyph glyph-name="bullet.g" horiz-adv-x="306" 
d="M153 462l102 -102l-102 -102l-102 102zM70 360l83 -83l82 83l-82 82zM154 404l43 -43l-43 -44l-44 44z" />
    <glyph glyph-name="orn.01" horiz-adv-x="1420" 
d="M822 185l20 5q9 2 21.5 3.5t27.5 1.5q99 0 171 -16t123.5 -34.5t86 -34.5t59.5 -16q30 0 53.5 14.5t23.5 40.5q0 33 -31 59t-81.5 43.5t-115.5 27t-132 9.5q-65 0 -138.5 -12.5t-148.5 -31.5t-147.5 -41.5t-134.5 -42t-110 -33t-74 -15.5q3 -14 3 -29q0 -8 -0.5 -17
t-2.5 -17h-8q1 5 1.5 10t0.5 11q0 17 -5 42q-14 1 -27.5 6.5t-26.5 13.5q-31 -26 -59.5 -50t-52.5 -42t-42.5 -29t-28.5 -11q-24 0 -35.5 11.5t-11.5 27.5q0 17 6 28.5t18 20.5l5 -5q-17 -15 -17 -31q0 -9 7 -15.5t23 -6.5q9 0 19 5t20.5 12.5t20.5 15.5t18 15l88 70
q-29 26 -29 46q0 18 19 18q28 0 57 -26l92 74q76 61 152 115.5t155.5 95.5t164.5 65t180 24q80 0 117 -21t37 -56q0 -39 -27 -58.5t-72 -28t-103.5 -11.5t-121.5 -9q-66 -7 -131 -23t-120 -51l-4 8q62 40 125 61.5t127 28.5q63 7 120.5 7.5t101 5.5t69 20t25.5 51
q0 10 -7 21t-24 21t-44.5 16.5t-67.5 6.5q-61 0 -124 -16.5t-126.5 -45t-126.5 -66t-122.5 -79.5t-116 -86t-106.5 -85l-6 -5q5 -7 9 -14.5t8 -16.5q17 2 59.5 16t102 33t132 41t150 40.5t156 31t149.5 12.5q88 0 159 -14t121 -36.5t76.5 -51t26.5 -57.5t-26 -48t-63 -19
q-35 0 -79 16t-98.5 34.5t-120 34.5t-142.5 16q-14 0 -33 -2.5t-34 -6.5zM39 482q-11 12 -20 26q-8 12 -13.5 28.5t-5.5 36.5q0 25 10.5 48.5t29.5 40.5t44.5 27.5t54.5 10.5q34 0 62.5 -13t49 -33.5t32 -46t11.5 -50.5q0 -23 -8 -41q25 -14 40.5 -43.5t15.5 -64.5
q0 -36 -12 -63t-30.5 -45t-41 -27t-43.5 -9q-17 0 -26 3q-5 2 -8 4l3 7q6 -2 11 -3t10 -1.5t10 -0.5q23 0 44.5 9.5t38 27.5t26.5 42.5t10 54.5q0 32 -14 60.5t-37 41.5q-13 -24 -34 -24q-12 0 -18 5t-6 13t8 15t20 7q14 0 26 -6q4 10 5.5 20t1.5 18q0 23 -11.5 47t-31 44
t-47 32.5t-58.5 12.5q-23 0 -46 -8.5t-41.5 -24t-30 -37.5t-11.5 -50q0 -18 5.5 -34t13.5 -28q9 -14 20 -25zM187 196q0 -8 10 -17.5t24 -19.5l28 23q-21 23 -52 23q-10 0 -10 -9zM251 493q15 0 25 19q-12 5 -23 5q-8 0 -13.5 -4.5t-5.5 -9.5q0 -10 17 -10zM246 146
q17 -9 31 -11q-5 15 -12 26z" />
    <glyph glyph-name="orn.02" horiz-adv-x="1420" 
d="M39 482q-11 12 -20 26q-8 12 -13.5 28.5t-5.5 36.5q0 25 10.5 48.5t29.5 40.5t44.5 27.5t54.5 10.5q34 0 62.5 -13t49 -33.5t32 -46t11.5 -50.5q0 -23 -8 -41q25 -14 40.5 -43.5t15.5 -64.5q0 -36 -12 -63t-30.5 -45t-41 -27t-43.5 -9q-17 0 -26 3q-5 2 -8 4l3 7
q6 -2 11 -3t10 -1.5t10 -0.5q23 0 44.5 9.5t38 27.5t26.5 42.5t10 54.5q0 32 -14 60.5t-37 41.5q-13 -24 -34 -24q-12 0 -18 5t-6 13t8 15t20 7q14 0 26 -6q4 10 5.5 20t1.5 18q0 23 -11.5 47t-31 44t-47 32.5t-58.5 12.5q-23 0 -46 -8.5t-41.5 -24t-30 -37.5t-11.5 -50
q0 -18 5.5 -34t13.5 -28q9 -14 20 -25zM251 493q15 0 25 19q-12 5 -23 5q-8 0 -13.5 -4.5t-5.5 -9.5q0 -10 17 -10z" />
    <glyph glyph-name="orn.03" horiz-adv-x="1420" 
d="M29 83q-17 -15 -17 -31q0 -9 7 -15.5t23 -6.5q9 0 19 5t20.5 12.5t20.5 15.5t18 15l227 182q76 61 152 115.5t155.5 95.5t164.5 65t180 24q80 0 117 -21t37 -56q0 -39 -27 -58.5t-72 -28t-103.5 -11.5t-121.5 -9q-66 -7 -131 -23t-120 -51l-4 8q62 40 125 61.5t127 28.5
q63 7 120.5 7.5t101 5.5t69 20t25.5 51q0 10 -7 21t-24 21t-44.5 16.5t-67.5 6.5q-61 0 -124 -16.5t-126.5 -45t-126.5 -66t-122.5 -79.5t-116 -86t-106.5 -85q-37 -30 -73 -60.5t-67 -55t-54.5 -40t-35.5 -15.5q-24 0 -35.5 11.5t-11.5 27.5q0 17 6 28.5t18 20.5z" />
    <glyph glyph-name="orn.04" horiz-adv-x="1420" 
d="M822 185l20 5q9 2 21.5 3.5t27.5 1.5q99 0 171 -16t123.5 -34.5t86 -34.5t59.5 -16q30 0 53.5 14.5t23.5 40.5q0 33 -31 59t-81.5 43.5t-115.5 27t-132 9.5q-66 0 -141 -13t-151.5 -32.5t-150 -42.5t-136 -42.5t-109.5 -32.5t-71 -13q-18 0 -37.5 9t-35.5 21.5
t-26.5 26.5t-10.5 25q0 18 19 18q18 0 35.5 -10t32 -27.5t23.5 -41t9 -50.5q0 -8 -0.5 -17t-2.5 -17h-8q1 5 1.5 10t0.5 11q0 20 -5.5 43.5t-16.5 44t-28.5 34t-41.5 13.5q-10 0 -10 -9q0 -8 11 -18t26 -20t31.5 -16.5t27.5 -6.5q13 0 53.5 13t100 32t133.5 42t153.5 42
t160 32t153.5 13q88 0 159 -14t121 -36.5t76.5 -51t26.5 -57.5t-26 -48t-63 -19q-35 0 -79 16t-98.5 34.5t-120 34.5t-142.5 16q-14 0 -33 -2.5t-34 -6.5z" />
    <glyph glyph-name="orn.05" horiz-adv-x="1420" 
d="M596 175q-15 4 -34 6.5t-33 2.5q-77 0 -142.5 -16t-120 -34.5t-98.5 -34.5t-79 -16q-37 0 -63 19t-26 48t26.5 57.5t76.5 51t120.5 36.5t159.5 14q71 0 149.5 -12.5t156 -31t150 -40.5t132 -41t102 -33t59.5 -16q3 9 7 16.5t9 14.5l-5 5q-50 41 -106.5 85t-116 86
t-122.5 79.5t-126.5 66t-126.5 45t-124 16.5q-41 0 -68 -6.5t-44 -16.5t-24 -21t-7 -21q0 -36 25.5 -51t69 -20t101 -5.5t120.5 -7.5q64 -7 127 -28.5t125 -61.5l-4 -8q-55 35 -120 51t-131 23q-63 6 -121.5 9t-103.5 11.5t-72 28t-27 58.5q0 35 37 56t117 21q95 0 180 -24
t164.5 -65t155.5 -95.5t152 -115.5l92 -74q13 12 27.5 19t29.5 7q19 0 19 -18q0 -9 -8 -21.5t-21 -23.5l88 -71q8 -7 18 -15t20.5 -15.5t20.5 -12.5t19 -5q16 0 23 6.5t7 15.5q0 16 -17 31l5 5q12 -9 18 -20.5t6 -28.5q0 -16 -11.5 -27.5t-35.5 -11.5q-10 0 -28.5 11
t-42.5 29t-52.5 42t-59.5 50q-13 -8 -26.5 -13.5t-27.5 -6.5q-3 -11 -4 -21.5t-1 -20.5q0 -6 0.5 -11t1.5 -10h-8q-2 8 -2.5 17t-0.5 17q0 15 3 29q-26 2 -74 15.5t-110 33t-134.5 42t-147.5 41.5t-148.5 31.5t-138.5 12.5q-68 0 -132.5 -9.5t-115 -27t-81.5 -43.5t-31 -59
q0 -26 23.5 -40.5t53.5 -14.5q25 0 59.5 16t86 34.5t123.5 34.5t171 16q14 0 27 -1.5t22 -3.5l20 -5zM1372 486q10 11 19 25q8 12 14 28t6 34q0 28 -11.5 50t-30 37.5t-41.5 24t-46 8.5q-32 0 -59 -12.5t-46.5 -32.5t-31 -44t-11.5 -47q0 -8 1 -18t5 -20q13 6 27 6
q12 0 20 -7t8 -15t-6 -13t-18 -5q-21 0 -34 24q-23 -13 -37 -41.5t-14 -60.5q0 -30 10 -54.5t26.5 -42.5t38 -27.5t44.5 -9.5q5 0 10 0.5t10 1.5t11 3l3 -7q-3 -2 -8 -4q-9 -3 -26 -3q-21 0 -43.5 9t-41 27t-30.5 45t-12 63q0 35 15.5 64.5t39.5 43.5q-4 8 -5.5 19t-1.5 22
q0 25 11.5 50.5t32 46t49 33.5t62.5 13q29 0 54.5 -10.5t44 -27.5t29.5 -40.5t11 -48.5q0 -20 -6 -36.5t-14 -28.5q-9 -14 -19 -26zM1223 205q-17 0 -29.5 -6t-23.5 -17l28 -23q15 10 25 19.5t10 17.5q0 9 -10 9zM1167 517q-11 0 -23 -5q4 -8 10 -13.5t15 -5.5q17 0 17 10
q0 5 -5.5 9.5t-13.5 4.5zM1155 161q-4 -6 -7 -12.5t-6 -13.5q13 1 32 11z" />
    <glyph glyph-name="orn.06" horiz-adv-x="1420" 
d="M294 486q10 11 19 25q8 12 14 28t6 34q0 28 -11.5 50t-30 37.5t-41.5 24t-46 8.5q-32 0 -59 -12.5t-46.5 -32.5t-31 -44t-11.5 -47q0 -8 1.5 -18t5.5 -20q12 6 26 6q12 0 20 -7t8 -15t-6 -13t-18 -5q-21 0 -34 24q-23 -13 -37 -41.5t-14 -60.5q0 -30 10 -54.5t26.5 -42.5
t38 -27.5t44.5 -9.5q5 0 10 0.5t10 1.5t11 3l3 -7q-3 -2 -8 -4q-9 -3 -26 -3q-21 0 -43.5 9t-41 27t-30.5 45t-12 63q0 35 15.5 64.5t40.5 43.5q-8 18 -8 41q0 25 11.5 50.5t32 46t49 33.5t62.5 13q29 0 54.5 -10.5t44 -27.5t29.5 -40.5t11 -48.5q0 -20 -6 -36.5t-14 -28.5
q-9 -14 -19 -26zM91 493q17 0 17 10q0 5 -5.5 9.5t-13.5 4.5q-11 0 -23 -5q10 -19 25 -19z" />
    <glyph glyph-name="orn.07" horiz-adv-x="1420" 
d="M1129 88q12 -9 18 -20.5t6 -28.5q0 -16 -11.5 -27.5t-35.5 -11.5q-12 0 -35.5 15.5t-54.5 40t-67 55t-73 60.5q-50 41 -106.5 85t-116 86t-122.5 79.5t-126.5 66t-126.5 45t-124 16.5q-41 0 -68 -6.5t-44 -16.5t-24 -21t-7 -21q0 -36 25.5 -51t69 -20t101 -5.5
t120.5 -7.5q64 -7 127 -28.5t125 -61.5l-4 -8q-55 35 -120 51t-131 23q-63 6 -121.5 9t-103.5 11.5t-72 28t-27 58.5q0 35 37 56t117 21q95 0 180 -24t164.5 -65t155.5 -95.5t152 -115.5l227 -182q8 -7 18 -15t20.5 -15.5t20.5 -12.5t19 -5q16 0 23 6.5t7 15.5q0 16 -17 31z
" />
    <glyph glyph-name="orn.08" horiz-adv-x="1420" 
d="M775 175q-15 4 -34 6.5t-33 2.5q-77 0 -142.5 -16t-120 -34.5t-98.5 -34.5t-79 -16q-37 0 -63 19t-26 48t26.5 57.5t76.5 51t120.5 36.5t159.5 14q73 0 153.5 -13t160 -32t153.5 -42t133.5 -42t100 -32t53.5 -13q11 0 27.5 6.5t31.5 16.5t26 20t11 18q0 9 -10 9
q-24 0 -41.5 -13.5t-28.5 -34t-16.5 -44t-5.5 -43.5q0 -6 0.5 -11t1.5 -10h-8q-2 8 -2.5 17t-0.5 17q0 27 9 50.5t23.5 41t32 27.5t35.5 10q19 0 19 -18q0 -11 -10.5 -25t-26.5 -26.5t-35.5 -21.5t-37.5 -9q-24 0 -71 13t-109.5 32.5t-136 42.5t-150 42.5t-151.5 32.5
t-141 13q-68 0 -132.5 -9.5t-115 -27t-81.5 -43.5t-31 -59q0 -26 23.5 -40.5t53.5 -14.5q25 0 59.5 16t86 34.5t123.5 34.5t171 16q14 0 27 -1.5t22 -3.5l20 -5z" />
    <glyph glyph-name="B.alt" horiz-adv-x="310" 
d="M60 700h113q17 0 34.5 -6t31.5 -18.5t22.5 -32t8.5 -47.5v-129q0 -29 -7.5 -50t-19.5 -34t-27.5 -19t-31.5 -6h-10v-10q16 0 33.5 -6t31 -19t22.5 -34t9 -50v-135q0 -28 -8.5 -47.5t-22.5 -32t-31.5 -18.5t-34.5 -6h-113v700zM134 36h27q13 0 25 8t12 22v217
q0 23 -11 31.5t-22 8.5h-31v-287zM134 383h31q11 0 22 8.5t11 31.5v211q0 14 -12 22t-25 8h-27v-281z" />
    <glyph glyph-name="D.alt" horiz-adv-x="329" 
d="M153 700q62 0 94 -39.5t32 -120.5v-380q0 -50 -11.5 -81.5t-29.5 -49t-40.5 -23.5t-44.5 -6h-93v700h93zM134 664v-628h20q26 0 38.5 16.5t12.5 60.5v474q0 43 -15 60t-37 17h-19z" />
    <glyph glyph-name="E.alt" horiz-adv-x="367" 
d="M30 214h98v486h209v-36h-135v-450h114v-36h-114v-142h113v-36h-187v178h-98v36z" />
    <glyph glyph-name="F.alt" horiz-adv-x="367" 
d="M30 214h98v486h209v-36h-135v-450h114v-36h-114v-178h-74v178h-98v36z" />
    <glyph glyph-name="K.alt" horiz-adv-x="327" 
d="M270 700v-233q0 -29 -7.5 -50t-19.5 -34.5t-27.5 -20t-31.5 -6.5h-10v-11q17 0 34 -7.5t31 -22t22.5 -35.5t8.5 -48v-196h27v-36h-99v282q0 22 -12 31t-25 9h-27v-322h-74v700h74v-317h31q11 0 22 8.5t11 31.5v277h72z" />
    <glyph glyph-name="P.alt" horiz-adv-x="310" 
d="M60 700h113q17 0 34.5 -6t31.5 -18.5t22.5 -32t8.5 -47.5v-159q0 -59 -26.5 -86t-59.5 -27h-50v-324h-74v700zM134 360h31q11 0 22 8.5t11 31.5v224q0 22 -12 31t-25 9h-27v-304z" />
    <glyph glyph-name="R.alt" horiz-adv-x="327" 
d="M60 700h113q17 0 34.5 -6t31.5 -18.5t22.5 -32t8.5 -47.5v-129q0 -29 -7.5 -50t-19.5 -34.5t-27.5 -20t-31.5 -6.5h-10v-11q17 0 34 -7.5t31 -22t22.5 -35.5t8.5 -48v-196h27v-36h-99v282q0 22 -12 31t-25 9h-27v-322h-74v700zM134 383h31q11 0 22 8.5t11 31.5v201
q0 22 -12 31t-25 9h-27v-281z" />
    <glyph glyph-name="S.alt" horiz-adv-x="312" 
d="M243 274q16 -36 25 -72t9 -65q0 -34 -10 -61t-27 -45.5t-39 -28.5t-47 -10q-51 0 -84.5 34.5t-39.5 85.5h35q5 -42 26 -62.5t49 -20.5q26 0 45.5 18t19.5 51q0 28 -7 66.5t-21 70.5l-87 206q-17 41 -29 74t-12 67q0 25 8 48t23 40.5t36 27.5t48 10q29 0 48.5 -10.5
t32.5 -23.5l24 34l13 -9l-51 -73q-8 16 -22.5 30.5t-35.5 14.5q-25 0 -40 -19t-15 -49q0 -21 11.5 -56.5t26.5 -70.5z" />
    <glyph glyph-name="zerodot" 
d="M176 708q62 0 94 -43.5t32 -124.5v-380q0 -50 -11.5 -82.5t-29.5 -51.5t-40.5 -26.5t-44.5 -7.5t-44.5 7.5t-40.5 26.5t-29.5 51.5t-11.5 82.5v380q0 81 32 124.5t94 43.5zM176 28q52 0 52 85v474q0 43 -15 63.5t-37 20.5t-37 -20.5t-15 -63.5v-474q0 -85 52 -85z
M154 396h44v-90h-44v90z" />
    <glyph glyph-name="zeroslash" 
d="M176 708q62 0 94 -43.5t32 -124.5v-380q0 -50 -11.5 -82.5t-29.5 -51.5t-40.5 -26.5t-44.5 -7.5t-44.5 7.5t-40.5 26.5t-29.5 51.5t-11.5 82.5v380q0 81 32 124.5t94 43.5zM176 28q52 0 52 85v401l-103 -428q7 -58 51 -58zM124 198l100 423q-5 26 -18 38t-30 12
q-22 0 -37 -20.5t-15 -63.5v-389z" />
    </font>
</defs>
</svg>
